<svg xmlns="http://www.w3.org/2000/svg" viewBox="0 0 11.24 28"><defs><style>.cls-1{fill:#878888;stroke:#1e2226;stroke-miterlimit:10;stroke-width:0.05px;}</style></defs><title>Tipodomo</title><g id="Capa_2" data-name="Capa 2"><g id="Capa_10" data-name="Capa 10"><path class="cls-1" d="M.34,4.83H.61v.6h10v-.6h.27a.32.32,0,1,0,0-.63h-.27V2.79A2.59,2.59,0,0,0,8,.2H7.22A.44.44,0,0,0,6.87,0,.41.41,0,0,0,6.53.2H4.37A.41.41,0,0,0,4,0,.44.44,0,0,0,3.68.2H3.21A2.59,2.59,0,0,0,.61,2.79V4.2H.34a.32.32,0,0,0,0,.63Z"/><path class="cls-1" d="M10.9,7.29a.32.32,0,1,0,0-.63h-.27v-.6H.61v.6H.34a.32.32,0,0,0,0,.63H.61v.6H.34a.32.32,0,0,0,0,.63H.61v.6H.34a.32.32,0,0,0,0,.63H.61v.6H.34a.32.32,0,0,0,0,.63H.61v.59H.34a.32.32,0,0,0-.31.32.31.31,0,0,0,.31.32H.61v.59H.34a.32.32,0,0,0-.31.32.31.31,0,0,0,.31.32H.61v.62H.34a.32.32,0,0,0,0,.63H.61v.74h10v-.74h.27a.32.32,0,1,0,0-.63h-.27v-.62h.27a.32.32,0,0,0,.32-.32.33.33,0,0,0-.32-.32h-.27v-.59h.27a.32.32,0,0,0,.32-.32.33.33,0,0,0-.32-.32h-.27V11h.27a.32.32,0,1,0,0-.63h-.27v-.6h.27a.32.32,0,1,0,0-.63h-.27v-.6h.27a.32.32,0,1,0,0-.63h-.27v-.6Z"/><path class="cls-1" d="M10.9,16.64h-.27v-.58H.61v.58H.34a.32.32,0,0,0,0,.63H.61V19.5a2.59,2.59,0,0,0,2.6,2.59H4.64v4.48h-.5a.7.7,0,0,0,0,1.4H7.38a.7.7,0,1,0,0-1.4H6.87V22.09H8a2.59,2.59,0,0,0,2.59-2.59V17.27h.27a.32.32,0,1,0,0-.63Z"/></g></g></svg>