<svg xmlns="http://www.w3.org/2000/svg" viewBox="0 0 24.04 14.41"><defs><style>.cls-1{fill:#878888;stroke:#1e2226;stroke-miterlimit:10;stroke-width:0.05px;}.cls-2{fill:#1e2226;}.cls-3{fill:#040505;}</style></defs><title>TipoPACH</title><g id="Capa_2" data-name="Capa 2"><g id="Capa_10" data-name="Capa 10"><path class="cls-1" d="M8.62,7.21c0-3.69,1.76-6.72,4-7.13H4.59a5.41,5.41,0,0,0-3.12,1.6A5.26,5.26,0,0,0,.17,4.07,28,28,0,0,0,0,7.37a27.12,27.12,0,0,0,.2,2.87,4.46,4.46,0,0,0,1.46,3,4.55,4.55,0,0,0,2.9,1.12h8.06C10.38,13.92,8.62,10.89,8.62,7.21Z"/><path class="cls-1" d="M13.45,0c-2.38,0-4.3,3.21-4.3,7.18s1.92,7.18,4.3,7.18,4.29-3.22,4.29-7.18S15.82,0,13.45,0Zm0,12.75c-1.58,0-2.86-2.49-2.86-5.57s1.28-5.58,2.86-5.58,2.87,2.5,2.87,5.58S15.07,12.78,13.49,12.78Z"/><path class="cls-2" d="M23.54,4.94h0A.72.72,0,0,0,23,4.49H22.9c-.38,0-.68.55-.68,1.18s.33,1.2.75,1.2a.7.7,0,0,0,.57-.47h0a1.65,1.65,0,0,0,0-1.46Z"/><path class="cls-1" d="M22.27,5.67a1.09,1.09,0,0,1,.8-1.18H14.55a1.06,1.06,0,0,0-1.06,1.06v.26a1.06,1.06,0,0,0,1.06,1.06h8.59C22.66,6.87,22.27,6.33,22.27,5.67Z"/><path class="cls-1" d="M23.57,5h0a.64.64,0,0,0-.45-.42H23c-.33,0-.59.52-.59,1.12s.29,1.13.64,1.13.38-.18.5-.44h0a1.85,1.85,0,0,0,.14-.7A1.8,1.8,0,0,0,23.57,5Z"/><path class="cls-2" d="M23.84,7.38h0a.7.7,0,0,0-.52-.45H23.2c-.38,0-.68.55-.68,1.18s.33,1.2.74,1.2a.71.71,0,0,0,.58-.47h0A1.67,1.67,0,0,0,24,8.12,1.72,1.72,0,0,0,23.84,7.38Z"/><path class="cls-1" d="M22.56,8.12a1.1,1.1,0,0,1,.81-1.18H14.84A1.05,1.05,0,0,0,13.79,8v.25a1.06,1.06,0,0,0,1.05,1.07h8.6C23,9.32,22.56,8.78,22.56,8.12Z"/><path class="cls-1" d="M23.86,7.42h0A.61.61,0,0,0,23.42,7h-.1c-.33,0-.59.52-.59,1.11s.28,1.14.64,1.14c.2,0,.38-.18.49-.44h0a1.68,1.68,0,0,0,.15-.7A1.63,1.63,0,0,0,23.86,7.42Z"/><path class="cls-2" d="M22,6h0a.72.72,0,0,0-.52-.45h-.12c-.38.06-.69.56-.69,1.18s.34,1.2.75,1.2A.71.71,0,0,0,22,7.46h0A1.65,1.65,0,0,0,22,6Z"/><path class="cls-3" d="M20.72,6.72a1.11,1.11,0,0,1,.81-1.18H13A1.06,1.06,0,0,0,12,6.61v.25A1.05,1.05,0,0,0,13,7.92h8.6C21.12,7.92,20.72,7.39,20.72,6.72Z"/><path class="cls-1" d="M22,6h0a.64.64,0,0,0-.44-.43h-.1c-.33.05-.59.53-.59,1.12s.28,1.14.64,1.14c.2,0,.38-.18.49-.45h0a1.63,1.63,0,0,0,.15-.69A1.68,1.68,0,0,0,22,6Z"/><path class="cls-2" d="M22.68,3.61h0a.75.75,0,0,0-.53-.45H22c-.39.06-.71.56-.71,1.18s.35,1.2.77,1.2a.73.73,0,0,0,.6-.46h0a1.65,1.65,0,0,0,0-1.46Z"/><path class="cls-1" d="M21.37,4.34a1.11,1.11,0,0,1,.82-1.18H13.42a1.08,1.08,0,0,0-1.09,1.07v.25a1.07,1.07,0,0,0,1.09,1.06h8.85C21.77,5.54,21.37,5,21.37,4.34Z"/><path class="cls-1" d="M22.7,3.64h0a.68.68,0,0,0-.45-.43h-.11c-.34,0-.61.53-.61,1.12s.3,1.14.66,1.14c.21,0,.39-.18.51-.45h0a1.63,1.63,0,0,0,.15-.69A1.68,1.68,0,0,0,22.7,3.64Z"/><path class="cls-2" d="M22.39,8.9h0a.76.76,0,0,0-.52-.45h-.12c-.39.05-.69.55-.69,1.18s.34,1.2.75,1.2a.71.71,0,0,0,.58-.47h0a1.65,1.65,0,0,0,0-1.46Z"/><path class="cls-1" d="M21.11,9.63a1.1,1.1,0,0,1,.8-1.18H13.39a1.07,1.07,0,0,0-1.06,1.06v.26a1.07,1.07,0,0,0,1.06,1.06H22C21.5,10.83,21.11,10.29,21.11,9.63Z"/><path class="cls-1" d="M22.41,8.93h0A.65.65,0,0,0,22,8.51h-.11c-.33.05-.59.52-.59,1.12s.29,1.13.64,1.13.38-.18.5-.44h0a1.69,1.69,0,0,0,0-1.39Z"/><path class="cls-2" d="M21,4.87h0a.72.72,0,0,0-.52-.45h-.12c-.38,0-.68.55-.68,1.18s.33,1.2.74,1.2A.71.71,0,0,0,21,6.33h0a1.65,1.65,0,0,0,0-1.46Z"/><path class="cls-1" d="M19.72,5.6a1.1,1.1,0,0,1,.81-1.18H12A1.06,1.06,0,0,0,11,5.49v.25A1.06,1.06,0,0,0,12,6.8h8.6C20.12,6.8,19.72,6.26,19.72,5.6Z"/><path class="cls-1" d="M21,4.9h0a.66.66,0,0,0-.45-.42h-.1c-.33,0-.59.52-.59,1.12s.28,1.13.64,1.13c.2,0,.38-.18.5-.44h0a1.8,1.8,0,0,0,.14-.69A1.85,1.85,0,0,0,21,4.9Z"/><path class="cls-2" d="M21.29,7.36h0a.73.73,0,0,0-.53-.45h-.12c-.4,0-.71.56-.71,1.19s.34,1.22.77,1.22a.72.72,0,0,0,.59-.48h0a1.56,1.56,0,0,0,.18-.74A1.53,1.53,0,0,0,21.29,7.36Z"/><path class="cls-1" d="M20,8.12a1.1,1.1,0,0,1,.83-1.18H12A1.06,1.06,0,0,0,11,8v.25A1.07,1.07,0,0,0,12,9.32h8.85C20.38,9.32,20,8.78,20,8.12Z"/><path class="cls-1" d="M21.32,7.42h0A.63.63,0,0,0,20.86,7h-.11c-.34,0-.6.52-.6,1.11s.29,1.14.66,1.14c.21,0,.39-.18.51-.44h0a1.68,1.68,0,0,0,.15-.7A1.63,1.63,0,0,0,21.32,7.42Z"/></g></g></svg>