<svg xmlns="http://www.w3.org/2000/svg" viewBox="0 0 26.66 17.05"><defs><style>.cls-1{fill:#878888;stroke:#1e2226;stroke-miterlimit:10;stroke-width:0.05px;}</style></defs><title>TipoFO3</title><g id="Capa_2" data-name="Capa 2"><g id="Capa_10" data-name="Capa 10"><path class="cls-1" d="M24.18,9.1H26.1c.35,0,.55.14.54.53s-.23.51-.57.51c-1.33,0-2.65,0-4,0-.32,0-.61-.16-.6-.53s.31-.48.63-.48h2.05Z"/><path class="cls-1" d="M23.65,11H25.3c.31,0,.48.12.47.46s-.2.43-.5.43H21.85c-.27,0-.52-.14-.51-.46s.26-.41.54-.41Z"/><path class="cls-1" d="M23.65,5.41H25.3c.31,0,.48.12.47.46s-.2.44-.5.44c-1.14,0-2.28,0-3.42,0-.27,0-.52-.14-.51-.46s.26-.41.54-.41h1.77Z"/><path class="cls-1" d="M24.18,7.19H26.1c.35,0,.55.14.54.52s-.23.51-.57.51c-1.33,0-2.65,0-4,0-.32,0-.61-.16-.6-.53s.31-.47.63-.48Z"/><path class="cls-1" d="M23.68,12.91a.68.68,0,0,0-.94,0c-.87.79-1.26.13-1.49-.55a12.15,12.15,0,0,1,0-7.7c.12-.36.28-.87.68-1a1.08,1.08,0,0,1,.9.36.76.76,0,0,0,.88.17c.28-.23,0-.86,0-.93a1.84,1.84,0,0,0-.79-.81,3.11,3.11,0,0,0-1.64-.34c-.47,0-.95,0-1.42,0a1.52,1.52,0,0,1-1.6-.74A3.08,3.08,0,0,0,15.35,0c-4.72,0-9.44,0-14.16,0C.33,0,0,.2,0,1.14c0,4.89.05,9.78,0,14.68C0,16.79.28,17,1.24,17q7-.08,14,0a3.19,3.19,0,0,0,3-1.44,1.45,1.45,0,0,1,1.49-.74c.64.05,1.29,0,1.93,0,.9.06,1.37-.47,1.87-1.13C23.68,13.5,23.9,13.18,23.68,12.91ZM16.45,15.3c-1,.3-1.62-.38-2-1.16a11.44,11.44,0,0,1-1.2-5.6,11.61,11.61,0,0,1,1.18-5.6c.42-.78,1-1.48,2-1.21.29.08.72.21.27.69-2.06,2.19-2,4.92-1.78,7.62.12,1.66.36,3.36,1.74,4.57C17.12,15,16.8,15.2,16.45,15.3Z"/></g></g></svg>