<svg xmlns="http://www.w3.org/2000/svg" viewBox="0 0 25.19 22.32"><defs><style>.cls-1{fill:#878888;stroke:#1e2226;stroke-miterlimit:10;stroke-width:0.05px;}</style></defs><title>TipoFO4</title><g id="Capa_2" data-name="Capa 2"><g id="Capa_10" data-name="Capa 10"><path class="cls-1" d="M21.52,11.16a20.79,20.79,0,0,1-1,6.45,7.25,7.25,0,0,1-1.42,2.56,2,2,0,0,1-1.81.78c-1.26-.18-2.58.05-3.75-.15-1-.16-2,.66-2.92-.18-.22-.21-.36,0-.53.08a1,1,0,0,1-1.39-.06c-.46-.44-.26-.92-.1-1.42A25.87,25.87,0,0,0,8.59,3c-.17-.51-.34-1,.14-1.4A1.18,1.18,0,0,1,10,1.55c.8.3,1.67,0,2.53.05,1.17.1,2.41-.13,3.63.06,0,0,.09.05.12,0a2,2,0,0,1,2.4.09,6.4,6.4,0,0,1,1.8,2.92A20.75,20.75,0,0,1,21.52,11.16Z"/><path class="cls-1" d="M25.16,10.67A24.53,24.53,0,0,1,24,18.78a8.18,8.18,0,0,1-1.5,2.67,2.18,2.18,0,0,1-1.8.83,1.4,1.4,0,0,1-1.23-.59c-.23-.46.34-.6.56-.86a11.62,11.62,0,0,0,2.26-5.67A22.36,22.36,0,0,0,21.62,4.6a7.53,7.53,0,0,0-1.88-3.32C19.12.7,19.41.46,20,.21a2.13,2.13,0,0,1,2.68.91,12.94,12.94,0,0,1,2.21,6.23C25.07,8.62,25.1,9.91,25.16,10.67Z"/><path class="cls-1" d="M8.57,7.69A14.83,14.83,0,0,0,6.8,1.82C5.37-.6,3.42-.57,2,1.87a8.77,8.77,0,0,0-.46.92A22.21,22.21,0,0,0,0,10.91,26,26,0,0,0,1,18a8.13,8.13,0,0,0,1.9,3.61,2,2,0,0,0,3.07,0A7.1,7.1,0,0,0,7.7,18.51,24.78,24.78,0,0,0,8.57,7.69Zm-3.4,7c-.21.43-.49.84-1,.83a1.15,1.15,0,0,1-1-.85,8.79,8.79,0,0,1,0-7.24c.51-1.12,1.41-1.09,2,0a7.9,7.9,0,0,1,.74,3.75A8.13,8.13,0,0,1,5.17,14.73Z"/></g></g></svg>