<svg xmlns="http://www.w3.org/2000/svg" viewBox="0 0 24.86 23.75"><defs><style>.cls-1{fill:#878888;}</style></defs><title>TipoFO5</title><g id="Capa_2" data-name="Capa 2"><g id="Capa_10" data-name="Capa 10"><path class="cls-1" d="M7.47,1.68c-.53-.1-1.7-.33-2.33.3S4.7,3.61,4.86,4.71A5,5,0,0,0,6,7.67,4.93,4.93,0,0,0,8.47,8.73c1.29.39,3.95,1.16,5.25,3a7.33,7.33,0,0,1,1.14,5.05,10.48,10.48,0,0,0-.09,2.44,5.15,5.15,0,0,0,4.61,4.47,5,5,0,0,0,5-3.58A9.72,9.72,0,0,0,24.85,17C24.64,8.57,10.67,2.33,7.47,1.68ZM19.74,22.84a4.38,4.38,0,0,1-4.14-4.39,4.35,4.35,0,0,1,4.14-4.52,4.36,4.36,0,0,1,4.08,4.46C23.93,20.26,21.89,22.93,19.74,22.84Z"/><path class="cls-1" d="M17.67,16.2a.94.94,0,0,1,.91,1,.86.86,0,0,1-.89.89.89.89,0,0,1-1-.95A.94.94,0,0,1,17.67,16.2Z"/><path class="cls-1" d="M20,16.91c-.65-.08-1-.42-1-1a.92.92,0,1,1,1.84.12A.89.89,0,0,1,20,16.91Z"/><path class="cls-1" d="M19.48,20.21a.9.9,0,0,1,1,.93.93.93,0,1,1-1-.93Z"/><path class="cls-1" d="M21,20.66c-.3-.52-.43-1,.13-1.47a.81.81,0,0,1,1.15,0,1.05,1.05,0,0,1,0,1.47A1,1,0,0,1,21,20.66Z"/><path class="cls-1" d="M21.88,18.44a.88.88,0,0,1-1-.82.85.85,0,0,1,.87-1,.86.86,0,0,1,1,.81C22.82,18,22.45,18.33,21.88,18.44Z"/><path class="cls-1" d="M18.44,19.64a.93.93,0,0,1-1.86,0,.87.87,0,0,1,.86-.94C18,18.69,18.36,19.07,18.44,19.64Z"/><rect class="cls-1" x="1.47" y="0.99" width="6.05" height="1.14" rx="0.43" transform="translate(0.75 -1.38) rotate(19)"/><rect class="cls-1" x="1.11" y="3.01" width="6.32" height="1.14" rx="0.4" transform="translate(0.3 -0.33) rotate(4.64)"/><rect class="cls-1" x="1.07" y="4.86" width="6.37" height="1.14" rx="0.41" transform="translate(-0.92 0.87) rotate(-10.54)"/><rect class="cls-1" x="1.63" y="7.06" width="6.05" height="1.14" rx="0.41" transform="translate(-2.52 2.3) rotate(-21.97)"/><rect class="cls-1" x="0.37" y="3.19" width="0.93" height="0.2" transform="translate(0.12 -0.03) rotate(2.05)"/><circle class="cls-1" cx="0.37" cy="3.27" r="0.37"/><rect class="cls-1" x="0.98" y="0.42" width="0.93" height="0.2" transform="translate(0.25 -0.44) rotate(18.85)"/><circle class="cls-1" cx="1.01" cy="0.37" r="0.37"/><rect class="cls-1" x="0.55" y="5.96" width="0.93" height="0.2" transform="matrix(0.98, -0.19, 0.19, 0.98, -1.13, 0.3)"/><circle class="cls-1" cx="0.55" cy="6.14" r="0.37"/><rect class="cls-1" x="1.42" y="8.65" width="0.93" height="0.2" transform="translate(-3.13 1.34) rotate(-21.96)"/><circle class="cls-1" cx="1.45" cy="8.92" r="0.37"/></g></g></svg>