<svg xmlns="http://www.w3.org/2000/svg" viewBox="0 0 25.47 23.55"><defs><style>.cls-1{fill:#878888;}</style></defs><title>Tipoodf</title><g id="Capa_2" data-name="Capa 2"><g id="Capa_10" data-name="Capa 10"><path class="cls-1" d="M12.34,22.88V14.61a2.26,2.26,0,0,0,0-.45c-.05-.24-.17-.4-.44-.39l-.23-.1L1.73,8.34,0,7.43V7.9c0,2.67,0,5.34,0,8a.69.69,0,0,0,.39.68l8.49,5c1.1.65,2.17,1.36,3.32,1.94C12.39,23.36,12.34,23.11,12.34,22.88ZM1.25,12.35c0-.28.09-.26.28-.15l3.72,2.06c.11.06.18.11.18.25v1.12l-1.75-.89L1.48,13.6c-.17-.09-.26-.18-.24-.38A8.42,8.42,0,0,0,1.25,12.35Zm4.11,5.5L2,16.09c-.74-.39-.84-.59-.7-1.41,0-.28.18-.12.28-.07l3,1.5.11.06C5.56,16.67,5.57,16.7,5.36,17.85Zm4.85,2.34L8.12,18.94V15.09l2.1,1Z"/><path class="cls-1" d="M25.3,7.51l-4.88,2.64h0l.23-.13.29,3.24V12.5l.24-.14,0,4.82-.22.12V15l-.28.22v2.23l-.23.12V15.39l-.21.17v2.08l-.23.12v-2l-.24.2v1.93L19.5,18V16.12l-.27.23v1.76l-.23.13V16.53l-.17.15v1.61l-.22.13V13.74l-.19-2.49.4-.22h0c-1.73.93-3.45,1.87-5.18,2.79-.24.12-.25.28-.25.5v8.92c0,.1,0,.22,0,.31s.26-.09.38-.16l6.67-3.69Q22.92,18.34,25.4,17l.07-.07V7.47A.85.85,0,0,0,25.3,7.51ZM17.83,18.77l-.22.12v-4.8l.24-.15Zm.51-.25-.23.13V13.84l.24-.14ZM21.61,17l-.22.12v-4.8l.24-.14Zm.41-.18-.22.12V12.08l.24-.14Zm.51-.25-.23.13V11.84l.24-.14Zm.47-.23-.22.13V11.61l.24-.14Z"/><path class="cls-1" d="M17.36,10.48h0L5.48,3.85.71,6.42l.12.11,11.75,6.32a.43.43,0,0,0,.46,0l1.71-.92Z"/><polygon class="cls-1" points="6.65 3.22 6.65 3.22 6.65 3.22 6.65 3.22"/><path class="cls-1" d="M19.77,9.17h0l5-2.72-.19-.12L13.06.08a.53.53,0,0,0-.58,0L8.64,2.16,20.45,8.81Z"/><path class="cls-1" d="M8.2,2.39l.18-.09Z"/><path class="cls-1" d="M7.14,3.32l6.9,4,4,2.32.39.23-1,.57,2.41-1.31c-.19.1-.32,0-.46-.09L12.76,5.25Q10.62,4,8.46,2.74l-.34-.22a.24.24,0,0,1,.08-.13l-1.55.83C6.87,3.1,7,3.23,7.14,3.32Z"/><path class="cls-1" d="M8.64,2.16h0l-.26.14h0Z"/><path class="cls-1" d="M5.47,3.85h0l1.17-.63Z"/><path class="cls-1" d="M17.36,10.48l1-.57L18,9.68,14,7.36l-6.9-4c-.15-.09-.27-.22-.49-.1h0l-1.17.63,11.88,6.63Z"/><path class="cls-1" d="M8.12,2.52l.34.22Q10.62,4,12.76,5.25l6.55,3.83c.14.08.27.19.46.09l.68-.36L8.64,2.16l-.24.13h0l-.18.09A.24.24,0,0,0,8.12,2.52Z"/><path class="cls-1" d="M19,16h0V13.43l.24-.14v2.65l.27-.1V13.18l.24-.14v2.71a.77.77,0,0,0,.24-.16V13l.21-.12V10.61a.44.44,0,0,1,.22-.45L18.8,11l.19-.09Z"/><path class="cls-1" d="M19.73,15.75v.19l.24-.2v-.15A.77.77,0,0,1,19.73,15.75Z"/><path class="cls-1" d="M19.23,15.94v.41l.27-.23v-.28Z"/><path class="cls-1" d="M20.18,10.61v2.22l0,0v2.75l.21-.17V12.74l.24-.14v2.6l.28-.22V13.27L20.63,10l-.23.13A.44.44,0,0,0,20.18,10.61Z"/><path class="cls-1" d="M18.59,13.74v-.13l.23-.14v3.21l.17-.15V16h0v-5L18.8,11l-.4.22Z"/><polygon class="cls-1" points="22.06 11.98 17.85 13.95 17.38 11.8 21.63 9.5 22.06 11.98"/></g></g></svg>