<svg xmlns="http://www.w3.org/2000/svg" viewBox="0 0 98.98 98.26"><defs><style>.cls-1,.cls-3{fill:none;stroke:#878888;stroke-miterlimit:10;}.cls-1{stroke-width:3px;}.cls-2{fill:#878888;}</style></defs><title>Tipopash_2</title><g id="Capa_2" data-name="Capa 2"><g id="Capa_10" data-name="Capa 10"><circle class="cls-1" cx="49" cy="76.25" r="19.79"/><circle class="cls-1" cx="49" cy="71.18" r="25.57"/><path class="cls-1" d="M7.28,33.31a83.93,83.93,0,0,0,.71,26c1.78,9.54,3.3,17.65,10,25,7.65,8.37,17.36,10.52,21.39,11.41A45.82,45.82,0,0,0,69.3,92.12,39.06,39.06,0,0,0,84.62,79.29,39.3,39.3,0,0,0,91.4,55.77"/><polygon class="cls-2" points="17.09 12.39 1.14 10.64 0 21.1 4.11 21.55 4.11 21.55 12.5 22.46 12.5 22.46 15.94 22.84 17.09 12.39"/><path class="cls-2" d="M2.85,29.33a4.66,4.66,0,0,0,9.26,1L13,22.55l-9.25-1Z"/><polygon class="cls-2" points="98.58 34.76 82.55 35.38 82.95 45.88 87.08 45.73 87.08 45.73 95.52 45.4 95.52 45.4 98.98 45.27 98.58 34.76"/><path class="cls-2" d="M87.35,52.83a4.22,4.22,0,0,0,8.44-.33l-.27-7.1-8.44.32Z"/><path class="cls-2" d="M14.9,5.56A5,5,0,0,0,10.43.11L9.1,0A4.89,4.89,0,0,0,4,4.74l-.46,7,4.11.31.16-2.41A1.48,1.48,0,0,1,9.35,8.22a1.52,1.52,0,0,1,1.36,1.66l-.15,2.41,3.89.29Z"/><path class="cls-3" d="M7.12,15.19a1.47,1.47,0,1,0,2.92.27l.37-3.84-2.92-.27Z"/><path class="cls-2" d="M93.19,30.42a1.49,1.49,0,0,1,1.41-1.57l2.12-.09,0-1.25-2,.08a1.52,1.52,0,0,1-.11-3l2-.07-.11-2.92A1.63,1.63,0,0,0,94.8,20l-9.55.37a1.65,1.65,0,0,0-1.54,1.73l.1,2.85,1.75-.07a1.49,1.49,0,0,1,1.52,1.46,1.51,1.51,0,0,1-1.41,1.58l-1.75.06,0,1.26,1.59-.06a1.48,1.48,0,0,1,1.52,1.46,1.5,1.5,0,0,1-1.41,1.57l-1.59.06.12,3.33L97,35.07l-.12-3.27-2.12.08A1.49,1.49,0,0,1,93.19,30.42Z"/></g></g></svg>