<svg xmlns="http://www.w3.org/2000/svg" viewBox="0 0 29.82 82.98"><defs><style>.cls-1{fill:#878888;stroke:#1e2226;stroke-miterlimit:10;stroke-width:0.05px;}</style></defs><title>Tipopigtail_1</title><g id="Capa_2" data-name="Capa 2"><g id="Capa_10" data-name="Capa 10"><polygon class="cls-1" points="25.89 20.87 25.89 0.03 18.11 0.03 18.11 5.01 13.77 5.01 13.77 7.81 18.11 7.81 18.11 14.04 13.77 14.04 13.77 16.84 18.11 16.84 18.11 20.87 15.79 20.87 15.79 18.07 12.42 18.07 12.42 11.78 15.79 11.78 15.79 8.98 12.42 8.98 12.42 2.82 15.79 2.82 15.79 0.03 12.42 0.03 7.1 0.03 3.74 0.03 3.74 20.87 0.03 20.87 0.03 36.98 0.03 39.65 0.03 40.81 0.77 40.81 0.77 41.89 1.84 41.89 1.84 42.73 3.74 42.73 3.74 45.89 7.79 45.89 7.79 48.9 3.74 48.9 3.74 52.73 7.79 52.73 7.79 55.85 3.83 55.85 3.83 59.69 7.79 59.69 7.79 61.91 5.69 61.91 5.69 64.93 7.79 64.93 7.79 69.92 21.82 69.92 21.82 64.93 23.82 64.93 23.82 61.91 21.82 61.91 21.82 59.69 25.99 59.69 25.99 55.85 21.82 55.85 21.82 52.73 25.89 52.73 25.89 48.9 21.82 48.9 21.82 45.89 25.89 45.89 25.89 42.73 27.65 42.73 27.65 41.89 28.8 41.89 28.8 40.81 29.8 40.81 29.8 39.65 29.8 36.98 29.8 20.87 25.89 20.87"/><rect class="cls-1" x="9.8" y="73.78" width="10.31" height="9.18"/></g></g></svg>