<svg xmlns="http://www.w3.org/2000/svg" viewBox="0 0 26.61 17"><defs><style>.cls-1{fill:#878888;}</style></defs><title>TipoRecurso 15</title><g id="Capa_2" data-name="Capa 2"><g id="Capa_10" data-name="Capa 10"><path class="cls-1" d="M24.15,9.08h1.92c.36,0,.55.14.54.53s-.22.51-.57.5c-1.32,0-2.64,0-4,0a.53.53,0,0,1-.6-.52c0-.38.31-.48.63-.48Z"/><path class="cls-1" d="M23.62,11h1.66c.3,0,.47.13.46.46s-.19.44-.49.44c-1.14,0-2.28,0-3.42,0a.46.46,0,0,1-.52-.46c0-.32.27-.41.55-.41Z"/><path class="cls-1" d="M23.62,5.39h1.66c.3,0,.47.12.46.45s-.19.44-.49.44c-1.14,0-2.28,0-3.42,0-.27,0-.52-.13-.52-.45s.27-.41.55-.42Z"/><path class="cls-1" d="M24.15,7.16h1.92c.36,0,.55.14.54.53s-.22.51-.57.51c-1.32,0-2.64,0-4,0-.31,0-.6-.16-.6-.53s.31-.48.63-.48h2Z"/><path class="cls-1" d="M23.66,12.89a.69.69,0,0,0-.95,0c-.87.79-1.26.13-1.48-.54a12,12,0,0,1,0-7.71c.11-.36.28-.86.67-1a1.09,1.09,0,0,1,.9.35c.33.26.7.32.88.17s0-.86,0-.93a1.75,1.75,0,0,0-.79-.8,3.13,3.13,0,0,0-1.65-.35c-.47,0-.94,0-1.41,0a1.53,1.53,0,0,1-1.61-.75A3.06,3.06,0,0,0,15.33,0Q8.25.06,1.17,0C.3,0,0,.18,0,1.11Q.08,8.46,0,15.79C0,16.76.25,17,1.21,17q7-.08,14,0a3.22,3.22,0,0,0,3-1.45,1.43,1.43,0,0,1,1.48-.73c.64,0,1.29,0,1.93,0a2.09,2.09,0,0,0,1.87-1.14C23.66,13.48,23.88,13.15,23.66,12.89Zm-7.23,2.38c-1,.3-1.62-.38-2-1.16a11.5,11.5,0,0,1-1.19-5.6,11.54,11.54,0,0,1,1.18-5.6c.41-.78,1-1.48,2-1.2.29.07.71.2.26.68-2.05,2.19-2,4.92-1.78,7.63.13,1.65.36,3.35,1.74,4.56C17.09,15,16.77,15.18,16.43,15.27Z"/></g></g></svg>