<svg xmlns="http://www.w3.org/2000/svg" viewBox="0 0 16.14 26.89"><defs><style>.cls-1{fill:#878888;}</style></defs><title>Tipopom</title><g id="Capa_2" data-name="Capa 2"><g id="Capa_10" data-name="Capa 10"><path class="cls-1" d="M1.34,5.5c0-1.28-.06-2.49,0-3.7a1.8,1.8,0,0,1,2-1.8,1.81,1.81,0,0,1,2,1.79c.1,1.33.44,2.83-1.77,2.85A7.42,7.42,0,0,0,1.34,5.5Z"/><path class="cls-1" d="M15.28,8.16c-.3-.42.1-.74.26-1a1.35,1.35,0,0,0-.62-2c-.79-.44-1.87-1.38-2.53-.4-.8,1.2-1.63.74-2.57.7a21,21,0,0,0-5,.22c-3.18.62-5.18,2.82-4.77,6A85.21,85.21,0,0,1,.73,24a2.78,2.78,0,0,0,3,2.88c1.45,0,2.91,0,4.36,0h3.69c2.63,0,3.61-1,3.57-3.69a49.57,49.57,0,0,1,.37-9C16.07,12.15,16.63,10.07,15.28,8.16Zm-12.6,2.5c0-.64-.21-1.31.92-1.28q4.43.1,8.86,0c1.28,0,.89.82.93,1.46s.19,1.35-.94,1.27c-1.5-.09-3,0-4.52,0S5,12,3.59,12.11,2.73,11.27,2.68,10.66Zm10.76,4.08c0,1-.22,1.5-1.37,1.41-1.38-.11-2.78,0-4.18,0s-2.57-.06-3.84,0c-1,.07-1.47-.16-1.42-1.32.05-1,.16-1.46,1.34-1.42,2.67.1,5.35.08,8,0C13,13.39,13.48,13.56,13.44,14.74Z"/></g></g></svg>