<svg xmlns="http://www.w3.org/2000/svg" viewBox="0 0 25.14 22.27"><title>Tiporeel_1</title><g id="Capa_2" data-name="Capa 2"><g id="Capa_10" data-name="Capa 10"><path d="M21.49,11.13a20.45,20.45,0,0,1-1,6.45,7.31,7.31,0,0,1-1.43,2.57,2,2,0,0,1-1.81.78c-1.25-.18-2.58,0-3.75-.15-1-.17-2,.66-2.92-.18-.21-.21-.35,0-.52.08a1,1,0,0,1-1.4-.07c-.46-.43-.25-.91-.09-1.42A25.84,25.84,0,0,0,8.56,3c-.17-.52-.34-1,.15-1.41A1.19,1.19,0,0,1,10,1.53c.8.3,1.66,0,2.52,0,1.17.11,2.42-.13,3.64.07,0,0,.09.05.11,0a2,2,0,0,1,2.4.1,6.19,6.19,0,0,1,1.8,2.92A20.11,20.11,0,0,1,21.49,11.13Z"/><path d="M25.14,10.64a24.63,24.63,0,0,1-1.2,8.12,8,8,0,0,1-1.51,2.66,2.11,2.11,0,0,1-1.8.83,1.35,1.35,0,0,1-1.22-.58c-.24-.46.34-.6.55-.87a11.45,11.45,0,0,0,2.26-5.67,22.19,22.19,0,0,0-.63-10.55,7.42,7.42,0,0,0-1.87-3.32C19.1.67,19.39.43,20,.19a2.11,2.11,0,0,1,2.68.91,13,13,0,0,1,2.22,6.22C25.05,8.59,25.08,9.89,25.14,10.64Z"/><path d="M8.54,7.67A14.6,14.6,0,0,0,6.78,1.8C5.34-.62,3.39-.59,2,1.85a8,8,0,0,0-.47.92A22.37,22.37,0,0,0,0,10.88a26.07,26.07,0,0,0,.93,7.06,8.07,8.07,0,0,0,1.91,3.6,2,2,0,0,0,3.07,0,7.19,7.19,0,0,0,1.77-3.1A24.73,24.73,0,0,0,8.54,7.67Zm-3.39,7c-.21.44-.5.84-1.05.84a1.19,1.19,0,0,1-1-.86,8.77,8.77,0,0,1,.06-7.23c.51-1.12,1.4-1.1,2,0a7.81,7.81,0,0,1,.74,3.75A8.24,8.24,0,0,1,5.15,14.7Z"/></g></g></svg>