<svg xmlns="http://www.w3.org/2000/svg" viewBox="0 0 136.88 105.09"><defs><style>.cls-1{fill:#edb722;stroke:#d8a421;stroke-width:0.15px;}.cls-1,.cls-8{stroke-miterlimit:10;}.cls-2{fill:#ffd62d;}.cls-3{fill:#e6e4f3;}.cls-4{fill:#f1f2fa;}.cls-5{fill:#50519e;}.cls-6{fill:#405d6d;}.cls-7{fill:#ef8c1e;}.cls-8{fill:none;stroke:#ef8c1e;stroke-width:0.5px;}.cls-9{fill:#4975b9;}.cls-10{fill:#379736;}.cls-11{fill:#f2ae9f;}.cls-12{fill:#102030;}.cls-13{fill:#f4f4f4;}</style></defs><title>Tipoaceptacion</title><g id="Capa_2" data-name="Capa 2"><g id="Capa_6" data-name="Capa 6"><rect class="cls-1" x="43.87" y="39.82" width="4.92" height="0.8" rx="0.18" transform="translate(8.68 88.65) rotate(-93.1)"/><rect class="cls-1" x="44.87" y="39.76" width="4.92" height="0.8" rx="0.18" transform="translate(9.79 89.6) rotate(-93.1)"/><rect class="cls-1" x="45.81" y="39.76" width="4.92" height="0.8" rx="0.18" transform="translate(10.79 90.53) rotate(-93.1)"/><path class="cls-2" d="M56.47,2.41C45,9.22,45.57,30.87,45.74,37.87c0,.44,0,.8,0,1.05a1.46,1.46,0,0,0,.69.47,1.48,1.48,0,0,0,1,0,1.49,1.49,0,0,0,.78-.17,1.66,1.66,0,0,0,.47-.37c0-3.23-6.27-32.28,14.31-36.5a27.79,27.79,0,0,1,7.35-.43.5.5,0,0,0,0-.48A1.19,1.19,0,0,0,69.86,1,4.7,4.7,0,0,0,69,.48,4.86,4.86,0,0,0,65.3.27,16.35,16.35,0,0,0,56.47,2.41Z"/><rect class="cls-3" y="40.71" width="92.47" height="64.37" rx="16.02"/><rect class="cls-4" x="3.64" y="44.12" width="84.54" height="57.57" rx="14.28"/><circle class="cls-5" cx="14.95" cy="56.37" r="1.97"/><circle class="cls-5" cx="14.95" cy="61.95" r="1.97"/><circle class="cls-5" cx="9.81" cy="61.95" r="1.97"/><circle class="cls-5" cx="9.81" cy="56.37" r="1.97"/><circle class="cls-5" cx="14.95" cy="67.53" r="1.97"/><circle class="cls-5" cx="14.95" cy="73.11" r="1.97"/><circle class="cls-5" cx="9.81" cy="73.11" r="1.97"/><circle class="cls-5" cx="9.81" cy="67.53" r="1.97"/><circle class="cls-5" cx="14.95" cy="78.69" r="1.97"/><circle class="cls-5" cx="14.95" cy="84.27" r="1.97"/><circle class="cls-5" cx="9.81" cy="84.27" r="1.97"/><circle class="cls-5" cx="9.81" cy="78.69" r="1.97"/><circle class="cls-5" cx="14.95" cy="89.86" r="1.97"/><circle class="cls-5" cx="9.81" cy="89.86" r="1.97"/><circle class="cls-5" cx="82.42" cy="56.37" r="1.97"/><circle class="cls-5" cx="82.42" cy="61.95" r="1.97"/><circle class="cls-5" cx="77.29" cy="61.95" r="1.97"/><circle class="cls-5" cx="77.29" cy="56.37" r="1.97"/><circle class="cls-5" cx="82.42" cy="67.53" r="1.97"/><circle class="cls-5" cx="82.42" cy="73.11" r="1.97"/><circle class="cls-5" cx="77.29" cy="73.11" r="1.97"/><circle class="cls-5" cx="77.29" cy="67.53" r="1.97"/><circle class="cls-5" cx="82.42" cy="78.69" r="1.97"/><circle class="cls-5" cx="82.42" cy="84.27" r="1.97"/><circle class="cls-5" cx="77.29" cy="84.27" r="1.97"/><circle class="cls-5" cx="77.29" cy="78.69" r="1.97"/><circle class="cls-5" cx="82.42" cy="89.86" r="1.97"/><circle class="cls-5" cx="77.29" cy="89.86" r="1.97"/><rect class="cls-3" x="20.75" y="52.23" width="50.98" height="41.75" rx="5.64"/><path class="cls-6" d="M39.93,80.89h0a2.29,2.29,0,0,1,2.29,2.29V93.85a0,0,0,0,1,0,0H37.64a0,0,0,0,1,0,0V83.18A2.29,2.29,0,0,1,39.93,80.89Z"/><path class="cls-6" d="M56.55,80.89h0a2.29,2.29,0,0,1,2.29,2.29V93.85a0,0,0,0,1,0,0H54.25a0,0,0,0,1,0,0V83.18A2.29,2.29,0,0,1,56.55,80.89Z"/><path class="cls-6" d="M45.47,84.55h0a2.29,2.29,0,0,1,2.29,2.29v7a0,0,0,0,1,0,0H43.18a0,0,0,0,1,0,0v-7A2.29,2.29,0,0,1,45.47,84.55Z"/><path class="cls-6" d="M50.92,77.81h0a2.29,2.29,0,0,1,2.29,2.29V93.85a0,0,0,0,1,0,0H48.63a0,0,0,0,1,0,0V80.11A2.29,2.29,0,0,1,50.92,77.81Z"/><path class="cls-6" d="M62.45,77.81h0a2.29,2.29,0,0,1,2.29,2.29V93.85a0,0,0,0,1,0,0H60.15a0,0,0,0,1,0,0V80.11A2.29,2.29,0,0,1,62.45,77.81Z"/><circle class="cls-7" cx="45.2" cy="79.37" r="0.59"/><circle class="cls-7" cx="50.65" cy="72.52" r="0.59"/><circle class="cls-7" cx="62.18" cy="72.52" r="0.59"/><circle class="cls-7" cx="56.16" cy="75.57" r="0.59"/><circle class="cls-7" cx="39.66" cy="75.57" r="0.59"/><line class="cls-8" x1="39.66" y1="75.57" x2="45.2" y2="79.37"/><line class="cls-8" x1="50.65" y1="72.52" x2="56.16" y2="75.57"/><line class="cls-8" x1="45.2" y1="79.37" x2="50.65" y2="72.52"/><line class="cls-8" x1="56.16" y1="75.57" x2="62.18" y2="72.52"/><rect class="cls-9" x="24.39" y="57.62" width="13.25" height="4.73"/><rect class="cls-9" x="24.39" y="63.92" width="13.25" height="4.73"/><rect class="cls-9" x="24.39" y="70.75" width="13.25" height="4.73"/><rect class="cls-9" x="39.61" y="57.62" width="13.25" height="4.73"/><rect class="cls-9" x="55.55" y="57.62" width="13.25" height="4.73"/><rect class="cls-10" x="44.76" y="34.17" width="4.72" height="2.01" rx="1.01"/><rect class="cls-10" x="44.76" y="36.18" width="4.72" height="2.01" rx="1.01"/><rect class="cls-10" x="44.76" y="32.16" width="4.72" height="2.01" rx="1.01"/></g><g id="Capa_8" data-name="Capa 8"><path class="cls-11" d="M89.71,39.81h9a2.4,2.4,0,0,1,2.4,2.4V74.82a0,0,0,0,1,0,0H87.31a0,0,0,0,1,0,0V42.21a2.4,2.4,0,0,1,2.4-2.4Z" transform="translate(76.03 166.09) rotate(-111.83)"/><path class="cls-12" d="M109.22,28.42h14.26a0,0,0,0,1,0,0V66.07A2.48,2.48,0,0,1,121,68.55H111.7a2.48,2.48,0,0,1-2.48-2.48V28.42A0,0,0,0,1,109.22,28.42Z" transform="translate(114.6 174.52) rotate(-111.83)"/><rect class="cls-13" x="92.78" y="51.44" width="15.42" height="6.75" rx="0.88" transform="translate(86.97 168.48) rotate(-111.83)"/></g></g></svg>