<svg xmlns="http://www.w3.org/2000/svg" viewBox="0 0 152.24 109.54"><defs><style>.cls-1{fill:#edb722;stroke:#d8a421;stroke-width:0.15px;}.cls-1,.cls-15,.cls-2{stroke-miterlimit:10;}.cls-2{fill:#ffd62d;stroke:#e0bc23;}.cls-15,.cls-2{stroke-width:0.5px;}.cls-3{fill:#ceb36a;}.cls-4{fill:#b59647;}.cls-5{fill:#112439;}.cls-6{fill:#162c3f;}.cls-7{fill:#379736;}.cls-8{fill:#fff;}.cls-9{fill:#f2928b;}.cls-10{fill:#f2ae9f;}.cls-11{fill:#8b143a;}.cls-12{fill:#8e4d21;}.cls-13{fill:#e78f26;}.cls-14{fill:#e27829;}.cls-15{fill:none;stroke:#080d13;}.cls-16{fill:#080d13;}.cls-17{fill:#102030;}.cls-18{fill:#f4f4f4;}.cls-19{fill:#e58887;}.cls-20{fill:#e72662;}.cls-21{fill:#ffefc7;}</style></defs><title>Tipofabricacion_1</title><g id="Capa_2" data-name="Capa 2"><g id="Capa_7" data-name="Capa 7"><rect class="cls-1" x="45.14" y="62.52" width="4.92" height="0.8" rx="0.18" transform="translate(42.69 -15.83) rotate(33.54)"/><rect class="cls-1" x="45.7" y="61.68" width="4.92" height="0.8" rx="0.18" transform="translate(42.32 -16.27) rotate(33.54)"/><rect class="cls-1" x="46.17" y="60.87" width="4.92" height="0.8" rx="0.18" transform="translate(41.95 -16.67) rotate(33.54)"/><path class="cls-2" d="M85.33,73.32c-14.79,9.87-35.09-8.8-35.88-8.93a.52.52,0,0,1-.4-.26,1.11,1.11,0,0,1-.17-.63v-1c0-.5.25-.89.57-.89C52,63.85,74.63,83.34,88.69,67.73a27.52,27.52,0,0,0,4.09-6.11.46.46,0,0,1,.4.26,1.11,1.11,0,0,1,.17.63,5.43,5.43,0,0,1,0,1,4.88,4.88,0,0,1-1.7,3.3A23.57,23.57,0,0,1,85.33,73.32Z"/><rect class="cls-2" x="90.04" y="59.05" width="52.72" height="3.57" rx="0.67"/><rect class="cls-2" x="90.04" y="63.12" width="52.72" height="3.57" rx="0.67"/><rect class="cls-2" x="90.04" y="67.2" width="52.72" height="3.57" rx="0.67"/><rect class="cls-2" x="90.04" y="71.27" width="52.72" height="3.57" rx="0.67"/><rect class="cls-2" x="90.04" y="75.34" width="52.72" height="3.57" rx="0.67"/><rect class="cls-2" x="90.04" y="79.41" width="52.72" height="3.57" rx="0.67"/><rect class="cls-2" x="90.04" y="83.49" width="52.72" height="3.57" rx="0.67"/><rect class="cls-2" x="90.04" y="87.56" width="52.72" height="3.57" rx="0.67"/><rect class="cls-3" x="87.85" y="50.93" width="57.09" height="7.87" rx="1.47"/><rect class="cls-3" x="87.85" y="91.63" width="57.09" height="7.87" rx="1.47"/><circle class="cls-4" cx="95.74" cy="54.87" r="1.23"/><circle class="cls-4" cx="100.72" cy="54.87" r="1.23"/><circle class="cls-4" cx="106.01" cy="54.87" r="1.23"/><circle class="cls-4" cx="111.47" cy="54.87" r="1.23"/><circle class="cls-4" cx="121.32" cy="54.87" r="1.23"/><circle class="cls-4" cx="126.9" cy="54.87" r="1.23"/><circle class="cls-4" cx="132.07" cy="54.87" r="1.23"/><circle class="cls-4" cx="137.06" cy="54.87" r="1.23"/><circle class="cls-4" cx="95.74" cy="95.57" r="1.23"/><circle class="cls-4" cx="100.72" cy="95.57" r="1.23"/><circle class="cls-4" cx="106.01" cy="95.57" r="1.23"/><circle class="cls-4" cx="111.47" cy="95.57" r="1.23"/><circle class="cls-4" cx="121.32" cy="95.57" r="1.23"/><circle class="cls-4" cx="126.9" cy="95.57" r="1.23"/><circle class="cls-4" cx="132.07" cy="95.57" r="1.23"/><circle class="cls-4" cx="137.06" cy="95.57" r="1.23"/></g><g id="Capa_8" data-name="Capa 8"><rect class="cls-5" x="13.95" y="75.06" width="12.21" height="34.48" rx="3.56" transform="translate(40.1 184.6) rotate(180)"/><rect class="cls-6" x="7.18" y="75.06" width="12.21" height="34.48" rx="3.56" transform="translate(26.56 184.6) rotate(180)"/><rect class="cls-5" x="0.92" y="74.04" width="33.9" height="6.74" rx="1.01" transform="translate(35.74 154.82) rotate(-180)"/><path class="cls-7" d="M.12,43.34H35.87a0,0,0,0,1,0,0V64.17A10.41,10.41,0,0,1,25.45,74.58H10.54A10.41,10.41,0,0,1,.12,64.17V43.34A0,0,0,0,1,.12,43.34Z" transform="translate(35.99 117.93) rotate(-180)"/><path class="cls-8" d="M13.89,43.85h8.36A4.12,4.12,0,0,1,26.36,48v3.12a.24.24,0,0,1-.24.24H10a.24.24,0,0,1-.24-.24V48A4.12,4.12,0,0,1,13.89,43.85Z" transform="translate(36.13 95.17) rotate(180)"/><rect class="cls-9" x="10.92" y="36.27" width="14.15" height="14.15" rx="4.12" transform="translate(35.99 86.69) rotate(180)"/><path class="cls-9" d="M30.32,29.31h3a0,0,0,0,1,0,0v1a.87.87,0,0,1-.87.87H31.18a.87.87,0,0,1-.87-.87v-1a0,0,0,0,1,0,0Z" transform="translate(63.61 60.46) rotate(-180)"/><path class="cls-10" d="M18,7.39h0A14.22,14.22,0,0,1,32.21,21.61v7.52a13.89,13.89,0,0,1-.41,3.31H22.62a.47.47,0,0,0-.46.46v1a5.63,5.63,0,0,0,5.55,5.62A14.2,14.2,0,0,1,18,43.34h0A14.21,14.21,0,0,1,3.78,29.13V21.61A14.22,14.22,0,0,1,18,7.39Z"/><path class="cls-11" d="M22.16,33.87v-1a.47.47,0,0,1,.46-.46h4.67a1.32,1.32,0,0,0,1.32,1.32h2.8a14.19,14.19,0,0,1-3.7,5.73A5.63,5.63,0,0,1,22.16,33.87Z"/><path class="cls-8" d="M27.29,32.44H31.8a11.79,11.79,0,0,1-.39,1.32h-2.8A1.32,1.32,0,0,1,27.29,32.44Z"/><rect class="cls-5" x="27.69" y="23.97" width="3.52" height="5.07" rx="1.02" transform="translate(58.89 53.02) rotate(180)"/><rect class="cls-12" x="18.43" y="19.18" width="2.59" height="8.31" rx="0.67" transform="translate(39.45 46.66) rotate(-180)"/><circle class="cls-12" cx="21.02" cy="22.22" r="1.93"/><circle class="cls-12" cx="17.97" cy="22.22" r="1.93"/><circle class="cls-12" cx="15.03" cy="22.22" r="1.93"/><circle class="cls-12" cx="12.19" cy="22.22" r="1.93"/><circle class="cls-12" cx="9.14" cy="22.22" r="1.93"/><circle class="cls-12" cx="6.03" cy="22.22" r="1.93"/><circle class="cls-12" cx="3.19" cy="22.22" r="1.93"/><rect class="cls-12" x="26.49" y="22.64" width="4.61" height="0.9" rx="0.26" transform="translate(61.78 39.65) rotate(167.94)"/><path class="cls-13" d="M7.2,4.18v8a3,3,0,0,0,6.1,0V1.75a3.05,3.05,0,0,0-.18-1A15.8,15.8,0,0,1,15,.29a2.48,2.48,0,0,0,0,.27V11A3,3,0,1,0,21,11V.56a2.48,2.48,0,0,0,0-.27,14.79,14.79,0,0,1,1.88.48,3.2,3.2,0,0,0-.17,1V12.16a3.05,3.05,0,1,0,6.1,0V4.24A15.9,15.9,0,0,1,33.92,16v3.43a1.73,1.73,0,0,1-1.74,1.74H3.75A1.74,1.74,0,0,1,2,19.39V16A15.91,15.91,0,0,1,7.2,4.18Z"/><path class="cls-13" d="M13.3,12.16c0,1.68-1.36,4-3.05,4s-3-2.29-3-4v-8A16,16,0,0,1,13.12.75a3.05,3.05,0,0,1,.18,1Z"/><path class="cls-13" d="M25.75,16.13c-1.69,0-3.05-2.29-3.05-4V1.75a3.2,3.2,0,0,1,.17-1A16,16,0,0,1,28.8,4.24v7.92C28.8,13.84,27.43,16.13,25.75,16.13Z"/><path class="cls-13" d="M21,11c0,1.69-1.37,4.23-3.05,4.23s-3-2.54-3-4.23V.56a2.48,2.48,0,0,1,0-.27,15.87,15.87,0,0,1,6,0,2.48,2.48,0,0,1,0,.27Z"/><rect class="cls-14" y="19.5" width="45.9" height="1.63" rx="0.47" transform="translate(45.9 40.63) rotate(-180)"/><rect class="cls-15" x="23.73" y="23.97" width="9.07" height="5.81" rx="0.8" transform="translate(56.54 53.76) rotate(-180)"/><rect class="cls-16" x="16.95" y="24.11" width="7" height="0.73" rx="0.21" transform="translate(40.9 48.95) rotate(-180)"/><path class="cls-10" d="M42,54.27h3.43a2.4,2.4,0,0,1,2.4,2.4V75.13a0,0,0,0,1,0,0H39.58a0,0,0,0,1,0,0V56.67A2.4,2.4,0,0,1,42,54.27Z" transform="translate(116.39 36.24) rotate(102.65)"/><path class="cls-17" d="M25.59,49.62h8.5a0,0,0,0,1,0,0V71.05a2.48,2.48,0,0,1-2.48,2.48H28.06a2.48,2.48,0,0,1-2.48-2.48V49.62a0,0,0,0,1,0,0Z" transform="translate(96.45 45.95) rotate(102.65)"/><rect class="cls-18" x="35.17" y="61.8" width="9.19" height="4.02" rx="0.88" transform="matrix(-0.22, 0.98, -0.98, -0.22, 110.74, 38.99)"/><ellipse class="cls-9" cx="17.18" cy="26.51" rx="2.15" ry="3.66"/><ellipse class="cls-19" cx="17.87" cy="26.51" rx="0.85" ry="2.36"/><path class="cls-20" d="M30.52,35.81a5.1,5.1,0,0,0-3.92-.55,5,5,0,0,0-3,2.35A5.71,5.71,0,0,0,26,39.2a5.85,5.85,0,0,0,1.71.29,14.77,14.77,0,0,0,2.81-3.68Z"/><path class="cls-14" d="M30.08,5.13a.46.46,0,0,1-.34.77q-5.93,0-11.91-.06c-3.87,0-7.73,0-11.57,0a.46.46,0,0,1-.34-.78A16.83,16.83,0,0,1,13.61.58a17.41,17.41,0,0,1,11.62,1A16.32,16.32,0,0,1,30.08,5.13Z"/><path class="cls-14" d="M32.52,8.64a.76.76,0,0,0-.67-.4L19.71,8.16H4.14a.76.76,0,0,0-.68.4,18.4,18.4,0,0,0-.82,1.86c-.15.4-.27.78-.38,1.15a.77.77,0,0,0,.74,1l16.2,0,13.8,0a.77.77,0,0,0,.74-1c-.13-.44-.28-.9-.47-1.39A16.89,16.89,0,0,0,32.52,8.64Z"/><rect class="cls-21" x="53.81" y="99.5" width="98.43" height="9.75" rx="4.27"/></g></g></svg>