<svg xmlns="http://www.w3.org/2000/svg" viewBox="0 0 174.66 124.13"><defs><style>.cls-1{fill:#e6e4f3;}.cls-2{fill:#f1f2fa;}.cls-3{fill:#edb722;stroke:#d8a421;stroke-width:0.15px;}.cls-21,.cls-3,.cls-4,.cls-5,.cls-6,.cls-7,.cls-8,.cls-9{stroke-miterlimit:10;}.cls-4{fill:#dd710f;stroke:#c96515;}.cls-4,.cls-5,.cls-6,.cls-7,.cls-9{stroke-width:0.5px;}.cls-5{fill:#28bdee;stroke:#1ea9ca;}.cls-6{fill:#71b963;stroke:#389737;}.cls-7{fill:#ffd62d;stroke:#e0bc23;}.cls-8{fill:#9192c7;stroke:#7d80af;stroke-width:0.75px;}.cls-17,.cls-9{fill:#e72662;}.cls-9{stroke:#d42665;}.cls-10{fill:#f2928b;}.cls-11{fill:#e58887;}.cls-12{fill:#99d6f0;}.cls-13{fill:#112439;}.cls-14{fill:#fff;}.cls-15{fill:#f2ae9f;}.cls-16{fill:#8b143a;}.cls-18{fill:#8e4d21;}.cls-19{fill:#e78f26;}.cls-20{fill:#e27829;}.cls-21{fill:none;stroke:#080d13;}.cls-22{fill:#080d13;}.cls-23{fill:#f4f4f4;}</style></defs><title>Tipoingdetalle_2</title><g id="Capa_2" data-name="Capa 2"><g id="Ingenieria_de_detalle" data-name="Ingenieria de detalle"><rect class="cls-1" y="3.97" width="106.56" height="106.56" rx="16.02"/><rect class="cls-2" x="4.94" y="8.91" width="96.68" height="96.68" rx="14.28"/><rect class="cls-3" x="57.71" y="70.98" width="3.58" height="0.58" rx="0.18" transform="translate(85.41 -17.89) rotate(56.06)"/><rect class="cls-3" x="57.76" y="70.99" width="3.58" height="0.58" rx="0.18" transform="translate(85.44 -17.93) rotate(56.06)"/><rect class="cls-3" x="58.21" y="70.61" width="3.58" height="0.58" rx="0.18" transform="translate(85.32 -18.46) rotate(56.06)"/><rect class="cls-3" x="57.16" y="71.39" width="3.58" height="0.58" rx="0.18" transform="translate(85.51 -17.24) rotate(56.06)"/><rect class="cls-3" x="58.81" y="70.2" width="3.58" height="0.58" rx="0.18" transform="translate(85.25 -19.15) rotate(56.06)"/><rect class="cls-3" x="59.36" y="69.79" width="3.58" height="0.58" rx="0.18" transform="translate(85.15 -19.78) rotate(56.06)"/><rect class="cls-4" x="57.7" y="74.03" width="12.65" height="4.53" rx="0.67" transform="translate(87.74 -20.44) rotate(53.78)"/><rect class="cls-3" x="57.16" y="45.94" width="3.58" height="0.58" rx="0.18" transform="matrix(0.56, 0.83, -0.83, 0.56, 64.39, -28.49)"/><rect class="cls-4" x="56.75" y="77.3" width="38.61" height="4.53" rx="1.43"/><rect class="cls-4" x="56.75" y="86.36" width="38.61" height="4.53" rx="1.43"/><rect class="cls-3" x="57.71" y="45.52" width="3.58" height="0.58" rx="0.18" transform="translate(64.29 -29.13) rotate(56.06)"/><rect class="cls-3" x="57.76" y="45.53" width="3.58" height="0.58" rx="0.18" transform="translate(64.31 -29.17) rotate(56.06)"/><rect class="cls-3" x="58.21" y="45.15" width="3.58" height="0.58" rx="0.18" transform="translate(64.2 -29.71) rotate(56.06)"/><rect class="cls-3" x="58.81" y="44.74" width="3.58" height="0.58" rx="0.18" transform="translate(64.12 -30.39) rotate(56.06)"/><rect class="cls-3" x="59.36" y="44.33" width="3.58" height="0.58" rx="0.18" transform="translate(64.03 -31.03) rotate(56.06)"/><rect class="cls-5" x="57.7" y="48.57" width="12.65" height="4.53" rx="0.67" transform="translate(67.2 -30.85) rotate(53.78)"/><rect class="cls-5" x="56.75" y="56.38" width="38.61" height="4.53" rx="1.43"/><rect class="cls-5" x="56.75" y="51.84" width="38.61" height="4.53" rx="1.43"/><rect class="cls-5" x="56.75" y="60.91" width="38.61" height="4.53" rx="1.43"/><rect class="cls-3" x="13.5" y="45.94" width="3.58" height="0.58" rx="0.18" transform="translate(45.1 7.73) rotate(56.06)"/><rect class="cls-3" x="14.05" y="45.52" width="3.58" height="0.58" rx="0.18" transform="translate(45 7.09) rotate(56.06)"/><rect class="cls-3" x="14.11" y="45.53" width="3.58" height="0.58" rx="0.18" transform="translate(45.03 7.05) rotate(56.06)"/><rect class="cls-3" x="14.55" y="45.15" width="3.58" height="0.58" rx="0.18" transform="translate(44.91 6.51) rotate(56.06)"/><rect class="cls-3" x="15.15" y="44.74" width="3.58" height="0.58" rx="0.18" transform="translate(44.84 5.83) rotate(56.06)"/><rect class="cls-3" x="15.7" y="44.33" width="3.58" height="0.58" rx="0.18" transform="translate(44.74 5.19) rotate(56.06)"/><rect class="cls-6" x="14.04" y="48.57" width="12.65" height="4.53" rx="0.67" transform="translate(49.34 4.37) rotate(53.78)"/><rect class="cls-6" x="13.09" y="56.38" width="38.61" height="4.53" rx="1.43"/><rect class="cls-6" x="13.09" y="51.84" width="38.61" height="4.53" rx="1.43"/><rect class="cls-6" x="13.09" y="60.91" width="38.61" height="4.53" rx="1.43"/><rect class="cls-3" x="57.16" y="18.99" width="3.58" height="0.58" rx="0.18" transform="matrix(0.56, 0.83, -0.83, 0.56, 42.03, -40.39)"/><rect class="cls-3" x="57.71" y="18.58" width="3.58" height="0.58" rx="0.18" transform="translate(41.93 -41.03) rotate(56.06)"/><rect class="cls-3" x="57.76" y="18.58" width="3.58" height="0.58" rx="0.18" transform="translate(41.96 -41.07) rotate(56.06)"/><rect class="cls-3" x="58.21" y="18.2" width="3.58" height="0.58" rx="0.18" transform="translate(41.84 -41.61) rotate(56.06)"/><rect class="cls-3" x="58.81" y="17.8" width="3.58" height="0.58" rx="0.18" transform="matrix(0.56, 0.83, -0.83, 0.56, 41.77, -42.29)"/><rect class="cls-3" x="59.36" y="17.39" width="3.58" height="0.58" rx="0.18" transform="translate(41.67 -42.93) rotate(56.06)"/><rect class="cls-7" x="57.7" y="21.63" width="12.65" height="4.53" rx="0.67" transform="translate(45.47 -41.88) rotate(53.78)"/><rect class="cls-7" x="56.75" y="29.43" width="38.61" height="4.53" rx="1.43"/><rect class="cls-7" x="56.75" y="24.9" width="38.61" height="4.53" rx="1.43"/><rect class="cls-7" x="56.75" y="33.96" width="38.61" height="4.53" rx="1.43"/><rect class="cls-3" x="13.5" y="18.99" width="3.58" height="0.58" rx="0.18" transform="translate(22.75 -4.17) rotate(56.06)"/><rect class="cls-3" x="14.05" y="18.58" width="3.58" height="0.58" rx="0.18" transform="translate(22.65 -4.81) rotate(56.06)"/><rect class="cls-3" x="14.11" y="18.58" width="3.58" height="0.58" rx="0.18" transform="translate(22.68 -4.85) rotate(56.06)"/><rect class="cls-3" x="14.55" y="18.2" width="3.58" height="0.58" rx="0.18" transform="translate(22.56 -5.39) rotate(56.06)"/><rect class="cls-3" x="15.15" y="17.8" width="3.58" height="0.58" rx="0.18" transform="matrix(0.56, 0.83, -0.83, 0.56, 22.49, -6.07)"/><rect class="cls-3" x="15.7" y="17.39" width="3.58" height="0.58" rx="0.18" transform="translate(22.39 -6.71) rotate(56.06)"/><rect class="cls-8" x="14.04" y="21.63" width="12.65" height="4.53" rx="0.67" transform="translate(27.61 -6.66) rotate(53.78)"/><rect class="cls-8" x="13.09" y="29.43" width="38.61" height="4.53" rx="1.43"/><rect class="cls-8" x="13.09" y="24.9" width="38.61" height="4.53" rx="1.43"/><rect class="cls-8" x="13.09" y="33.96" width="38.61" height="4.53" rx="1.43"/><rect class="cls-3" x="13.5" y="71.39" width="3.58" height="0.58" rx="0.18" transform="translate(66.22 18.98) rotate(56.06)"/><rect class="cls-3" x="14.05" y="70.98" width="3.58" height="0.58" rx="0.18" transform="translate(66.12 18.33) rotate(56.06)"/><rect class="cls-3" x="14.11" y="70.99" width="3.58" height="0.58" rx="0.18" transform="translate(66.15 18.29) rotate(56.06)"/><rect class="cls-3" x="14.55" y="70.61" width="3.58" height="0.58" rx="0.18" transform="translate(66.03 17.76) rotate(56.06)"/><rect class="cls-3" x="15.15" y="70.2" width="3.58" height="0.58" rx="0.18" transform="translate(65.96 17.07) rotate(56.06)"/><rect class="cls-3" x="15.7" y="69.79" width="3.58" height="0.58" rx="0.18" transform="translate(65.86 16.44) rotate(56.06)"/><rect class="cls-9" x="14.04" y="74.03" width="12.65" height="4.53" rx="0.67" transform="matrix(0.59, 0.81, -0.81, 0.59, 69.88, 14.78)"/><rect class="cls-4" x="56.75" y="81.83" width="38.61" height="4.53" rx="1.43"/><rect class="cls-9" x="13.09" y="81.83" width="38.61" height="4.53" rx="1.43"/><rect class="cls-9" x="13.09" y="77.3" width="38.61" height="4.53" rx="1.43"/><rect class="cls-9" x="13.09" y="86.36" width="38.61" height="4.53" rx="1.43"/><circle class="cls-10" cx="115.99" cy="38.98" r="5.38"/><circle class="cls-11" cx="115.99" cy="38.98" r="3.47"/><circle class="cls-10" cx="157.79" cy="38.98" r="5.38"/><path class="cls-12" d="M134.17,63.9h5.44a23.56,23.56,0,0,1,23.56,23.56v22.38a0,0,0,0,1,0,0H110.61a0,0,0,0,1,0,0V87.46A23.56,23.56,0,0,1,134.17,63.9Z"/><path class="cls-13" d="M126,64.93h.47a0,0,0,0,1,0,0v43.93a1.38,1.38,0,0,1-1.38,1.38H111.52a1.38,1.38,0,0,1-1.38-1.38V80.81A15.88,15.88,0,0,1,126,64.93Z"/><path class="cls-13" d="M148.67,64.93h13.47a1.38,1.38,0,0,1,1.38,1.38v43.93a0,0,0,0,1,0,0h-.35a15.88,15.88,0,0,1-15.88-15.88V66.31A1.38,1.38,0,0,1,148.67,64.93Z" transform="translate(310.82 175.17) rotate(-180)"/><path class="cls-14" d="M125.05,65.38h23.47a.47.47,0,0,1,.47.47v1.92a8.06,8.06,0,0,1-8.06,8.06h-8.28a8.06,8.06,0,0,1-8.06-8.06V65.85A.47.47,0,0,1,125.05,65.38Z"/><path class="cls-14" d="M149.36,75.12a7,7,0,0,1-2,1.9,5.61,5.61,0,0,1-1.86.65,1.25,1.25,0,0,1-1.38-1.31V65.22a1.27,1.27,0,0,1,1.22-1.32h3.12a1.22,1.22,0,0,1,1.16.89C150.91,69.21,150.75,73.16,149.36,75.12Z"/><path class="cls-14" d="M124.52,75.12a7.11,7.11,0,0,0,2,1.9,5.52,5.52,0,0,0,2.14.69,1,1,0,0,0,1.1-1V64.91a1,1,0,0,0-1-1h-3.47a1,1,0,0,0-1,.7C123,69.09,123.11,73.13,124.52,75.12Z"/><circle class="cls-11" cx="157.79" cy="38.98" r="3.47"/><rect class="cls-10" x="126.49" y="53.5" width="20.8" height="20.8" rx="8.39"/><rect class="cls-15" x="115.99" y="11.04" width="41.8" height="52.86" rx="19.01"/><rect class="cls-13" x="126.49" y="35.25" width="5.17" height="7.46" rx="2.59"/><rect class="cls-13" x="142.12" y="35.25" width="5.17" height="7.46" rx="2.59"/><path class="cls-10" d="M136.89,43h0a2.18,2.18,0,0,1,2.18,2.18v.56a0,0,0,0,1,0,0h-4.37a0,0,0,0,1,0,0v-.56A2.18,2.18,0,0,1,136.89,43Z"/><path class="cls-16" d="M136.89,47.82h0a8.27,8.27,0,0,1,8.27,8.27v1.43a.67.67,0,0,1-.67.67h-15.2a.67.67,0,0,1-.67-.67V56.09a8.27,8.27,0,0,1,8.27-8.27Z" transform="translate(273.78 106.02) rotate(180)"/><path class="cls-17" d="M135.26,53.26c-2-.13-2.71-1.64-3.92-1.24-.5.16-1.1.66-1.54,2.15a8,8,0,0,0,2.65,2.77,9,9,0,0,0,7.16.8,3.7,3.7,0,0,0,.7-2.93,2.9,2.9,0,0,0-1.3-2C137.85,52.21,137.12,53.39,135.26,53.26Z"/><path class="cls-14" d="M131.92,47.82h9.94a0,0,0,0,1,0,0v.76a1.17,1.17,0,0,1-1.17,1.17h-7.6a1.17,1.17,0,0,1-1.17-1.17v-.76a0,0,0,0,1,0,0Z"/><circle class="cls-13" cx="136.75" cy="82.29" r="1.11"/><circle class="cls-13" cx="136.75" cy="87.48" r="1.11"/><circle class="cls-13" cx="136.75" cy="92.68" r="1.11"/><circle class="cls-13" cx="136.75" cy="97.87" r="1.11"/><circle class="cls-13" cx="136.75" cy="103.07" r="1.11"/><rect class="cls-18" x="115.85" y="28.2" width="2.29" height="12.22" rx="1.15"/><rect class="cls-18" x="155.5" y="28.2" width="2.29" height="12.22" rx="1.15"/><circle class="cls-18" cx="115.36" cy="32.67" r="2.84"/><circle class="cls-18" cx="158.34" cy="32.67" r="2.84"/><rect class="cls-18" x="125.69" y="33.28" width="6.78" height="1.32" rx="0.66"/><rect class="cls-18" x="141.32" y="33.28" width="6.78" height="1.32" rx="0.66"/><path class="cls-19" d="M152.58,6.15V17.88a4.49,4.49,0,0,1-9,0V2.57a4.45,4.45,0,0,1,.27-1.46,22.06,22.06,0,0,0-2.69-.68,2.58,2.58,0,0,1,0,.4v15.3a4.48,4.48,0,1,1-9,0V.83a2.58,2.58,0,0,1,0-.4,22.91,22.91,0,0,0-2.77.7,4.37,4.37,0,0,1,.26,1.44V17.88a4.49,4.49,0,0,1-9,0V6.23a23.39,23.39,0,0,0-7.54,17.23v5.05a2.56,2.56,0,0,0,2.56,2.56h41.8a2.56,2.56,0,0,0,2.56-2.56V23.46A23.4,23.4,0,0,0,152.58,6.15Z"/><path class="cls-20" d="M143.61,17.88c0,2.48,2,5.84,4.49,5.84s4.48-3.36,4.48-5.84V6.15a23.41,23.41,0,0,0-8.7-5,4.45,4.45,0,0,0-.27,1.46Z"/><path class="cls-20" d="M125.31,23.72c2.48,0,4.49-3.36,4.49-5.84V2.57a4.37,4.37,0,0,0-.26-1.44,23.5,23.5,0,0,0-8.71,5.1V17.88C120.83,20.36,122.84,23.72,125.31,23.72Z"/><path class="cls-20" d="M132.27,16.13c0,2.48,2,6.22,4.48,6.22s4.48-3.74,4.48-6.22V.83a2.58,2.58,0,0,0,0-.4,23.14,23.14,0,0,0-8.88,0,2.58,2.58,0,0,0,0,.4Z"/><rect class="cls-20" x="110.26" y="28.67" width="52.91" height="2.4" rx="1.2"/><rect class="cls-21" x="138.74" y="35.25" width="13.34" height="8.54" rx="1.38"/><rect class="cls-21" x="121.7" y="35.25" width="13.25" height="8.54" rx="1.38"/><rect class="cls-22" x="134.95" y="35.51" width="3.79" height="1.55"/><rect class="cls-22" x="118.12" y="35.45" width="3.58" height="1.07"/><rect class="cls-22" x="152.08" y="35.45" width="3.42" height="1.07"/><path class="cls-15" d="M82.92,76H95.27a0,0,0,0,1,0,0V101.5a5.2,5.2,0,0,1-5.2,5.2h-2a5.2,5.2,0,0,1-5.2-5.2V76A0,0,0,0,1,82.92,76Z" transform="translate(123.66 -31.48) rotate(60)"/><path class="cls-13" d="M106.86,63.42h.74a5.88,5.88,0,0,1,5.88,5.88V98.58a0,0,0,0,1,0,0H101a0,0,0,0,1,0,0V69.3a5.88,5.88,0,0,1,5.88-5.88Z" transform="translate(123.76 -52.36) rotate(60)"/><rect class="cls-23" x="87.52" y="85.54" width="13.51" height="5.91" rx="0.88" transform="translate(123.78 -37.4) rotate(60)"/><path class="cls-15" d="M159.53,93.58h12.35a0,0,0,0,1,0,0v25.48a5.2,5.2,0,0,1-5.2,5.2h-2a5.2,5.2,0,0,1-5.2-5.2V93.58a0,0,0,0,1,0,0Z" transform="matrix(0.96, -0.28, 0.28, 0.96, -23.76, 50.4)"/><path class="cls-13" d="M159.62,71.25h.74a5.88,5.88,0,0,1,5.88,5.88v29.28a0,0,0,0,1,0,0H153.74a0,0,0,0,1,0,0V77.13A5.88,5.88,0,0,1,159.62,71.25Z" transform="translate(-18.4 48.01) rotate(-16.15)"/><rect class="cls-23" x="157.41" y="100.24" width="13.51" height="5.91" rx="0.88" transform="translate(-22.23 49.74) rotate(-16.15)"/></g></g></svg>