<svg xmlns="http://www.w3.org/2000/svg" viewBox="0 0 160.89 107.82"><defs><style>.cls-1{fill:#edb722;stroke:#d8a421;stroke-width:0.15px;}.cls-1,.cls-2,.cls-26{stroke-miterlimit:10;}.cls-2{fill:#ffd62d;stroke:#e0bc23;}.cls-2,.cls-26{stroke-width:0.5px;}.cls-3{fill:#ceb36a;}.cls-4{fill:#b59647;}.cls-5{fill:#f2928b;}.cls-6{fill:#e58887;}.cls-7{fill:#99d6f0;}.cls-8{fill:#112439;}.cls-9{fill:#fff;}.cls-10{fill:#f2ae9f;}.cls-11{fill:#8b143a;}.cls-12{fill:#e72662;}.cls-13{fill:#8e4d21;}.cls-14{fill:#e78f26;}.cls-15{fill:#e27829;}.cls-16{fill:#a55924;}.cls-17{fill:#9a5120;}.cls-18{fill:#cd773d;}.cls-19{fill:#080e15;}.cls-20{fill:#ec8e83;}.cls-21{fill:#e6e4f3;}.cls-22{fill:#f1f2fa;}.cls-23{fill:#50519e;}.cls-24{fill:#405d6d;}.cls-25{fill:#ef8c1e;}.cls-26{fill:none;stroke:#ef8c1e;}</style></defs><title>Tipopruebas_1</title><g id="Capa_2" data-name="Capa 2"><g id="Capa_6" data-name="Capa 6"><rect class="cls-1" x="96.1" y="70.83" width="4.92" height="0.8" rx="0.18" transform="translate(220.07 76.14) rotate(146.46)"/><rect class="cls-1" x="95.55" y="69.99" width="4.92" height="0.8" rx="0.18" transform="translate(218.59 74.91) rotate(146.46)"/><rect class="cls-1" x="95.07" y="69.18" width="4.92" height="0.8" rx="0.18" transform="translate(217.27 73.69) rotate(146.46)"/><path class="cls-2" d="M60.84,81.64c14.79,9.86,35.09-8.81,35.88-8.94a.52.52,0,0,0,.4-.26,1.2,1.2,0,0,0,.17-.63v-1c0-.49-.26-.89-.57-.89C94.2,72.16,71.54,91.65,57.48,76a27.87,27.87,0,0,1-4.1-6.11.47.47,0,0,0-.4.26,1.2,1.2,0,0,0-.16.63,4.65,4.65,0,0,0,0,1,4.83,4.83,0,0,0,1.7,3.3A23.65,23.65,0,0,0,60.84,81.64Z"/><rect class="cls-2" x="3.41" y="67.36" width="52.72" height="3.57" rx="0.67" transform="translate(59.54 138.3) rotate(-180)"/><rect class="cls-2" x="3.41" y="71.44" width="52.72" height="3.57" rx="0.67" transform="translate(59.54 146.45) rotate(-180)"/><rect class="cls-2" x="3.41" y="75.51" width="52.72" height="3.57" rx="0.67" transform="translate(59.54 154.59) rotate(-180)"/><rect class="cls-2" x="3.41" y="79.58" width="52.72" height="3.57" rx="0.67" transform="translate(59.54 162.74) rotate(180)"/><rect class="cls-2" x="3.41" y="83.65" width="52.72" height="3.57" rx="0.67" transform="translate(59.54 170.88) rotate(-180)"/><rect class="cls-2" x="3.41" y="87.73" width="52.72" height="3.57" rx="0.67" transform="translate(59.54 179.03) rotate(180)"/><rect class="cls-2" x="3.41" y="91.8" width="52.72" height="3.57" rx="0.67" transform="translate(59.54 187.17) rotate(-180)"/><rect class="cls-2" x="3.41" y="95.87" width="52.72" height="3.57" rx="0.67" transform="translate(59.54 195.31) rotate(-180)"/><rect class="cls-3" x="1.22" y="59.24" width="57.09" height="7.87" rx="1.47" transform="translate(59.54 126.36) rotate(-180)"/><rect class="cls-3" x="1.22" y="99.94" width="57.09" height="7.87" rx="1.47" transform="translate(59.54 207.76) rotate(-180)"/><circle class="cls-4" cx="50.43" cy="63.18" r="1.23"/><circle class="cls-4" cx="45.45" cy="63.18" r="1.23"/><circle class="cls-4" cx="40.16" cy="63.18" r="1.23"/><circle class="cls-4" cx="34.7" cy="63.18" r="1.23"/><circle class="cls-4" cx="24.84" cy="63.18" r="1.23"/><circle class="cls-4" cx="19.26" cy="63.18" r="1.23"/><circle class="cls-4" cx="14.1" cy="63.18" r="1.23"/><circle class="cls-4" cx="9.11" cy="63.18" r="1.23"/><circle class="cls-4" cx="50.43" cy="103.88" r="1.23"/><circle class="cls-4" cx="45.45" cy="103.88" r="1.23"/><circle class="cls-4" cx="40.16" cy="103.88" r="1.23"/><circle class="cls-4" cx="34.7" cy="103.88" r="1.23"/><circle class="cls-4" cx="24.84" cy="103.88" r="1.23"/><circle class="cls-4" cx="19.26" cy="103.88" r="1.23"/><circle class="cls-4" cx="14.1" cy="103.88" r="1.23"/><circle class="cls-4" cx="9.11" cy="103.88" r="1.23"/><circle class="cls-5" cx="2.94" cy="19.63" r="2.71"/><circle class="cls-6" cx="2.94" cy="19.63" r="1.75"/><circle class="cls-5" cx="23.99" cy="19.63" r="2.71"/><path class="cls-7" d="M13.31,32.18h.33A13.07,13.07,0,0,1,26.7,45.25V55.31a0,0,0,0,1,0,0H.24a0,0,0,0,1,0,0V45.25A13.07,13.07,0,0,1,13.31,32.18Z"/><path class="cls-8" d="M8.13,32.7h.1a0,0,0,0,1,0,0V54.13a1.38,1.38,0,0,1-1.38,1.38H1.38A1.38,1.38,0,0,1,0,54.13V40.83A8.13,8.13,0,0,1,8.13,32.7Z"/><path class="cls-8" d="M20.09,32.7H25.5a1.38,1.38,0,0,1,1.38,1.38V55.51a0,0,0,0,1,0,0h-.1a8.07,8.07,0,0,1-8.07-8.07V34.08a1.38,1.38,0,0,1,1.38-1.38Z" transform="translate(45.59 88.21) rotate(-180)"/><path class="cls-9" d="M7.56,32.92H19.28a.29.29,0,0,1,.29.29v.06a4.92,4.92,0,0,1-4.92,4.92H12.19a4.92,4.92,0,0,1-4.92-4.92v-.06a.29.29,0,0,1,.29-.29Z"/><path class="cls-9" d="M19.75,37.83a3.63,3.63,0,0,1-1,1,2.78,2.78,0,0,1-.93.32.63.63,0,0,1-.7-.66V32.84a.64.64,0,0,1,.62-.66h1.57a.62.62,0,0,1,.58.44C20.53,34.85,20.45,36.84,19.75,37.83Z"/><path class="cls-9" d="M7.24,37.83a3.54,3.54,0,0,0,1,1,2.76,2.76,0,0,0,1.08.35.51.51,0,0,0,.56-.51V32.69a.51.51,0,0,0-.51-.51H7.64a.5.5,0,0,0-.48.35C6.46,34.79,6.53,36.82,7.24,37.83Z"/><circle class="cls-6" cx="23.99" cy="19.63" r="1.75"/><rect class="cls-5" x="8.23" y="26.94" width="10.47" height="10.47" rx="5.17"/><rect class="cls-10" x="2.94" y="5.56" width="21.05" height="26.62" rx="10.4"/><rect class="cls-8" x="8.23" y="17.75" width="2.6" height="3.76" rx="1.29"/><rect class="cls-8" x="16.1" y="17.75" width="2.6" height="3.76" rx="1.29"/><path class="cls-5" d="M13.46,21.65h0a1.09,1.09,0,0,1,1.09,1.09V23a0,0,0,0,1,0,0h-2.2a0,0,0,0,1,0,0v-.29A1.09,1.09,0,0,1,13.46,21.65Z"/><path class="cls-11" d="M13.42,24.08h.1a4.11,4.11,0,0,1,4.11,4.11V29a.33.33,0,0,1-.33.33H9.64A.33.33,0,0,1,9.31,29V28.2A4.11,4.11,0,0,1,13.42,24.08Z" transform="translate(26.94 53.39) rotate(180)"/><path class="cls-12" d="M12.65,26.82c-1-.07-1.37-.82-2-.63-.26.09-.56.34-.78,1.09a4.1,4.1,0,0,0,1.33,1.39,4.44,4.44,0,0,0,3.61.4,1.84,1.84,0,0,0,.35-1.47,1.47,1.47,0,0,0-.66-1C14,26.29,13.58,26.89,12.65,26.82Z"/><path class="cls-9" d="M11,24.08h5a0,0,0,0,1,0,0v0a1,1,0,0,1-1,1H11.93a1,1,0,0,1-1-1v0A0,0,0,0,1,11,24.08Z"/><circle class="cls-8" cx="13.4" cy="41.44" r="0.56"/><circle class="cls-8" cx="13.4" cy="44.05" r="0.56"/><circle class="cls-8" cx="13.4" cy="46.67" r="0.56"/><circle class="cls-8" cx="13.4" cy="49.28" r="0.56"/><circle class="cls-8" cx="13.4" cy="51.9" r="0.56"/><rect class="cls-13" x="2.87" y="14.2" width="1.15" height="6.15" rx="0.57"/><rect class="cls-13" x="22.84" y="14.2" width="1.15" height="6.15" rx="0.57"/><circle class="cls-13" cx="2.63" cy="16.45" r="1.43"/><circle class="cls-13" cx="24.27" cy="16.45" r="1.43"/><rect class="cls-13" x="7.83" y="16.76" width="3.41" height="0.67" rx="0.33"/><rect class="cls-13" x="15.7" y="16.76" width="3.41" height="0.67" rx="0.33"/><path class="cls-14" d="M21.37,3.1V9a2.26,2.26,0,0,1-4.52,0V1.3A2.26,2.26,0,0,1,17,.56,12.15,12.15,0,0,0,15.64.21c0,.07,0,.14,0,.21v7.7a2.26,2.26,0,0,1-4.52,0V.42a1.49,1.49,0,0,1,0-.21A12.88,12.88,0,0,0,9.77.57a2.2,2.2,0,0,1,.13.73V9A2.26,2.26,0,0,1,5.38,9V3.14a11.79,11.79,0,0,0-3.8,8.67v2.55a1.29,1.29,0,0,0,1.29,1.29H23.92a1.29,1.29,0,0,0,1.29-1.29V11.81A11.77,11.77,0,0,0,21.37,3.1Z"/><path class="cls-15" d="M16.85,9c0,1.25,1,2.95,2.26,2.95s2.26-1.7,2.26-2.95V3.1A11.81,11.81,0,0,0,17,.56a2.26,2.26,0,0,0-.14.74Z"/><path class="cls-15" d="M7.64,12C8.89,12,9.9,10.25,9.9,9V1.3A2.2,2.2,0,0,0,9.77.57,11.84,11.84,0,0,0,5.38,3.14V9C5.38,10.25,6.39,12,7.64,12Z"/><path class="cls-15" d="M11.14,8.12c0,1.25,1,3.13,2.26,3.13s2.26-1.88,2.26-3.13V.42c0-.07,0-.14,0-.21A12.78,12.78,0,0,0,13.4,0a12.61,12.61,0,0,0-2.24.21,1.49,1.49,0,0,0,0,.21Z"/><rect class="cls-15" x="0.06" y="14.44" width="26.65" height="1.21" rx="0.6"/><circle class="cls-16" cx="36.41" cy="19.63" r="2.71"/><circle class="cls-17" cx="36.41" cy="19.63" r="1.75"/><circle class="cls-16" cx="57.46" cy="19.63" r="2.71"/><path class="cls-7" d="M46.77,32.18h.33A13.07,13.07,0,0,1,60.16,45.25V55.31a0,0,0,0,1,0,0H33.7a0,0,0,0,1,0,0V45.25A13.07,13.07,0,0,1,46.77,32.18Z"/><path class="cls-8" d="M41.59,32.7h.1a0,0,0,0,1,0,0V54.13a1.38,1.38,0,0,1-1.38,1.38H34.84a1.38,1.38,0,0,1-1.38-1.38V40.83a8.13,8.13,0,0,1,8.13-8.13Z"/><path class="cls-8" d="M53.55,32.7H59a1.38,1.38,0,0,1,1.38,1.38V55.51a0,0,0,0,1,0,0h-.1a8.07,8.07,0,0,1-8.07-8.07V34.08A1.38,1.38,0,0,1,53.55,32.7Z" transform="translate(112.51 88.21) rotate(-180)"/><path class="cls-9" d="M41,32.92H52.74a.29.29,0,0,1,.29.29v.06a4.92,4.92,0,0,1-4.92,4.92H45.65a4.92,4.92,0,0,1-4.92-4.92v-.06A.29.29,0,0,1,41,32.92Z"/><path class="cls-9" d="M53.21,37.83a3.67,3.67,0,0,1-1,1,2.83,2.83,0,0,1-.94.32.63.63,0,0,1-.7-.66V32.84a.64.64,0,0,1,.62-.66h1.57a.62.62,0,0,1,.58.44C54,34.85,53.91,36.84,53.21,37.83Z"/><path class="cls-9" d="M40.7,37.83a3.5,3.5,0,0,0,1,1,2.76,2.76,0,0,0,1.08.35.51.51,0,0,0,.55-.51V32.69a.51.51,0,0,0-.51-.51H41.11a.5.5,0,0,0-.49.35C39.92,34.79,40,36.82,40.7,37.83Z"/><circle class="cls-17" cx="57.46" cy="19.63" r="1.75"/><rect class="cls-16" x="41.69" y="26.94" width="10.47" height="10.47" rx="5.17"/><rect class="cls-18" x="36.41" y="5.56" width="21.05" height="26.62" rx="10.4"/><rect class="cls-19" x="41.69" y="17.75" width="2.6" height="3.76" rx="1.29"/><rect class="cls-19" x="49.56" y="17.75" width="2.6" height="3.76" rx="1.29"/><path class="cls-20" d="M46.92,21.65h0A1.09,1.09,0,0,1,48,22.73V23a0,0,0,0,1,0,0h-2.2a0,0,0,0,1,0,0v-.29A1.09,1.09,0,0,1,46.92,21.65Z"/><path class="cls-11" d="M46.88,24.08H47A4.11,4.11,0,0,1,51.1,28.2V29a.33.33,0,0,1-.33.33H43.1a.33.33,0,0,1-.33-.33V28.2a4.11,4.11,0,0,1,4.11-4.11Z" transform="translate(93.86 53.39) rotate(180)"/><path class="cls-12" d="M46.11,26.82c-1-.07-1.37-.82-2-.63-.26.09-.56.34-.78,1.09a4.05,4.05,0,0,0,1.34,1.39,4.42,4.42,0,0,0,3.6.4,1.84,1.84,0,0,0,.35-1.47,1.45,1.45,0,0,0-.65-1C47.41,26.29,47,26.89,46.11,26.82Z"/><path class="cls-9" d="M44.43,24.08h5a0,0,0,0,1,0,0v0a1,1,0,0,1-1,1H45.39a1,1,0,0,1-1-1v0A0,0,0,0,1,44.43,24.08Z"/><circle class="cls-8" cx="46.86" cy="41.44" r="0.56"/><circle class="cls-8" cx="46.86" cy="44.05" r="0.56"/><circle class="cls-8" cx="46.86" cy="46.67" r="0.56"/><circle class="cls-8" cx="46.86" cy="49.28" r="0.56"/><circle class="cls-8" cx="46.86" cy="51.9" r="0.56"/><rect class="cls-8" x="36.33" y="14.2" width="1.15" height="6.15" rx="0.57"/><rect class="cls-8" x="56.3" y="14.2" width="1.15" height="6.15" rx="0.57"/><circle class="cls-8" cx="36.09" cy="16.45" r="1.43"/><circle class="cls-8" cx="38.15" cy="15.02" r="1.43"/><circle class="cls-8" cx="40.73" cy="14.93" r="1.43"/><circle class="cls-8" cx="43.18" cy="14.93" r="1.43"/><circle class="cls-8" cx="45.73" cy="14.93" r="1.43"/><circle class="cls-8" cx="48.31" cy="15.02" r="1.43"/><circle class="cls-8" cx="51" cy="14.93" r="1.43"/><circle class="cls-8" cx="53.57" cy="15.02" r="1.43"/><circle class="cls-8" cx="56.18" cy="15.02" r="1.43"/><circle class="cls-8" cx="57.73" cy="16.45" r="1.43"/><rect class="cls-8" x="41.29" y="16.76" width="3.41" height="0.67" rx="0.33"/><rect class="cls-8" x="49.16" y="16.76" width="3.41" height="0.67" rx="0.33"/><path class="cls-14" d="M54.83,3.1V9a2.26,2.26,0,0,1-4.52,0V1.3a2.26,2.26,0,0,1,.14-.74A12.15,12.15,0,0,0,49.1.21c0,.07,0,.14,0,.21v7.7a2.26,2.26,0,1,1-4.52,0V.42c0-.07,0-.14,0-.21a12.88,12.88,0,0,0-1.39.36,2.2,2.2,0,0,1,.13.73V9a2.26,2.26,0,0,1-4.52,0V3.14a11.78,11.78,0,0,0-3.79,8.67v2.55a1.28,1.28,0,0,0,1.28,1.29H57.38a1.29,1.29,0,0,0,1.29-1.29V11.81A11.77,11.77,0,0,0,54.83,3.1Z"/><path class="cls-15" d="M50.31,9c0,1.25,1,2.95,2.26,2.95s2.26-1.7,2.26-2.95V3.1A11.65,11.65,0,0,0,50.45.56a2.26,2.26,0,0,0-.14.74Z"/><path class="cls-15" d="M41.1,12c1.25,0,2.26-1.7,2.26-2.95V1.3a2.2,2.2,0,0,0-.13-.73,11.84,11.84,0,0,0-4.39,2.57V9C38.84,10.25,39.85,12,41.1,12Z"/><path class="cls-15" d="M44.6,8.12c0,1.25,1,3.13,2.26,3.13s2.26-1.88,2.26-3.13V.42c0-.07,0-.14,0-.21a12.05,12.05,0,0,0-4.48,0c0,.07,0,.14,0,.21Z"/><rect class="cls-15" x="33.52" y="14.44" width="26.65" height="1.21" rx="0.6"/><path class="cls-8" d="M51.86,11.4h5.75a0,0,0,0,1,0,0v.05a4.34,4.34,0,0,1-4.34,4.34H47.53a0,0,0,0,1,0,0v-.05A4.34,4.34,0,0,1,51.86,11.4Z"/><rect class="cls-21" x="68.42" y="5.78" width="92.47" height="92.47" rx="16.02"/><rect class="cls-22" x="72.06" y="10.07" width="84.54" height="82.69" rx="14.28"/><path class="cls-23" d="M84.5,10.07h60.31A11.79,11.79,0,0,1,156.6,21.86V23a0,0,0,0,1,0,0H72.71a0,0,0,0,1,0,0V21.86A11.79,11.79,0,0,1,84.5,10.07Z"/><path class="cls-24" d="M84.95,60.43H90.7A2.59,2.59,0,0,1,93.29,63v28.3a0,0,0,0,1,0,0H82.36a0,0,0,0,1,0,0V63A2.59,2.59,0,0,1,84.95,60.43Z"/><path class="cls-24" d="M124.55,60.43h5.75A2.59,2.59,0,0,1,132.89,63v28.3a0,0,0,0,1,0,0H122a0,0,0,0,1,0,0V63A2.59,2.59,0,0,1,124.55,60.43Z"/><path class="cls-24" d="M98.15,69.15h5.75a2.59,2.59,0,0,1,2.59,2.59V91.32a0,0,0,0,1,0,0H95.56a0,0,0,0,1,0,0V71.74A2.59,2.59,0,0,1,98.15,69.15Z"/><path class="cls-24" d="M111.14,53.11h5.75a2.59,2.59,0,0,1,2.59,2.59V91.32a0,0,0,0,1,0,0H108.55a0,0,0,0,1,0,0V55.7A2.59,2.59,0,0,1,111.14,53.11Z"/><path class="cls-24" d="M138.61,53.11h5.75a2.59,2.59,0,0,1,2.59,2.59V91.32a0,0,0,0,1,0,0H136a0,0,0,0,1,0,0V55.7A2.59,2.59,0,0,1,138.61,53.11Z"/><circle class="cls-9" cx="146.77" cy="17.54" r="1.97"/><circle class="cls-9" cx="141.63" cy="17.54" r="1.97"/><circle class="cls-9" cx="136.8" cy="17.54" r="1.97"/><circle class="cls-25" cx="101.02" cy="61.27" r="1.41"/><circle class="cls-25" cx="114.01" cy="44.95" r="1.41"/><circle class="cls-25" cx="141.48" cy="44.95" r="1.41"/><circle class="cls-25" cx="127.15" cy="52.22" r="1.41"/><circle class="cls-25" cx="87.82" cy="52.22" r="1.41"/><line class="cls-26" x1="87.82" y1="52.22" x2="101.02" y2="61.27"/><line class="cls-26" x1="114.01" y1="44.95" x2="127.15" y2="52.22"/><line class="cls-26" x1="101.02" y1="61.27" x2="114.01" y2="44.95"/><line class="cls-26" x1="127.15" y1="52.22" x2="141.48" y2="44.95"/><path class="cls-25" d="M79.16,36.79H147.5a.23.23,0,0,0,0-.45H79.16a.23.23,0,0,0,0,.45Z"/><path class="cls-25" d="M79.16,38H147.5a.23.23,0,0,0,0-.45H79.16a.23.23,0,0,0,0,.45Z"/><path class="cls-25" d="M79.11,39.15h68.34a.23.23,0,0,0,0-.45H79.11a.23.23,0,0,0,0,.45Z"/><path class="cls-25" d="M79.11,40.33h68.34a.23.23,0,0,0,0-.45H79.11a.23.23,0,0,0,0,.45Z"/><path class="cls-25" d="M79.16,28.88H147.5a.23.23,0,0,0,0-.45H79.16a.23.23,0,0,0,0,.45Z"/><path class="cls-25" d="M79.16,30.06H147.5a.23.23,0,0,0,0-.45H79.16a.23.23,0,0,0,0,.45Z"/><path class="cls-25" d="M79.11,31.24h68.34a.23.23,0,0,0,0-.45H79.11a.23.23,0,0,0,0,.45Z"/><path class="cls-25" d="M79.11,32.42h68.34a.23.23,0,0,0,0-.45H79.11a.23.23,0,0,0,0,.45Z"/><circle class="cls-17" cx="40.43" cy="21.68" r="0.3"/><circle class="cls-17" cx="50.87" cy="29" r="0.3"/><circle class="cls-20" cx="53.64" cy="23.55" r="1.21"/><circle class="cls-20" cx="40.13" cy="23.55" r="1.21"/><circle class="cls-20" cx="20.32" cy="23.55" r="1.21"/><circle class="cls-17" cx="20.33" cy="18.36" r="0.27"/></g></g></svg>