<svg xmlns="http://www.w3.org/2000/svg" viewBox="0 0 136.88 110.73"><defs><style>.cls-1{fill:#f2928b;}.cls-2{fill:#e58887;}.cls-3{fill:#8b143a;}.cls-4{fill:#fff;}.cls-5{fill:#c6c5dd;}.cls-6{fill:#405d6d;}.cls-7{fill:#f2ae9f;}.cls-8{fill:#112439;}.cls-9{fill:#e72662;}.cls-10{fill:#324b56;}.cls-11{fill:#f4f4f4;}.cls-12{fill:#b66229;}.cls-13{fill:#fcd73f;}.cls-14{fill:#71b963;}.cls-15{fill:#d9d8ee;}.cls-16{fill:#e6e4f3;}.cls-17{fill:#dadaef;}.cls-18{fill:#f1f2fa;}.cls-19{fill:#99d6f0;}.cls-20{fill:#379736;}.cls-21{fill:#8e4d21;}.cls-22{fill:#e78f26;}.cls-23{fill:#e27829;}</style></defs><title>Tipocomisionamiento</title><g id="Capa_2" data-name="Capa 2"><g id="Capa_8" data-name="Capa 8"><circle class="cls-1" cx="109.62" cy="61.85" r="2.16"/><circle class="cls-2" cx="109.62" cy="61.85" r="1.4"/><circle class="cls-1" cx="126.43" cy="61.85" r="2.16"/><path class="cls-3" d="M117.6,72.14h.86A10.14,10.14,0,0,1,128.6,82.28v6.48a1.86,1.86,0,0,1-1.86,1.86H109.32a1.86,1.86,0,0,1-1.86-1.86V82.28A10.14,10.14,0,0,1,117.6,72.14Z"/><rect class="cls-4" x="116.21" y="76.76" width="3.77" height="13.85"/><path class="cls-4" d="M116.7,76.69l-2.88,1a.63.63,0,0,1-.83-.66l.56-4.28.34-.13,4.27-.29Z"/><path class="cls-4" d="M119.36,76.69l2.88,1a.63.63,0,0,0,.83-.66l-.55-4.28-.35-.13-4.27-.29Z"/><path class="cls-4" d="M115.19,72.58h5.64a.85.85,0,0,1,.85.85v.39a3.52,3.52,0,0,1-3.52,3.52h-.3a3.52,3.52,0,0,1-3.52-3.52v-.39A.85.85,0,0,1,115.19,72.58Z"/><circle class="cls-2" cx="126.43" cy="61.85" r="1.4"/><path class="cls-5" d="M118.23,78.29h-.36a1.09,1.09,0,0,1-1.07-.91l-.26-1.54h3l-.2,1.5A1.09,1.09,0,0,1,118.23,78.29Z"/><rect class="cls-1" x="113.85" y="67.69" width="8.36" height="8.36" rx="4.01"/><circle class="cls-6" cx="110.09" cy="56.7" r="2.63"/><circle class="cls-6" cx="126.27" cy="56.7" r="2.63"/><rect class="cls-7" x="109.62" y="50.61" width="16.81" height="21.26" rx="8.06"/><rect class="cls-8" x="113.66" y="59.84" width="2.08" height="2.59" rx="1"/><rect class="cls-8" x="120.31" y="59.84" width="2.08" height="2.59" rx="1"/><path class="cls-1" d="M118.11,62.43h.09a1,1,0,0,1,1,1v.82a0,0,0,0,1,0,0h-2.15a0,0,0,0,1,0,0v-.82A1,1,0,0,1,118.11,62.43Z" transform="translate(236.31 126.7) rotate(180)"/><path class="cls-3" d="M117.89,65.79h.27A3.19,3.19,0,0,1,121.35,69v.72a.26.26,0,0,1-.26.26H115a.26.26,0,0,1-.26-.26V69a3.19,3.19,0,0,1,3.19-3.19Z" transform="translate(236.06 135.76) rotate(180)"/><path class="cls-9" d="M117.37,68c-.81,0-1.09-.66-1.57-.5-.21.07-.45.27-.62.87a3.32,3.32,0,0,0,1.06,1.11,3.62,3.62,0,0,0,2.88.32,1.47,1.47,0,0,0,.28-1.18,1.14,1.14,0,0,0-.52-.81C118.41,67.58,118.12,68.05,117.37,68Z"/><path class="cls-4" d="M116,65.79h4a0,0,0,0,1,0,0v0a.75.75,0,0,1-.75.75h-2.51a.75.75,0,0,1-.75-.75v0A0,0,0,0,1,116,65.79Z"/><circle class="cls-1" cx="112.38" cy="65.1" r="1.09"/><circle class="cls-1" cx="123.64" cy="65.1" r="1.09"/><rect class="cls-6" x="119.99" y="58.61" width="2.73" height="0.53" rx="0.26"/><rect class="cls-6" x="113.34" y="58.61" width="2.73" height="0.53" rx="0.26"/><path class="cls-6" d="M118.12,70.27h0a.51.51,0,0,1,.51.51v1.09a0,0,0,0,1,0,0h-1.06a0,0,0,0,1,0,0V70.78A.51.51,0,0,1,118.12,70.27Z"/><rect class="cls-5" x="117.33" y="77.84" width="1.45" height="11.02" rx="0.7"/><path class="cls-6" d="M118.15,64.27h2.58a1.2,1.2,0,0,1,1.2,1.2v.05a0,0,0,0,1,0,0h-2.58a1.2,1.2,0,0,1-1.2-1.2v-.05A0,0,0,0,1,118.15,64.27Z"/><path class="cls-6" d="M115.58,64.27h2.58a0,0,0,0,1,0,0v.05a1.2,1.2,0,0,1-1.2,1.2h-2.58a0,0,0,0,1,0,0v-.05A1.2,1.2,0,0,1,115.58,64.27Z" transform="translate(232.55 129.8) rotate(180)"/><circle class="cls-6" cx="112.87" cy="52.16" r="3.65"/><path class="cls-6" d="M123.72,55.59H118a3.53,3.53,0,0,1-3.54-3.54V52a3.65,3.65,0,0,1,3.64-3.67h10.23V51A4.58,4.58,0,0,1,123.72,55.59Z"/><rect class="cls-6" x="108.83" y="58.18" width="0.79" height="4.77" rx="0.38"/><rect class="cls-6" x="126.43" y="58.18" width="0.79" height="4.77" rx="0.38"/><path class="cls-10" d="M109.52,93.64h8a0,0,0,0,1,0,0v13.24a3.85,3.85,0,0,1-3.85,3.85h-.33a3.85,3.85,0,0,1-3.85-3.85V93.64A0,0,0,0,1,109.52,93.64Z"/><path class="cls-10" d="M118.58,93.64h8a0,0,0,0,1,0,0v13.24a3.85,3.85,0,0,1-3.85,3.85h-.33a3.85,3.85,0,0,1-3.85-3.85V93.64A0,0,0,0,1,118.58,93.64Z"/><path class="cls-7" d="M101.39,78.93h3.9a0,0,0,0,1,0,0v7.82a1.87,1.87,0,0,1-1.87,1.87h-.16a1.87,1.87,0,0,1-1.87-1.87V78.93a0,0,0,0,1,0,0Z" transform="translate(98.14 -49.15) rotate(48.73)"/><path class="cls-3" d="M108.24,73.89h.16a1.89,1.89,0,0,1,1.89,1.89V85a0,0,0,0,1,0,0h-3.95a0,0,0,0,1,0,0V75.79A1.89,1.89,0,0,1,108.24,73.89Z" transform="translate(96.59 -54.37) rotate(48.73)"/><rect class="cls-11" x="102.64" y="81.64" width="4.27" height="1.87" rx="0.88" transform="translate(97.72 -50.64) rotate(48.73)"/><path class="cls-7" d="M132.64,78.93h.16a1.87,1.87,0,0,1,1.87,1.87v7.82a0,0,0,0,1,0,0h-3.9a0,0,0,0,1,0,0V80.8A1.87,1.87,0,0,1,132.64,78.93Z" transform="translate(283.23 39.29) rotate(131.27)"/><path class="cls-3" d="M125.77,73.89h3.95a0,0,0,0,1,0,0v9.22A1.89,1.89,0,0,1,127.82,85h-.16a1.89,1.89,0,0,1-1.89-1.89V73.89A0,0,0,0,1,125.77,73.89Z" transform="translate(271.71 35.85) rotate(131.27)"/><rect class="cls-11" x="129.16" y="81.64" width="4.27" height="1.87" rx="0.88" transform="translate(279.95 38.36) rotate(131.27)"/><rect class="cls-10" x="107.34" y="90.43" width="21.14" height="3.51" rx="1.69"/><rect class="cls-12" x="116.09" y="90.43" width="3.77" height="0.89"/><rect class="cls-13" x="117.52" y="90.43" width="0.89" height="0.89" rx="0.22"/><path class="cls-14" d="M44.64,29.54a81.71,81.71,0,0,0,24,2.34c7.08-.45,13.33-3.06,20-5.23.46-.15.27-.87-.19-.72-6.63,2.15-12.74,4.74-19.8,5.2a80.69,80.69,0,0,1-23.78-2.31c-.47-.11-.67.61-.2.72Z"/><rect class="cls-15" x="34" y="7.68" width="3.33" height="9.46" rx="0.92"/><circle class="cls-15" cx="35.66" cy="8.77" r="2.41"/><path class="cls-16" d="M50.25,109.28H21.07a8,8,0,0,1-7.92-9.47L25.82,29.26a8.05,8.05,0,0,1,7.92-6.62h3.09a8,8,0,0,1,7.91,6.54L58.16,99.73A8,8,0,0,1,50.25,109.28Z"/><path class="cls-17" d="M51.16,100.25h-31a4.35,4.35,0,0,1-4.29-5.13L27.61,29.77a4.35,4.35,0,0,1,4.29-3.59h6.83A4.35,4.35,0,0,1,43,29.72L55.45,95.07A4.37,4.37,0,0,1,51.16,100.25Z"/><rect class="cls-8" x="37" y="27.63" width="0.84" height="30.63" rx="0.23" transform="translate(-19.4 39.04) rotate(-45)"/><rect class="cls-8" x="32.5" y="27.59" width="0.84" height="30.68" rx="0.23" transform="translate(25.84 96.57) rotate(-135)"/><rect class="cls-8" x="38.72" y="53.66" width="1.36" height="49.72" rx="0.33" transform="translate(-43.98 50.86) rotate(-45)"/><rect class="cls-8" x="31.42" y="53.61" width="1.36" height="49.8" rx="0.33" transform="translate(-0.72 156.72) rotate(-135)"/><rect class="cls-5" y="95.44" width="72.34" height="13.85" rx="3.82"/><rect class="cls-5" x="23.41" y="15.72" width="24.38" height="13.85" rx="3.08"/><path class="cls-8" d="M31.66,1.87a6.21,6.21,0,0,0-.21,10.58c.4.26.78-.39.37-.65A5.46,5.46,0,0,1,32,2.52c.41-.25,0-.9-.37-.65Z"/><path class="cls-8" d="M28,.1a9.06,9.06,0,0,0,.82,14.09c.39.28.76-.37.37-.65A8.32,8.32,0,0,1,28.57.63C28.93.31,28.4-.22,28,.1Z"/><path class="cls-8" d="M39.26,2.83a5.47,5.47,0,0,1,.21,9.28c-.41.26,0,.91.37.64a6.21,6.21,0,0,0-.2-10.57c-.41-.26-.79.39-.38.65Z"/><path class="cls-8" d="M42.93.68a8.32,8.32,0,0,1-.66,12.91c-.39.27,0,.92.38.64A9.05,9.05,0,0,0,43.46.15c-.36-.32-.89.2-.53.53Z"/><path class="cls-15" d="M104.21,11.11H97.28A6.12,6.12,0,0,0,92,14.17l-3.47,6a6.14,6.14,0,0,0,0,6.12l3.47,6a6.1,6.1,0,0,0,5.3,3.06h6.93a6.1,6.1,0,0,0,5.3-3.06l3.47-6a6.14,6.14,0,0,0,0-6.12l-3.47-6A6.12,6.12,0,0,0,104.21,11.11Z"/><path class="cls-16" d="M104.85,12.22H96.64a3.91,3.91,0,0,0-3.38,1.95l-4.11,7.11a4,4,0,0,0,0,3.91l4.11,7.1a3.91,3.91,0,0,0,3.38,2h8.21a3.89,3.89,0,0,0,3.38-2l4.11-7.1a3.9,3.9,0,0,0,0-3.91l-4.11-7.11A3.88,3.88,0,0,0,104.85,12.22Z"/><path class="cls-18" d="M104.31,13.16H97.19a3.91,3.91,0,0,0-3.39,1.95l-3.56,6.17a3.9,3.9,0,0,0,0,3.91l3.56,6.16a3.92,3.92,0,0,0,3.39,2h7.12a3.91,3.91,0,0,0,3.38-2l3.56-6.16a3.9,3.9,0,0,0,0-3.91l-3.56-6.17A3.91,3.91,0,0,0,104.31,13.16Z"/><rect class="cls-14" x="101.32" y="16.36" width="3.31" height="14.67" rx="1.36" transform="translate(159.03 113.27) rotate(-135)"/><rect class="cls-14" x="95.65" y="22.64" width="3.2" height="7.64" rx="1.32" transform="translate(16.16 86.31) rotate(-51.65)"/><path class="cls-7" d="M70.79,80.62h1.4a1.2,1.2,0,0,1,1.2,1.2V90a0,0,0,0,1,0,0H69.59a0,0,0,0,1,0,0V81.81A1.2,1.2,0,0,1,70.79,80.62Z" transform="translate(94.27 194.28) rotate(-151.85)"/><path class="cls-8" d="M72.57,74.26H76.4a0,0,0,0,1,0,0v9.58a1.21,1.21,0,0,1-1.21,1.21H73.78a1.21,1.21,0,0,1-1.21-1.21V74.26a0,0,0,0,1,0,0Z" transform="translate(102.58 185.03) rotate(-151.85)"/><rect class="cls-11" x="70.24" y="82.8" width="4.15" height="1.81" rx="0.57" transform="translate(96.59 191.63) rotate(-151.85)"/><path class="cls-7" d="M93.64,80.67h3.79a0,0,0,0,1,0,0v8.22a1.2,1.2,0,0,1-1.2,1.2h-1.4a1.2,1.2,0,0,1-1.2-1.2V80.67A0,0,0,0,1,93.64,80.67Z" transform="translate(-28.98 55.17) rotate(-28.15)"/><path class="cls-8" d="M91.84,74.32h1.41a1.21,1.21,0,0,1,1.21,1.21v9.58a0,0,0,0,1,0,0H90.62a0,0,0,0,1,0,0V75.53A1.21,1.21,0,0,1,91.84,74.32Z" transform="translate(-26.66 53.08) rotate(-28.15)"/><rect class="cls-11" x="92.64" y="82.85" width="4.15" height="1.81" rx="0.57" transform="translate(-28.31 54.59) rotate(-28.15)"/><rect class="cls-8" x="73.26" y="89.04" width="21.45" height="4.07" rx="1.29"/><circle class="cls-1" cx="75.99" cy="62.53" r="2.06"/><circle class="cls-2" cx="75.99" cy="62.53" r="1.33"/><circle class="cls-1" cx="91.99" cy="62.53" r="2.06"/><path class="cls-19" d="M80.29,72.07H87.7a6.35,6.35,0,0,1,6.35,6.35V89.65a0,0,0,0,1,0,0H73.94a0,0,0,0,1,0,0V78.42a6.35,6.35,0,0,1,6.35-6.35Z"/><path class="cls-20" d="M76.82,72.46H80a0,0,0,0,1,0,0V88a1.85,1.85,0,0,1-1.85,1.85H74.25a.5.5,0,0,1-.5-.5V75.53a3.07,3.07,0,0,1,3.07-3.07Z"/><path class="cls-20" d="M88.47,72.46h3.87a1.84,1.84,0,0,1,1.84,1.84V89.8a0,0,0,0,1,0,0H91a3,3,0,0,1-3-3V73a.49.49,0,0,1,.49-.49Z" transform="translate(182.16 162.27) rotate(-180)"/><path class="cls-4" d="M79.42,72.64h9.06a.14.14,0,0,1,.14.14v1.47a2.39,2.39,0,0,1-2.39,2.39H81.67a2.39,2.39,0,0,1-2.39-2.39V72.77a.14.14,0,0,1,.14-.14Z"/><path class="cls-4" d="M88.77,76.36a2.87,2.87,0,0,1-.78.73,2.33,2.33,0,0,1-.71.25.48.48,0,0,1-.53-.5V72.57a.48.48,0,0,1,.46-.5h1.2a.46.46,0,0,1,.44.34A5,5,0,0,1,88.77,76.36Z"/><path class="cls-4" d="M79.26,76.36a2.72,2.72,0,0,0,.78.73,1.94,1.94,0,0,0,.82.26.38.38,0,0,0,.42-.38V72.45a.38.38,0,0,0-.39-.38H79.57a.39.39,0,0,0-.37.27C78.67,74.06,78.72,75.6,79.26,76.36Z"/><circle class="cls-2" cx="91.99" cy="62.53" r="1.33"/><rect class="cls-1" x="80.01" y="68.09" width="7.96" height="7.96" rx="2.51"/><rect class="cls-7" x="75.99" y="51.84" width="16" height="20.23" rx="5.05"/><rect class="cls-8" x="80.01" y="61.1" width="1.98" height="2.86" rx="0.63"/><rect class="cls-8" x="86" y="61.1" width="1.98" height="2.86" rx="0.63"/><path class="cls-1" d="M83.69,64.06h.62a.53.53,0,0,1,.53.53v.52a0,0,0,0,1,0,0H83.16a0,0,0,0,1,0,0v-.52A.53.53,0,0,1,83.69,64.06Z"/><path class="cls-3" d="M82.83,65.92h2.33a2,2,0,0,1,2,2v1.81a.16.16,0,0,1-.16.16H81a.16.16,0,0,1-.16-.16V67.92A2,2,0,0,1,82.83,65.92Z" transform="translate(167.99 135.8) rotate(180)"/><path class="cls-9" d="M83.37,68c-.77,0-1-.63-1.5-.48-.19.06-.42.25-.59.82a3,3,0,0,0,1,1.06,3.41,3.41,0,0,0,2.74.31,1.38,1.38,0,0,0,.27-1.12,1.09,1.09,0,0,0-.5-.77C84.36,67.59,84.08,68.05,83.37,68Z"/><path class="cls-4" d="M82.09,65.92H85.9a0,0,0,0,1,0,0v.27a.47.47,0,0,1-.47.47H82.56a.47.47,0,0,1-.47-.47v-.27a0,0,0,0,1,0,0Z"/><circle class="cls-8" cx="83.94" cy="79.11" r="0.43"/><circle class="cls-8" cx="83.94" cy="81.09" r="0.43"/><circle class="cls-8" cx="83.94" cy="83.08" r="0.43"/><circle class="cls-8" cx="83.94" cy="85.07" r="0.43"/><circle class="cls-8" cx="83.94" cy="87.06" r="0.43"/><rect class="cls-21" x="75.94" y="58.4" width="0.88" height="4.68" rx="0.28"/><rect class="cls-21" x="91.12" y="58.4" width="0.88" height="4.68" rx="0.28"/><circle class="cls-21" cx="75.75" cy="60.12" r="1.09"/><circle class="cls-21" cx="92.2" cy="60.12" r="1.09"/><rect class="cls-21" x="79.71" y="60.35" width="2.59" height="0.51" rx="0.16"/><rect class="cls-21" x="85.69" y="60.35" width="2.59" height="0.51" rx="0.16"/><path class="cls-22" d="M90,50v4.49a1.72,1.72,0,1,1-3.43,0V48.6a1.69,1.69,0,0,1,.1-.56,7.4,7.4,0,0,0-1-.26s0,.1,0,.15v5.86a1.72,1.72,0,0,1-3.44,0V47.93a.77.77,0,0,1,0-.15,6.33,6.33,0,0,0-1.06.27,1.63,1.63,0,0,1,.1.55v5.85a1.72,1.72,0,1,1-3.43,0V50A8.92,8.92,0,0,0,75,56.59v1.93a1,1,0,0,0,1,1h16a1,1,0,0,0,1-1V56.59A9,9,0,0,0,90,50Z"/><path class="cls-23" d="M86.57,54.45c0,.95.76,2.24,1.71,2.24S90,55.4,90,54.45V50A9,9,0,0,0,86.67,48a1.69,1.69,0,0,0-.1.56Z"/><path class="cls-23" d="M79.56,56.69c1,0,1.72-1.29,1.72-2.24V48.6a1.63,1.63,0,0,0-.1-.55,8.8,8.8,0,0,0-3.33,2v4.45C77.85,55.4,78.61,56.69,79.56,56.69Z"/><path class="cls-23" d="M82.22,53.79c0,.94.77,2.38,1.72,2.38s1.72-1.44,1.72-2.38V47.93s0-.1,0-.15a8.58,8.58,0,0,0-3.4,0,.77.77,0,0,0,0,.15Z"/><rect class="cls-23" x="73.8" y="58.59" width="20.25" height="0.92" rx="0.29"/><rect class="cls-8" x="76.38" y="91.07" width="6.41" height="18.27" rx="1.11"/><rect class="cls-8" x="84.77" y="91.07" width="6.41" height="18.27" rx="1.11"/></g></g></svg>