<svg xmlns="http://www.w3.org/2000/svg" viewBox="0 0 94.6 109.28"><defs><style>.cls-1{fill:#112439;}.cls-2{fill:#162c3f;}.cls-3{fill:#379736;}.cls-4{fill:#fff;}.cls-5{fill:#f2928b;}.cls-6{fill:#f2ae9f;}.cls-7{fill:#8b143a;}.cls-8{fill:#8e4d21;}.cls-9{fill:#e78f26;}.cls-10{fill:#e27829;}.cls-11{fill:none;stroke:#080d13;stroke-miterlimit:10;stroke-width:0.5px;}.cls-12{fill:#080d13;}.cls-13{fill:#102030;}.cls-14{fill:#f4f4f4;}.cls-15{fill:#e58887;}.cls-16{fill:#e72662;}.cls-17{fill:#d9d8ee;}.cls-18{fill:#e6e4f3;}.cls-19{fill:#dadaef;}.cls-20{fill:#c6c5dd;}</style></defs><title>Tipofabricacion</title><g id="Capa_2" data-name="Capa 2"><g id="Capa_5" data-name="Capa 5"><rect class="cls-1" x="79.36" y="87.61" width="7.11" height="20.09" rx="3.56"/><rect class="cls-2" x="83.3" y="87.61" width="7.11" height="20.09" rx="3.56"/><rect class="cls-1" x="74.31" y="87.01" width="19.75" height="3.93" rx="1.01"/><path class="cls-3" d="M84.11,69.12h0A10.41,10.41,0,0,1,94.53,79.54v7.79a0,0,0,0,1,0,0H73.7a0,0,0,0,1,0,0V79.54A10.41,10.41,0,0,1,84.11,69.12Z"/><path class="cls-4" d="M79.47,69.42h9.19a.24.24,0,0,1,.24.24v0a4.12,4.12,0,0,1-4.12,4.12H83.36a4.12,4.12,0,0,1-4.12-4.12v0a.24.24,0,0,1,.24-.24Z"/><rect class="cls-5" x="79.99" y="65" width="8.24" height="8.24" rx="4.12"/><path class="cls-5" d="M76.07,60.95h0a.87.87,0,0,1,.87.87V62a0,0,0,0,1,0,0H75.2a0,0,0,0,1,0,0v-.2A.87.87,0,0,1,76.07,60.95Z"/><path class="cls-6" d="M84.11,48.17h0a8.29,8.29,0,0,0-8.28,8.29v4.38a8.16,8.16,0,0,0,.24,1.93h5.35a.27.27,0,0,1,.26.27v.57a3.28,3.28,0,0,1-3.23,3.27,8.26,8.26,0,0,0,5.66,2.24h0a8.28,8.28,0,0,0,8.29-8.28V56.46A8.29,8.29,0,0,0,84.11,48.17Z"/><path class="cls-7" d="M81.68,63.61V63a.27.27,0,0,0-.26-.27H78.7a.77.77,0,0,1-.77.77H76.29a8.32,8.32,0,0,0,2.16,3.34A3.28,3.28,0,0,0,81.68,63.61Z"/><path class="cls-4" d="M78.7,62.77H76.07c.06.26.14.52.22.77h1.64A.77.77,0,0,0,78.7,62.77Z"/><rect class="cls-1" x="76.42" y="57.84" width="2.05" height="2.96" rx="1.02"/><rect class="cls-8" x="82.35" y="55.04" width="1.51" height="4.84" rx="0.67"/><circle class="cls-8" cx="82.35" cy="56.81" r="1.13"/><circle class="cls-8" cx="84.13" cy="56.81" r="1.13"/><circle class="cls-8" cx="85.84" cy="56.81" r="1.13"/><circle class="cls-8" cx="87.5" cy="56.81" r="1.13"/><circle class="cls-8" cx="89.28" cy="56.81" r="1.13"/><circle class="cls-8" cx="91.09" cy="56.81" r="1.13"/><circle class="cls-8" cx="92.74" cy="56.81" r="1.13"/><rect class="cls-8" x="76.48" y="57.06" width="2.69" height="0.52" rx="0.26" transform="translate(13.69 -14.99) rotate(12.06)"/><path class="cls-9" d="M90.4,46.3V51a1.78,1.78,0,1,1-3.55,0V44.89a1.92,1.92,0,0,1,.1-.59A9.13,9.13,0,0,0,85.89,44c0,.06,0,.11,0,.16v6.07a1.78,1.78,0,0,1-3.56,0V44.19a1,1,0,0,1,0-.16,9.86,9.86,0,0,0-1.1.29,1.75,1.75,0,0,1,.1.57V51a1.78,1.78,0,1,1-3.55,0V46.34a9.25,9.25,0,0,0-3,6.82v2a1,1,0,0,0,1,1H92.41a1,1,0,0,0,1-1v-2A9.28,9.28,0,0,0,90.4,46.3Z"/><path class="cls-9" d="M86.85,51c0,1,.79,2.32,1.78,2.32S90.4,51.93,90.4,51V46.3a9.45,9.45,0,0,0-3.45-2,1.92,1.92,0,0,0-.1.59Z"/><path class="cls-9" d="M79.6,53.27c1,0,1.77-1.34,1.77-2.32V44.89a1.75,1.75,0,0,0-.1-.57,9.09,9.09,0,0,0-3.45,2V51C77.82,51.93,78.61,53.27,79.6,53.27Z"/><path class="cls-9" d="M82.35,50.26c0,1,.8,2.46,1.78,2.46s1.78-1.48,1.78-2.46V44.19s0-.1,0-.16a9.76,9.76,0,0,0-3.52,0,1,1,0,0,0,0,.16Z"/><rect class="cls-10" x="67.85" y="55.23" width="26.75" height="0.95" rx="0.47"/><rect class="cls-11" x="75.48" y="57.84" width="5.29" height="3.38" rx="0.8"/><rect class="cls-12" x="80.64" y="57.92" width="4.08" height="0.42" rx="0.21"/><path class="cls-6" d="M67.46,67.13h4.79a0,0,0,0,1,0,0v9.76a2.4,2.4,0,0,1-2.4,2.4h0a2.4,2.4,0,0,1-2.4-2.4V67.13a0,0,0,0,1,0,0Z" transform="translate(165.98 41.59) rotate(115.45)"/><path class="cls-13" d="M77.33,69.79h0a2.48,2.48,0,0,1,2.48,2.48V83.72a0,0,0,0,1,0,0h-5a0,0,0,0,1,0,0V72.26a2.48,2.48,0,0,1,2.48-2.48Z" transform="translate(179.87 39.91) rotate(115.45)"/><rect class="cls-14" x="69.3" y="73.04" width="5.35" height="2.34" rx="0.88" transform="translate(169.92 41.12) rotate(115.45)"/><ellipse class="cls-5" cx="84.59" cy="59.32" rx="1.25" ry="2.13"/><ellipse class="cls-15" cx="84.18" cy="59.32" rx="0.49" ry="1.38"/><path class="cls-16" d="M76.81,64.73a3,3,0,0,1,2.29-.32,2.93,2.93,0,0,1,1.75,1.37,3.25,3.25,0,0,1-1.4.93,3.53,3.53,0,0,1-1,.17,10.07,10.07,0,0,1-.89-1A9,9,0,0,1,76.81,64.73Z"/><path class="cls-10" d="M77.07,46.85a.27.27,0,0,0,.2.45l6.94,0H91a.27.27,0,0,0,.2-.45,9.8,9.8,0,0,0-4.48-2.62,10.21,10.21,0,0,0-6.78.61A9.73,9.73,0,0,0,77.07,46.85Z"/><path class="cls-10" d="M75.65,48.9a.45.45,0,0,1,.39-.23l7.07-.05h9.08a.45.45,0,0,1,.4.24,11.24,11.24,0,0,1,.47,1.08,6.53,6.53,0,0,1,.22.67.44.44,0,0,1-.43.57l-9.44,0-8,0a.45.45,0,0,1-.43-.57q.11-.37.27-.81A9.48,9.48,0,0,1,75.65,48.9Z"/></g><g id="Capa_7" data-name="Capa 7"><rect class="cls-17" x="34" y="7.68" width="3.33" height="9.46" rx="0.92"/><circle class="cls-17" cx="35.66" cy="8.77" r="2.41"/><path class="cls-18" d="M50.25,109.28H21.07a8,8,0,0,1-7.92-9.47L25.82,29.26a8.05,8.05,0,0,1,7.92-6.62h3.09a8,8,0,0,1,7.91,6.54L58.16,99.73A8,8,0,0,1,50.25,109.28Z"/><path class="cls-19" d="M51.16,100.25h-31a4.35,4.35,0,0,1-4.29-5.13L27.61,29.77a4.35,4.35,0,0,1,4.29-3.59h6.83A4.35,4.35,0,0,1,43,29.72L55.45,95.07A4.37,4.37,0,0,1,51.16,100.25Z"/><rect class="cls-1" x="37" y="27.63" width="0.84" height="30.63" rx="0.23" transform="translate(-19.4 39.04) rotate(-45)"/><rect class="cls-1" x="32.5" y="27.59" width="0.84" height="30.68" rx="0.23" transform="translate(25.84 96.57) rotate(-135)"/><rect class="cls-1" x="38.72" y="53.66" width="1.36" height="49.72" rx="0.33" transform="translate(-43.98 50.86) rotate(-45)"/><rect class="cls-1" x="31.42" y="53.61" width="1.36" height="49.8" rx="0.33" transform="translate(-0.72 156.72) rotate(-135)"/><rect class="cls-20" y="95.44" width="72.34" height="13.85" rx="3.82"/><rect class="cls-20" x="23.41" y="15.72" width="24.38" height="13.85" rx="3.08"/><path class="cls-1" d="M31.66,1.87a6.21,6.21,0,0,0-.21,10.58c.4.26.78-.39.37-.65A5.46,5.46,0,0,1,32,2.52c.41-.25,0-.9-.37-.65Z"/><path class="cls-1" d="M28,.1a9.06,9.06,0,0,0,.82,14.09c.39.28.76-.37.37-.65A8.32,8.32,0,0,1,28.57.63C28.93.31,28.4-.22,28,.1Z"/><path class="cls-1" d="M39.26,2.83a5.47,5.47,0,0,1,.21,9.28c-.41.26,0,.91.37.64a6.21,6.21,0,0,0-.2-10.57c-.41-.26-.79.39-.38.65Z"/><path class="cls-1" d="M42.93.68a8.32,8.32,0,0,1-.66,12.91c-.39.27,0,.92.38.64A9.05,9.05,0,0,0,43.46.15c-.36-.32-.89.2-.53.53Z"/></g></g></svg>