<svg xmlns="http://www.w3.org/2000/svg" viewBox="0 0 123.82 109.95"><defs><style>.cls-1{fill:#f2928b;}.cls-2{fill:#e58887;}.cls-3{fill:#99d6f0;}.cls-4{fill:#112439;}.cls-5{fill:#fff;}.cls-6{fill:#f2ae9f;}.cls-7{fill:#8b143a;}.cls-8{fill:#e72662;}.cls-9{fill:#8e4d21;}.cls-10{fill:#e78f26;}.cls-11{fill:#e27829;}.cls-12{fill:none;stroke:#080d13;stroke-miterlimit:10;}.cls-13{fill:#080d13;}.cls-14{fill:#c6c5dd;}.cls-15{fill:#405d6d;}</style></defs><title>Tipojunta</title><g id="Capa_2" data-name="Capa 2"><g id="Junta_de_Trabajo" data-name="Junta de Trabajo"><circle class="cls-1" cx="76.77" cy="38.58" r="5.32"/><circle class="cls-2" cx="76.77" cy="38.58" r="3.43"/><circle class="cls-1" cx="118.15" cy="38.58" r="5.32"/><path class="cls-3" d="M95,63.25h4.9A23.56,23.56,0,0,1,123.47,86.8v21.91a0,0,0,0,1,0,0h-52a0,0,0,0,1,0,0V86.8A23.56,23.56,0,0,1,95,63.25Z"/><path class="cls-4" d="M86.86,64.27h.3a0,0,0,0,1,0,0v43.47a1.38,1.38,0,0,1-1.38,1.38H72.37A1.38,1.38,0,0,1,71,107.74V80.15A15.88,15.88,0,0,1,86.86,64.27Z"/><path class="cls-4" d="M109.13,64.27h13.31a1.38,1.38,0,0,1,1.38,1.38v43.47a0,0,0,0,1,0,0h-.19a15.88,15.88,0,0,1-15.88-15.88V65.65a1.38,1.38,0,0,1,1.38-1.38Z" transform="translate(231.58 173.39) rotate(-180)"/><path class="cls-5" d="M85.75,64.72H109a.47.47,0,0,1,.47.47V67a8.06,8.06,0,0,1-8.06,8.06h-8A8.06,8.06,0,0,1,85.28,67V65.18a.47.47,0,0,1,.47-.47Z"/><path class="cls-5" d="M109.8,74.36a7,7,0,0,1-2,1.88,5.43,5.43,0,0,1-1.83.64,1.24,1.24,0,0,1-1.38-1.3v-11a1.26,1.26,0,0,1,1.21-1.3h3.09a1.21,1.21,0,0,1,1.15.88C111.34,68.5,111.18,72.41,109.8,74.36Z"/><path class="cls-5" d="M85.22,74.35a6.83,6.83,0,0,0,2,1.88,5.3,5.3,0,0,0,2.12.68,1,1,0,0,0,1.09-1V64.25a1,1,0,0,0-1-1H86a1,1,0,0,0-1,.69C83.68,68.39,83.82,72.38,85.22,74.35Z"/><circle class="cls-2" cx="118.15" cy="38.58" r="3.43"/><rect class="cls-1" x="87.17" y="52.95" width="20.59" height="20.59" rx="8.39"/><rect class="cls-6" x="76.77" y="10.92" width="41.38" height="52.32" rx="19.01"/><rect class="cls-4" x="87.17" y="34.89" width="5.12" height="7.38" rx="2.54"/><rect class="cls-4" x="102.64" y="34.89" width="5.12" height="7.38" rx="2.54"/><path class="cls-1" d="M97.45,42.55h0a2.15,2.15,0,0,1,2.15,2.15v.56a0,0,0,0,1,0,0H95.3a0,0,0,0,1,0,0V44.7A2.15,2.15,0,0,1,97.45,42.55Z"/><path class="cls-7" d="M97.42,47.34h.09a8.14,8.14,0,0,1,8.14,8.14v1.47a.66.66,0,0,1-.66.66H89.94a.66.66,0,0,1-.66-.66V55.48A8.14,8.14,0,0,1,97.42,47.34Z" transform="translate(194.92 104.94) rotate(180)"/><path class="cls-8" d="M95.85,52.72c-2-.13-2.69-1.62-3.88-1.23-.5.16-1.1.66-1.53,2.13a8.09,8.09,0,0,0,2.63,2.74,8.84,8.84,0,0,0,7.08.79,3.67,3.67,0,0,0,.7-2.9,2.92,2.92,0,0,0-1.29-2C98.41,51.68,97.68,52.85,95.85,52.72Z"/><path class="cls-5" d="M92.54,47.34h9.84a0,0,0,0,1,0,0v.74a1.17,1.17,0,0,1-1.17,1.17h-7.5a1.17,1.17,0,0,1-1.17-1.17v-.74A0,0,0,0,1,92.54,47.34Z"/><circle class="cls-4" cx="97.32" cy="81.45" r="1.1"/><circle class="cls-4" cx="97.32" cy="86.59" r="1.1"/><circle class="cls-4" cx="97.32" cy="91.73" r="1.1"/><circle class="cls-4" cx="97.32" cy="96.87" r="1.1"/><circle class="cls-4" cx="97.32" cy="102.02" r="1.1"/><rect class="cls-9" x="76.63" y="27.91" width="2.27" height="12.1" rx="1.13"/><rect class="cls-9" x="115.88" y="27.91" width="2.27" height="12.1" rx="1.13"/><circle class="cls-9" cx="76.15" cy="32.34" r="2.81"/><circle class="cls-9" cx="118.69" cy="32.34" r="2.81"/><rect class="cls-9" x="86.37" y="32.95" width="6.71" height="1.31" rx="0.65"/><rect class="cls-9" x="101.84" y="32.95" width="6.71" height="1.31" rx="0.65"/><path class="cls-10" d="M113,6.08V17.7a4.44,4.44,0,1,1-8.88,0V2.55a4.45,4.45,0,0,1,.27-1.46,26.53,26.53,0,0,0-2.66-.67c0,.13,0,.26,0,.4V16a4.44,4.44,0,0,1-8.88,0V.82c0-.14,0-.27,0-.4a22.75,22.75,0,0,0-2.73.7,4.52,4.52,0,0,1,.25,1.43V17.7a4.44,4.44,0,1,1-8.88,0V6.17a23.14,23.14,0,0,0-7.46,17v5a2.53,2.53,0,0,0,2.53,2.53H118a2.53,2.53,0,0,0,2.53-2.53v-5A23.18,23.18,0,0,0,113,6.08Z"/><path class="cls-11" d="M104.11,17.7c0,2.45,2,5.78,4.44,5.78S113,20.15,113,17.7V6.08a23.5,23.5,0,0,0-8.61-5,4.45,4.45,0,0,0-.27,1.46Z"/><path class="cls-11" d="M86,23.48c2.45,0,4.44-3.33,4.44-5.78V2.55a4.52,4.52,0,0,0-.25-1.43,23.28,23.28,0,0,0-8.63,5.05V17.7C81.56,20.15,83.55,23.48,86,23.48Z"/><path class="cls-11" d="M92.88,16c0,2.45,2,6.15,4.44,6.15s4.44-3.7,4.44-6.15V.82c0-.14,0-.27,0-.4a23.26,23.26,0,0,0-8.8,0c0,.13,0,.26,0,.4Z"/><rect class="cls-11" x="71.1" y="28.38" width="52.37" height="2.37" rx="1.18"/><rect class="cls-12" x="99.29" y="34.89" width="13.2" height="8.45" rx="1.38"/><rect class="cls-12" x="82.43" y="34.89" width="13.12" height="8.45" rx="1.38"/><rect class="cls-13" x="95.54" y="35.15" width="3.75" height="1.53"/><rect class="cls-13" x="78.88" y="35.09" width="3.55" height="1.06"/><rect class="cls-13" x="112.5" y="35.09" width="3.38" height="1.06"/><circle class="cls-1" cx="5.32" cy="39.15" r="5.32"/><circle class="cls-2" cx="5.32" cy="39.15" r="3.43"/><circle class="cls-1" cx="46.7" cy="39.15" r="5.32"/><path class="cls-7" d="M23.56,64.49h4.9A23.56,23.56,0,0,1,52,88V110a0,0,0,0,1,0,0H0a0,0,0,0,1,0,0V88A23.56,23.56,0,0,1,23.56,64.49Z"/><rect class="cls-5" x="21.54" y="75.86" width="9.27" height="34.09"/><path class="cls-5" d="M22.75,75.68l-7.1,2.58a1.52,1.52,0,0,1-2-1.63L15,66.1l.85-.32,10.5-.71Z"/><path class="cls-5" d="M29.28,75.68l7.1,2.58a1.52,1.52,0,0,0,2-1.63L37.05,66.1l-.85-.32-10.5-.71Z"/><path class="cls-5" d="M19.11,65.57h13.7A2.18,2.18,0,0,1,35,67.75v.5a9,9,0,0,1-9,9h0a9,9,0,0,1-9-9v-.5A2.18,2.18,0,0,1,19.11,65.57Z"/><circle class="cls-2" cx="46.7" cy="39.15" r="3.43"/><path class="cls-14" d="M26.51,79.61h-.89A2.67,2.67,0,0,1,23,77.37l-.62-3.78h7.29l-.49,3.69A2.68,2.68,0,0,1,26.51,79.61Z"/><rect class="cls-1" x="15.72" y="53.52" width="20.59" height="20.59" rx="9.79"/><circle class="cls-15" cx="6.48" cy="26.49" r="6.48"/><circle class="cls-15" cx="46.29" cy="26.49" r="6.48"/><rect class="cls-6" x="5.32" y="11.49" width="41.38" height="52.32" rx="19.01"/><rect class="cls-4" x="15.27" y="34.2" width="5.12" height="6.37" rx="1.94"/><rect class="cls-4" x="31.64" y="34.2" width="5.12" height="6.37" rx="1.94"/><path class="cls-1" d="M25.83,40.58h1A2.15,2.15,0,0,1,29,42.73v2.4a0,0,0,0,1,0,0H23.68a0,0,0,0,1,0,0v-2.4A2.15,2.15,0,0,1,25.83,40.58Z" transform="translate(52.65 85.7) rotate(180)"/><path class="cls-7" d="M26,48.86h.09A8.14,8.14,0,0,1,34.19,57v1.47a.66.66,0,0,1-.66.66H18.48a.66.66,0,0,1-.66-.66V57A8.14,8.14,0,0,1,26,48.86Z" transform="translate(52.02 107.99) rotate(180)"/><path class="cls-8" d="M24.4,54.3c-2-.14-2.69-1.63-3.88-1.24-.5.16-1.1.66-1.53,2.13a8,8,0,0,0,2.62,2.74,8.82,8.82,0,0,0,7.09.79,3.68,3.68,0,0,0,.7-2.89,2.91,2.91,0,0,0-1.3-2C27,53.25,26.23,54.42,24.4,54.3Z"/><path class="cls-5" d="M21.09,48.86h9.84a0,0,0,0,1,0,0v.74a1.17,1.17,0,0,1-1.17,1.17h-7.5a1.17,1.17,0,0,1-1.17-1.17v-.74A0,0,0,0,1,21.09,48.86Z"/><circle class="cls-1" cx="12.1" cy="47.15" r="2.67"/><circle class="cls-1" cx="39.81" cy="47.15" r="2.67"/><rect class="cls-15" x="30.84" y="31.19" width="6.71" height="1.31" rx="0.65"/><rect class="cls-15" x="14.47" y="31.19" width="6.71" height="1.31" rx="0.65"/><path class="cls-15" d="M26.27,59.88h.05a1.28,1.28,0,0,1,1.28,1.28v2.65a0,0,0,0,1,0,0H25a0,0,0,0,1,0,0V61.16A1.28,1.28,0,0,1,26.27,59.88Z"/><rect class="cls-14" x="24.3" y="78.52" width="3.57" height="27.12" rx="1.34"/><path class="cls-15" d="M26.3,45.12h6.89a2.43,2.43,0,0,1,2.43,2.43v.66a0,0,0,0,1,0,0H28.73a2.43,2.43,0,0,1-2.43-2.43v-.66A0,0,0,0,1,26.3,45.12Z"/><path class="cls-15" d="M19.46,45.12h6.89a0,0,0,0,1,0,0v.66a2.43,2.43,0,0,1-2.43,2.43H17a0,0,0,0,1,0,0v-.66A2.43,2.43,0,0,1,19.46,45.12Z" transform="translate(43.39 93.34) rotate(-180)"/><circle class="cls-15" cx="13.31" cy="15.31" r="8.98"/><path class="cls-15" d="M40,23.75H25.83A8.71,8.71,0,0,1,17.12,15v-.22a9,9,0,0,1,9-9H51.27v6.7A11.26,11.26,0,0,1,40,23.75Z"/><rect class="cls-15" x="3.36" y="30.13" width="1.94" height="11.75" rx="0.97"/><rect class="cls-15" x="46.7" y="30.13" width="1.94" height="11.75" rx="0.97"/></g></g></svg>