<svg xmlns="http://www.w3.org/2000/svg" viewBox="0 0 190.27 110.08"><defs><style>.cls-1{fill:#f2928b;}.cls-2{fill:#e58887;}.cls-3{fill:#8b143a;}.cls-4{fill:#fff;}.cls-5{fill:#c6c5dd;}.cls-6{fill:#405d6d;}.cls-7{fill:#f2ae9f;}.cls-8{fill:#112439;}.cls-9{fill:#e72662;}.cls-10{fill:#324b56;}.cls-11{fill:#f4f4f4;}.cls-12{fill:#b66229;}.cls-13{fill:#fcd73f;}.cls-14{fill:#d9d8ee;}.cls-15{fill:#e6e4f3;}.cls-16{fill:#f1f2fa;}.cls-17{fill:#99d6f0;}.cls-18{fill:#379736;}.cls-19{fill:#8e4d21;}.cls-20{fill:#e78f26;}.cls-21{fill:#e27829;}.cls-22{fill:#4a494a;}.cls-23{fill:#71b963;}</style></defs><title>TipoComision</title><g id="Capa_2" data-name="Capa 2"><g id="Capa_7" data-name="Capa 7"><circle class="cls-1" cx="163.01" cy="61.19" r="2.16"/><circle class="cls-2" cx="163.01" cy="61.19" r="1.4"/><circle class="cls-1" cx="179.82" cy="61.19" r="2.16"/><path class="cls-3" d="M171,71.49h.86A10.14,10.14,0,0,1,182,81.62V88.1A1.86,1.86,0,0,1,180.12,90H162.7a1.86,1.86,0,0,1-1.86-1.86V81.62A10.14,10.14,0,0,1,171,71.49Z"/><rect class="cls-4" x="169.6" y="76.11" width="3.77" height="13.85"/><path class="cls-4" d="M170.09,76l-2.89,1a.62.62,0,0,1-.82-.66l.55-4.28.35-.13,4.26-.29Z"/><path class="cls-4" d="M172.74,76l2.89,1a.62.62,0,0,0,.82-.66l-.55-4.28-.35-.13-4.26-.29Z"/><path class="cls-4" d="M168.57,71.93h5.64a.85.85,0,0,1,.85.85v.39a3.52,3.52,0,0,1-3.52,3.52h-.3a3.52,3.52,0,0,1-3.52-3.52v-.39a.85.85,0,0,1,.85-.85Z"/><circle class="cls-2" cx="179.82" cy="61.19" r="1.4"/><path class="cls-5" d="M171.61,77.63h-.36a1.08,1.08,0,0,1-1.07-.91l-.25-1.53h3l-.2,1.5A1.08,1.08,0,0,1,171.61,77.63Z"/><rect class="cls-1" x="167.23" y="67.03" width="8.36" height="8.36" rx="4.01"/><circle class="cls-6" cx="163.48" cy="56.05" r="2.63"/><circle class="cls-6" cx="179.65" cy="56.05" r="2.63"/><rect class="cls-7" x="163.01" y="49.95" width="16.81" height="21.26" rx="8.06"/><rect class="cls-8" x="167.05" y="59.18" width="2.08" height="2.59" rx="1"/><rect class="cls-8" x="173.7" y="59.18" width="2.08" height="2.59" rx="1"/><path class="cls-1" d="M171.5,61.77h.09a1,1,0,0,1,1,1v.82a0,0,0,0,1,0,0h-2.15a0,0,0,0,1,0,0V62.8A1,1,0,0,1,171.5,61.77Z" transform="translate(343.08 125.39) rotate(180)"/><path class="cls-3" d="M171.28,65.14h.27a3.19,3.19,0,0,1,3.19,3.19v.72a.26.26,0,0,1-.26.26h-6.13a.26.26,0,0,1-.26-.26v-.72a3.19,3.19,0,0,1,3.19-3.19Z" transform="translate(342.83 134.45) rotate(180)"/><path class="cls-9" d="M170.76,67.35c-.81-.06-1.09-.66-1.58-.51-.2.07-.44.27-.62.87a3.2,3.2,0,0,0,1.07,1.11,3.6,3.6,0,0,0,2.88.33,1.56,1.56,0,0,0,.28-1.18,1.14,1.14,0,0,0-.53-.81C171.8,66.92,171.5,67.4,170.76,67.35Z"/><path class="cls-4" d="M169.41,65.14h4a0,0,0,0,1,0,0v0a.75.75,0,0,1-.75.75h-2.51a.75.75,0,0,1-.75-.75v0A0,0,0,0,1,169.41,65.14Z"/><circle class="cls-1" cx="165.76" cy="64.44" r="1.09"/><circle class="cls-1" cx="177.02" cy="64.44" r="1.09"/><rect class="cls-6" x="173.38" y="57.96" width="2.73" height="0.53" rx="0.26"/><rect class="cls-6" x="166.72" y="57.96" width="2.73" height="0.53" rx="0.26"/><path class="cls-6" d="M171.51,69.62h0a.51.51,0,0,1,.51.51v1.09a0,0,0,0,1,0,0H171a0,0,0,0,1,0,0V70.12A.51.51,0,0,1,171.51,69.62Z"/><rect class="cls-5" x="170.72" y="77.19" width="1.45" height="11.02" rx="0.7"/><path class="cls-6" d="M171.53,63.62h2.58a1.2,1.2,0,0,1,1.2,1.2v.05a0,0,0,0,1,0,0h-2.58a1.2,1.2,0,0,1-1.2-1.2v-.05A0,0,0,0,1,171.53,63.62Z"/><path class="cls-6" d="M169,63.62h2.58a0,0,0,0,1,0,0v.05a1.2,1.2,0,0,1-1.2,1.2h-2.58a0,0,0,0,1,0,0v-.05a1.2,1.2,0,0,1,1.2-1.2Z" transform="translate(339.32 128.49) rotate(180)"/><circle class="cls-6" cx="166.25" cy="51.5" r="3.65"/><path class="cls-6" d="M177.1,54.94h-5.76a3.55,3.55,0,0,1-3.54-3.54v-.09a3.65,3.65,0,0,1,3.65-3.67h10.23v2.72A4.58,4.58,0,0,1,177.1,54.94Z"/><rect class="cls-6" x="162.21" y="57.53" width="0.79" height="4.77" rx="0.38"/><rect class="cls-6" x="179.82" y="57.53" width="0.79" height="4.77" rx="0.38"/><path class="cls-10" d="M162.91,93h8a0,0,0,0,1,0,0v13.24a3.85,3.85,0,0,1-3.85,3.85h-.33a3.85,3.85,0,0,1-3.85-3.85V93A0,0,0,0,1,162.91,93Z"/><path class="cls-10" d="M172,93h8a0,0,0,0,1,0,0v13.24a3.85,3.85,0,0,1-3.85,3.85h-.33a3.85,3.85,0,0,1-3.85-3.85V93A0,0,0,0,1,172,93Z"/><path class="cls-7" d="M154.77,78.28h3.9a0,0,0,0,1,0,0V86.1A1.87,1.87,0,0,1,156.8,88h-.16a1.87,1.87,0,0,1-1.87-1.87V78.28A0,0,0,0,1,154.77,78.28Z" transform="translate(115.82 -89.5) rotate(48.73)"/><path class="cls-3" d="M161.63,73.24h.16a1.89,1.89,0,0,1,1.89,1.89v9.22a0,0,0,0,1,0,0h-3.95a0,0,0,0,1,0,0V75.13A1.89,1.89,0,0,1,161.63,73.24Z" transform="translate(114.27 -94.72) rotate(48.73)"/><rect class="cls-11" x="156.02" y="80.98" width="4.27" height="1.87" rx="0.88" transform="translate(115.4 -90.99) rotate(48.73)"/><path class="cls-7" d="M186,78.28h.16a1.87,1.87,0,0,1,1.87,1.87V88a0,0,0,0,1,0,0h-3.9a0,0,0,0,1,0,0V80.15A1.87,1.87,0,0,1,186,78.28Z" transform="translate(371.34 -1.92) rotate(131.27)"/><path class="cls-3" d="M179.15,73.24h3.95a0,0,0,0,1,0,0v9.22a1.89,1.89,0,0,1-1.89,1.89H181a1.89,1.89,0,0,1-1.89-1.89V73.24a0,0,0,0,1,0,0Z" transform="translate(359.82 -5.36) rotate(131.27)"/><rect class="cls-11" x="182.54" y="80.98" width="4.27" height="1.87" rx="0.88" transform="translate(368.06 -2.85) rotate(131.27)"/><rect class="cls-10" x="160.72" y="89.78" width="21.14" height="3.51" rx="1.69"/><rect class="cls-12" x="169.47" y="89.78" width="3.77" height="0.89"/><rect class="cls-13" x="170.91" y="89.78" width="0.89" height="0.89" rx="0.22"/></g><g id="Capa_8" data-name="Capa 8"><path class="cls-14" d="M157.6,10.45h-6.93a6.14,6.14,0,0,0-5.31,3.07l-3.46,6a6.14,6.14,0,0,0,0,6.12l3.46,6a6.15,6.15,0,0,0,5.31,3.06h6.93a6.14,6.14,0,0,0,5.3-3.06l3.46-6a6.14,6.14,0,0,0,0-6.12l-3.46-6A6.13,6.13,0,0,0,157.6,10.45Z"/><path class="cls-15" d="M158.23,11.56H150a3.92,3.92,0,0,0-3.39,2l-4.1,7.1a3.9,3.9,0,0,0,0,3.91l4.1,7.11a3.91,3.91,0,0,0,3.39,2h8.2a3.91,3.91,0,0,0,3.39-2l4.1-7.11a3.9,3.9,0,0,0,0-3.91l-4.1-7.1A3.92,3.92,0,0,0,158.23,11.56Z"/><path class="cls-16" d="M157.69,12.5h-7.12a3.89,3.89,0,0,0-3.38,2l-3.56,6.16a3.9,3.9,0,0,0,0,3.91l3.56,6.17a3.88,3.88,0,0,0,3.38,1.95h7.12a3.91,3.91,0,0,0,3.39-1.95l3.55-6.17a3.9,3.9,0,0,0,0-3.91l-3.55-6.16A3.92,3.92,0,0,0,157.69,12.5Z"/><rect class="cls-14" x="154.7" y="15.71" width="3.31" height="14.67" rx="1.36" transform="translate(250.62 149.9) rotate(-135)"/><rect class="cls-14" x="149.03" y="21.99" width="3.2" height="7.64" rx="1.32" transform="translate(36.94 127.93) rotate(-51.65)"/><path class="cls-7" d="M124.17,80h1.4a1.2,1.2,0,0,1,1.2,1.2v8.22a0,0,0,0,1,0,0H123a0,0,0,0,1,0,0V81.16A1.2,1.2,0,0,1,124.17,80Z" transform="translate(195.03 218.24) rotate(-151.85)"/><path class="cls-8" d="M126,73.61h3.84a0,0,0,0,1,0,0v9.58a1.21,1.21,0,0,1-1.21,1.21h-1.41A1.21,1.21,0,0,1,126,83.19V73.61a0,0,0,0,1,0,0Z" transform="translate(203.35 208.99) rotate(-151.85)"/><rect class="cls-11" x="123.63" y="82.14" width="4.15" height="1.81" rx="0.57" transform="translate(197.35 215.58) rotate(-151.85)"/><path class="cls-7" d="M147,80h3.79a0,0,0,0,1,0,0v8.22a1.2,1.2,0,0,1-1.2,1.2h-1.4a1.2,1.2,0,0,1-1.2-1.2V80A0,0,0,0,1,147,80Z" transform="translate(-22.36 80.27) rotate(-28.15)"/><path class="cls-8" d="M145.22,73.66h1.41a1.21,1.21,0,0,1,1.21,1.21v9.58a0,0,0,0,1,0,0H144a0,0,0,0,1,0,0V74.87A1.21,1.21,0,0,1,145.22,73.66Z" transform="translate(-20.04 78.19) rotate(-28.15)"/><rect class="cls-11" x="146.02" y="82.2" width="4.15" height="1.81" rx="0.57" transform="translate(-21.69 79.69) rotate(-28.15)"/><rect class="cls-8" x="126.65" y="88.38" width="21.45" height="4.07" rx="1.29"/><circle class="cls-1" cx="129.38" cy="61.88" r="2.06"/><circle class="cls-2" cx="129.38" cy="61.88" r="1.33"/><circle class="cls-1" cx="145.38" cy="61.88" r="2.06"/><path class="cls-17" d="M133.67,71.41h7.41a6.35,6.35,0,0,1,6.35,6.35V89a0,0,0,0,1,0,0H127.32a0,0,0,0,1,0,0V77.77A6.35,6.35,0,0,1,133.67,71.41Z"/><path class="cls-18" d="M130.21,71.81h3.19a0,0,0,0,1,0,0V87.3a1.85,1.85,0,0,1-1.85,1.85h-3.92a.5.5,0,0,1-.5-.5V74.88a3.07,3.07,0,0,1,3.07-3.07Z"/><path class="cls-18" d="M141.85,71.81h3.87a1.84,1.84,0,0,1,1.84,1.84v15.5a0,0,0,0,1,0,0H144.4a3,3,0,0,1-3-3V72.3a.49.49,0,0,1,.49-.49Z" transform="translate(288.93 160.96) rotate(-180)"/><path class="cls-4" d="M132.81,72h9.06a.14.14,0,0,1,.14.14v1.47A2.39,2.39,0,0,1,139.62,76h-4.56a2.39,2.39,0,0,1-2.39-2.39V72.12A.14.14,0,0,1,132.81,72Z"/><path class="cls-4" d="M142.15,75.71a2.72,2.72,0,0,1-.78.73,2,2,0,0,1-.71.24.47.47,0,0,1-.53-.5V71.92a.49.49,0,0,1,.47-.51h1.19a.48.48,0,0,1,.45.34C142.74,73.44,142.68,75,142.15,75.71Z"/><path class="cls-4" d="M132.65,75.71a2.63,2.63,0,0,0,.77.72,2.24,2.24,0,0,0,.82.27.39.39,0,0,0,.42-.39V71.8a.39.39,0,0,0-.38-.39H133a.39.39,0,0,0-.37.27C132.05,73.4,132.1,75,132.65,75.71Z"/><circle class="cls-2" cx="145.38" cy="61.88" r="1.33"/><rect class="cls-1" x="133.4" y="67.43" width="7.96" height="7.96" rx="2.51"/><rect class="cls-7" x="129.38" y="51.18" width="16" height="20.23" rx="5.05"/><rect class="cls-8" x="133.4" y="60.45" width="1.98" height="2.86" rx="0.63"/><rect class="cls-8" x="139.38" y="60.45" width="1.98" height="2.86" rx="0.63"/><path class="cls-1" d="M137.07,63.41h.62a.53.53,0,0,1,.53.53v.52a0,0,0,0,1,0,0h-1.67a0,0,0,0,1,0,0v-.52A.53.53,0,0,1,137.07,63.41Z"/><path class="cls-3" d="M136.21,65.26h2.33a2,2,0,0,1,2,2v1.81a.16.16,0,0,1-.16.16h-6a.16.16,0,0,1-.16-.16V67.26a2,2,0,0,1,2-2Z" transform="translate(274.76 134.49) rotate(180)"/><path class="cls-9" d="M136.76,67.34c-.78,0-1-.62-1.5-.47-.2.06-.43.25-.6.82a3.18,3.18,0,0,0,1,1.06,3.5,3.5,0,0,0,2.74.31,1.49,1.49,0,0,0,.27-1.13,1.11,1.11,0,0,0-.5-.77C137.74,66.94,137.46,67.39,136.76,67.34Z"/><path class="cls-4" d="M135.48,65.26h3.81a0,0,0,0,1,0,0v.27a.47.47,0,0,1-.47.47h-2.87a.47.47,0,0,1-.47-.47v-.27A0,0,0,0,1,135.48,65.26Z"/><circle class="cls-8" cx="137.32" cy="78.45" r="0.43"/><circle class="cls-8" cx="137.32" cy="80.44" r="0.43"/><circle class="cls-8" cx="137.32" cy="82.43" r="0.43"/><circle class="cls-8" cx="137.32" cy="84.42" r="0.43"/><circle class="cls-8" cx="137.32" cy="86.4" r="0.43"/><rect class="cls-19" x="129.32" y="57.75" width="0.88" height="4.68" rx="0.28"/><rect class="cls-19" x="144.5" y="57.75" width="0.88" height="4.68" rx="0.28"/><circle class="cls-19" cx="129.14" cy="59.46" r="1.09"/><circle class="cls-19" cx="145.59" cy="59.46" r="1.09"/><rect class="cls-19" x="133.09" y="59.7" width="2.59" height="0.51" rx="0.16"/><rect class="cls-19" x="139.07" y="59.7" width="2.59" height="0.51" rx="0.16"/><path class="cls-20" d="M143.38,49.31V53.8a1.72,1.72,0,1,1-3.43,0V47.94a1.74,1.74,0,0,1,.1-.56,8.62,8.62,0,0,0-1-.26.77.77,0,0,1,0,.15v5.86a1.72,1.72,0,1,1-3.43,0V47.27c0-.05,0-.1,0-.15a9,9,0,0,0-1.05.27,2,2,0,0,1,.09.55V53.8a1.72,1.72,0,1,1-3.43,0V49.34a9,9,0,0,0-2.88,6.6v1.93a1,1,0,0,0,1,1h16a1,1,0,0,0,1-1V55.94A8.93,8.93,0,0,0,143.38,49.31Z"/><path class="cls-21" d="M140,53.8c0,1,.77,2.24,1.72,2.24s1.71-1.29,1.71-2.24V49.31a8.89,8.89,0,0,0-3.33-1.93,1.74,1.74,0,0,0-.1.56Z"/><path class="cls-21" d="M133,56c1,0,1.71-1.29,1.71-2.24V47.94a2,2,0,0,0-.09-.55,9.11,9.11,0,0,0-3.34,2V53.8C131.23,54.75,132,56,133,56Z"/><path class="cls-21" d="M135.61,53.13c0,.95.77,2.38,1.71,2.38S139,54.08,139,53.13V47.27a.77.77,0,0,0,0-.15,9.11,9.11,0,0,0-3.4,0c0,.05,0,.1,0,.15Z"/><rect class="cls-21" x="127.18" y="57.93" width="20.25" height="0.92" rx="0.29"/><rect class="cls-8" x="129.76" y="90.42" width="6.41" height="18.27" rx="1.11"/><rect class="cls-8" x="138.15" y="90.42" width="6.41" height="18.27" rx="1.11"/><path class="cls-15" d="M9,2.33H45.27a9,9,0,0,1,9,9v98.08a0,0,0,0,1,0,0H0a0,0,0,0,1,0,0V11.31A9,9,0,0,1,9,2.33Z"/><rect class="cls-14" x="5.54" y="18.68" width="43.16" height="85.18" rx="6.79"/><path class="cls-22" d="M9,2.33H45.27a9,9,0,0,1,9,9v1.95a0,0,0,0,1,0,0H0a0,0,0,0,1,0,0V11.31A9,9,0,0,1,9,2.33Z"/><path class="cls-22" d="M3.23,104.87H51a3.23,3.23,0,0,1,3.23,3.23v1.23a0,0,0,0,1,0,0H0a0,0,0,0,1,0,0v-1.23A3.23,3.23,0,0,1,3.23,104.87Z"/><rect class="cls-14" x="32.58" width="15.32" height="5.68" rx="1.41"/><rect class="cls-5" x="5.54" y="29.87" width="43.16" height="2.38" rx="0.72"/><rect class="cls-23" x="5.54" y="34.7" width="43.16" height="2.38" rx="0.72"/><rect class="cls-5" x="5.54" y="39.53" width="43.16" height="2.38" rx="0.72"/><rect class="cls-23" x="5.54" y="44.35" width="43.16" height="2.38" rx="0.72"/><rect class="cls-5" x="5.54" y="49.18" width="43.16" height="2.38" rx="0.72"/><rect class="cls-5" x="5.54" y="54" width="43.16" height="2.38" rx="0.72"/><rect class="cls-23" x="5.54" y="58.83" width="43.16" height="2.38" rx="0.72"/><rect class="cls-23" x="5.54" y="63.66" width="43.16" height="2.38" rx="0.72"/><rect class="cls-5" x="5.54" y="68.48" width="43.16" height="2.38" rx="0.72"/><rect class="cls-5" x="5.54" y="73.31" width="43.16" height="2.38" rx="0.72"/><rect class="cls-23" x="5.54" y="78.14" width="43.16" height="2.38" rx="0.72"/><rect class="cls-5" x="5.54" y="82.96" width="43.16" height="2.38" rx="0.72"/><rect class="cls-5" x="5.54" y="87.79" width="43.16" height="2.38" rx="0.72"/><path class="cls-15" d="M69.72,2.33H106a9,9,0,0,1,9,9v98.08a0,0,0,0,1,0,0H60.73a0,0,0,0,1,0,0V11.31A9,9,0,0,1,69.72,2.33Z"/><rect class="cls-14" x="66.28" y="18.68" width="43.16" height="85.18" rx="6.79"/><path class="cls-22" d="M69.72,2.33H106a9,9,0,0,1,9,9v1.95a0,0,0,0,1,0,0H60.73a0,0,0,0,1,0,0V11.31A9,9,0,0,1,69.72,2.33Z"/><rect class="cls-14" x="93.32" width="15.32" height="5.68" rx="1.41"/><rect class="cls-5" x="66.28" y="29.87" width="43.16" height="2.38" rx="0.72"/><rect class="cls-23" x="66.28" y="34.7" width="43.16" height="2.38" rx="0.72"/><rect class="cls-5" x="66.28" y="39.53" width="43.16" height="2.38" rx="0.72"/><rect class="cls-23" x="66.28" y="44.35" width="43.16" height="2.38" rx="0.72"/><rect class="cls-5" x="66.28" y="49.18" width="43.16" height="2.38" rx="0.72"/><rect class="cls-5" x="66.28" y="54" width="43.16" height="2.38" rx="0.72"/><rect class="cls-23" x="66.28" y="58.83" width="43.16" height="2.38" rx="0.72"/><rect class="cls-23" x="66.28" y="63.66" width="43.16" height="2.38" rx="0.72"/><rect class="cls-5" x="66.28" y="68.48" width="43.16" height="2.38" rx="0.72"/><rect class="cls-5" x="66.28" y="73.31" width="43.16" height="2.38" rx="0.72"/><rect class="cls-23" x="66.28" y="78.14" width="43.16" height="2.38" rx="0.72"/><rect class="cls-5" x="66.28" y="82.96" width="43.16" height="2.38" rx="0.72"/><rect class="cls-5" x="66.28" y="87.79" width="43.16" height="2.38" rx="0.72"/><path class="cls-22" d="M64,104.87h47.8a3.23,3.23,0,0,1,3.23,3.23v1.23a0,0,0,0,1,0,0H60.73a0,0,0,0,1,0,0v-1.23A3.23,3.23,0,0,1,64,104.87Z"/></g></g></svg>