<svg xmlns="http://www.w3.org/2000/svg" viewBox="0 0 154.86 116.1"><defs><style>.cls-1{fill:#e67428;}.cls-2{fill:#f09a3c;}.cls-3{fill:#e6e4f3;}.cls-4{fill:#d9d8ee;}.cls-5{fill:#c6c5dd;}.cls-6{fill:#4a494a;}.cls-7{fill:#b7b7cd;}.cls-8{fill:#e84043;}.cls-9{fill:#d0d0d8;}.cls-10{fill:#99d6f0;}.cls-11{fill:#fbde63;}.cls-12{fill:#71b963;}.cls-13{fill:#112439;}.cls-14{fill:#162c3f;}.cls-15{fill:#379736;}.cls-16,.cls-30{fill:#fff;}.cls-17{fill:#f2928b;}.cls-18{fill:#f2ae9f;}.cls-19{fill:#8b143a;}.cls-20{fill:#8e4d21;}.cls-21{fill:#e78f26;}.cls-22{fill:#e27829;}.cls-23{fill:none;stroke:#080d13;}.cls-23,.cls-30{stroke-miterlimit:10;}.cls-24{fill:#080d13;}.cls-25{fill:#102030;}.cls-26{fill:#f4f4f4;}.cls-27{fill:#e58887;}.cls-28{fill:#e72662;}.cls-29{fill:#f1f2fa;}.cls-30{stroke:#fff;stroke-width:0.25px;}</style></defs><title>TipoRecurso 8</title><g id="Capa_2" data-name="Capa 2"><g id="Capa_5" data-name="Capa 5"><rect class="cls-1" x="99.59" width="54.14" height="58.5" rx="7.72"/><rect class="cls-2" x="103.82" y="5.52" width="45.68" height="47.16" rx="4.86"/><path class="cls-3" d="M15.75,2H48.18A15.75,15.75,0,0,1,63.93,17.73V109a0,0,0,0,1,0,0H0a0,0,0,0,1,0,0V17.73A15.75,15.75,0,0,1,15.75,2Z"/><path class="cls-3" d="M0,103.77H9.55a0,0,0,0,1,0,0v6.76a2.79,2.79,0,0,1-2.79,2.79h-4A2.79,2.79,0,0,1,0,110.53v-6.76A0,0,0,0,1,0,103.77Z"/><path class="cls-3" d="M54.39,103.77h9.55a0,0,0,0,1,0,0v6.76a2.79,2.79,0,0,1-2.79,2.79h-4a2.79,2.79,0,0,1-2.79-2.79v-6.76A0,0,0,0,1,54.39,103.77Z"/><path class="cls-3" d="M113.81,64.72h30a11,11,0,0,1,11,11v36.41a0,0,0,0,1,0,0H102.78a0,0,0,0,1,0,0V75.75A11,11,0,0,1,113.81,64.72Z"/><path class="cls-3" d="M102.78,109.85h7.78a0,0,0,0,1,0,0v2.59a1.65,1.65,0,0,1-1.65,1.65h-4.48a1.65,1.65,0,0,1-1.65-1.65v-2.59A0,0,0,0,1,102.78,109.85Z"/><path class="cls-3" d="M147.08,109.85h7.78a0,0,0,0,1,0,0v2.59a1.65,1.65,0,0,1-1.65,1.65h-4.48a1.65,1.65,0,0,1-1.65-1.65v-2.59A0,0,0,0,1,147.08,109.85Z"/><rect class="cls-4" x="7.91" y="15.6" width="48.11" height="17.82" rx="4.03"/><rect class="cls-4" x="7.91" y="36.35" width="48.11" height="17.82" rx="4.03"/><rect class="cls-4" x="7.91" y="57.1" width="48.11" height="17.82" rx="4.03"/><rect class="cls-4" x="7.93" y="77.85" width="48.11" height="17.82" rx="4.03"/><path class="cls-5" d="M7.91,29.25H56a0,0,0,0,1,0,0v0a4.17,4.17,0,0,1-4.17,4.17H12.08a4.17,4.17,0,0,1-4.17-4.17v0a0,0,0,0,1,0,0Z"/><path class="cls-5" d="M7.91,50H56a0,0,0,0,1,0,0v0a4.17,4.17,0,0,1-4.17,4.17H12.08A4.17,4.17,0,0,1,7.91,50v0a0,0,0,0,1,0,0Z"/><path class="cls-5" d="M7.91,70.75H56a0,0,0,0,1,0,0v0a4.17,4.17,0,0,1-4.17,4.17H12.08a4.17,4.17,0,0,1-4.17-4.17v0a0,0,0,0,1,0,0Z"/><path class="cls-5" d="M7.91,91.51H56a0,0,0,0,1,0,0v0a4.17,4.17,0,0,1-4.17,4.17H12.08a4.17,4.17,0,0,1-4.17-4.17v0a0,0,0,0,1,0,0Z"/><rect class="cls-4" x="110" y="73.31" width="37.65" height="13.95" rx="4.03"/><path class="cls-5" d="M110,84h37.65a0,0,0,0,1,0,0v.4a2.86,2.86,0,0,1-2.86,2.86H112.84A2.86,2.86,0,0,1,110,84.4V84A0,0,0,0,1,110,84Z"/><rect class="cls-4" x="110" y="90.16" width="37.65" height="13.95" rx="4.03"/><path class="cls-5" d="M110,100.85h37.65a0,0,0,0,1,0,0v.4a2.86,2.86,0,0,1-2.86,2.86H112.84a2.86,2.86,0,0,1-2.86-2.86v-.4A0,0,0,0,1,110,100.85Z"/><rect class="cls-6" x="10.55" y="40.53" width="42.84" height="2.95" rx="1.1"/><rect class="cls-6" x="10.55" y="23.38" width="42.84" height="2.95" rx="1.1"/><rect class="cls-6" x="10.55" y="18.48" width="42.84" height="2.95" rx="1.1"/><circle class="cls-7" cx="13.59" cy="42" r="1.08"/><circle class="cls-7" cx="16.08" cy="42" r="1.08"/><circle class="cls-7" cx="51.95" cy="41.11" r="0.39"/><circle class="cls-8" cx="13.41" cy="19.56" r="0.39"/><circle class="cls-8" cx="14.81" cy="20.53" r="0.39"/><circle class="cls-8" cx="16.13" cy="19.56" r="0.39"/><circle class="cls-8" cx="17.52" cy="20.53" r="0.39"/><circle class="cls-7" cx="14.99" cy="25.66" r="0.39"/><circle class="cls-7" cx="17.13" cy="25.66" r="0.39"/><circle class="cls-7" cx="19.46" cy="25.66" r="0.39"/><circle class="cls-7" cx="30.45" cy="25.66" r="0.39"/><circle class="cls-7" cx="32.6" cy="25.66" r="0.39"/><circle class="cls-7" cx="34.92" cy="25.66" r="0.39"/><circle class="cls-7" cx="42.16" cy="25.66" r="0.39"/><circle class="cls-7" cx="44.31" cy="25.66" r="0.39"/><circle class="cls-7" cx="46.63" cy="25.66" r="0.39"/><circle class="cls-8" cx="18.84" cy="19.56" r="0.39"/><circle class="cls-8" cx="20.24" cy="20.53" r="0.39"/><circle class="cls-8" cx="21.55" cy="19.56" r="0.39"/><circle class="cls-8" cx="22.95" cy="20.53" r="0.39"/><circle class="cls-8" cx="24.16" cy="19.56" r="0.39"/><circle class="cls-8" cx="25.56" cy="20.53" r="0.39"/><circle class="cls-8" cx="26.87" cy="19.56" r="0.39"/><circle class="cls-8" cx="28.27" cy="20.53" r="0.39"/><circle class="cls-8" cx="29.58" cy="19.56" r="0.39"/><circle class="cls-8" cx="30.98" cy="20.53" r="0.39"/><circle class="cls-8" cx="32.3" cy="19.56" r="0.39"/><circle class="cls-8" cx="33.7" cy="20.53" r="0.39"/><circle class="cls-8" cx="34.95" cy="19.56" r="0.39"/><circle class="cls-8" cx="36.34" cy="20.53" r="0.39"/><circle class="cls-8" cx="37.66" cy="19.56" r="0.39"/><circle class="cls-8" cx="39.06" cy="20.53" r="0.39"/><circle class="cls-8" cx="40.37" cy="19.56" r="0.39"/><circle class="cls-8" cx="41.77" cy="20.53" r="0.39"/><circle class="cls-8" cx="43.09" cy="19.56" r="0.39"/><circle class="cls-8" cx="44.48" cy="20.53" r="0.39"/><circle class="cls-8" cx="45.69" cy="19.56" r="0.39"/><circle class="cls-8" cx="47.09" cy="20.53" r="0.39"/><circle class="cls-8" cx="48.41" cy="19.56" r="0.39"/><circle class="cls-8" cx="49.8" cy="20.53" r="0.39"/><circle class="cls-8" cx="51.12" cy="19.56" r="0.39"/><circle class="cls-8" cx="52.52" cy="20.53" r="0.39"/><circle class="cls-9" cx="51.95" cy="42.21" r="0.24"/><circle class="cls-9" cx="51.95" cy="42.81" r="0.24"/><rect class="cls-9" x="18.7" y="42.66" width="3.15" height="0.82" rx="0.29"/><rect class="cls-6" x="10.55" y="45.43" width="42.84" height="2.95" rx="1.1"/><circle class="cls-7" cx="13.59" cy="46.9" r="1.08"/><circle class="cls-7" cx="16.08" cy="46.9" r="1.08"/><circle class="cls-7" cx="51.95" cy="46.01" r="0.39"/><circle class="cls-9" cx="51.95" cy="47.11" r="0.24"/><circle class="cls-9" cx="51.95" cy="47.71" r="0.24"/><rect class="cls-9" x="18.7" y="47.56" width="3.15" height="0.82" rx="0.29"/><rect class="cls-6" x="10.55" y="58.32" width="42.84" height="2.95" rx="1.1"/><circle class="cls-7" cx="13.59" cy="59.79" r="1.08"/><circle class="cls-7" cx="16.08" cy="59.79" r="1.08"/><circle class="cls-7" cx="51.95" cy="58.9" r="0.39"/><circle class="cls-9" cx="51.95" cy="60" r="0.24"/><circle class="cls-9" cx="51.95" cy="60.59" r="0.24"/><rect class="cls-9" x="18.7" y="60.45" width="3.15" height="0.82" rx="0.29"/><rect class="cls-6" x="10.55" y="62.28" width="42.84" height="2.95" rx="1.1"/><circle class="cls-7" cx="13.59" cy="63.76" r="1.08"/><circle class="cls-7" cx="16.08" cy="63.76" r="1.08"/><circle class="cls-7" cx="51.95" cy="62.86" r="0.39"/><circle class="cls-9" cx="51.95" cy="63.96" r="0.24"/><circle class="cls-9" cx="51.95" cy="64.56" r="0.24"/><rect class="cls-9" x="18.7" y="64.41" width="3.15" height="0.82" rx="0.29"/><rect class="cls-6" x="10.55" y="66.52" width="42.84" height="2.95" rx="1.1"/><circle class="cls-7" cx="13.59" cy="67.99" r="1.08"/><circle class="cls-7" cx="16.08" cy="67.99" r="1.08"/><circle class="cls-7" cx="51.95" cy="67.1" r="0.39"/><circle class="cls-9" cx="51.95" cy="68.2" r="0.24"/><circle class="cls-9" cx="51.95" cy="68.79" r="0.24"/><rect class="cls-9" x="18.7" y="68.65" width="3.15" height="0.82" rx="0.29"/><rect class="cls-10" x="13.02" y="24.07" width="2.71" height="0.78"/><rect class="cls-10" x="16.52" y="24.07" width="2.71" height="0.78"/><rect class="cls-10" x="19.85" y="24.07" width="2.71" height="0.78"/><rect class="cls-10" x="23.34" y="24.07" width="2.71" height="0.78"/><rect class="cls-10" x="28.82" y="24.07" width="2.71" height="0.78"/><rect class="cls-10" x="32.31" y="24.07" width="2.71" height="0.78"/><rect class="cls-10" x="35.64" y="24.07" width="2.71" height="0.78"/><rect class="cls-10" x="39.14" y="24.07" width="2.71" height="0.78"/><rect class="cls-11" x="44.91" y="24.07" width="2.71" height="0.78"/><rect class="cls-11" x="48.41" y="24.07" width="2.71" height="0.78"/><path class="cls-12" d="M18.6,78.21c.11,8.13,10.82,11.2,15.39,4.59.28-.4-.37-.78-.64-.38-4.17,6-13.9,3.08-14-4.21a.38.38,0,0,0-.75,0Z"/><path class="cls-12" d="M21.48,78.21c.13,7.86,11,9.77,15.39,4.13.29-.38-.36-.75-.65-.38-3.91,5.07-13.87,3.28-14-3.75a.38.38,0,0,0-.75,0Z"/><rect class="cls-7" x="27.88" y="79.14" width="22.85" height="6.62" rx="2.68"/><rect class="cls-10" x="31.31" y="80.89" width="4.72" height="3.12"/><rect class="cls-10" x="36.94" y="80.89" width="4.72" height="3.12"/><circle class="cls-6" cx="46.03" cy="81.37" r="1.08"/><circle class="cls-6" cx="46.03" cy="84" r="1.08"/><rect class="cls-13" x="75.32" y="90.16" width="9.18" height="25.94" rx="4.11"/><rect class="cls-14" x="80.42" y="90.16" width="9.18" height="25.94" rx="4.11"/><rect class="cls-13" x="68.8" y="89.4" width="25.5" height="5.07" rx="1.01"/><path class="cls-15" d="M80.06,66.31h2.81a12,12,0,0,1,12,12V89.81a0,0,0,0,1,0,0H68a0,0,0,0,1,0,0V78.35A12,12,0,0,1,80.06,66.31Z"/><path class="cls-16" d="M75.44,66.68H87.38a.28.28,0,0,1,.28.28v.59a4.76,4.76,0,0,1-4.76,4.76h-3a4.76,4.76,0,0,1-4.76-4.76V67A.28.28,0,0,1,75.44,66.68Z"/><rect class="cls-17" x="76.14" y="60.99" width="10.64" height="10.64" rx="4.76"/><path class="cls-17" d="M71,55.75h.23a1,1,0,0,1,1,1v.38a0,0,0,0,1,0,0H70a0,0,0,0,1,0,0v-.38A1,1,0,0,1,71,55.75Z"/><path class="cls-18" d="M81.46,39.26h0A10.7,10.7,0,0,0,70.77,50v5.66a10.9,10.9,0,0,0,.3,2.5H78a.35.35,0,0,1,.35.34v.73a4.23,4.23,0,0,1-4.17,4.23,10.66,10.66,0,0,0,7.3,2.9h0a10.7,10.7,0,0,0,10.7-10.7V50A10.7,10.7,0,0,0,81.46,39.26Z"/><path class="cls-19" d="M78.33,59.18v-.73a.35.35,0,0,0-.35-.34H74.47a1,1,0,0,1-1,1H71.37a10.62,10.62,0,0,0,2.79,4.31A4.23,4.23,0,0,0,78.33,59.18Z"/><path class="cls-16" d="M74.47,58.11h-3.4q.14.49.3,1h2.11A1,1,0,0,0,74.47,58.11Z"/><rect class="cls-13" x="71.53" y="51.73" width="2.65" height="3.82" rx="1.18"/><rect class="cls-20" x="79.19" y="48.12" width="1.95" height="6.25" rx="0.67"/><circle class="cls-20" cx="79.19" cy="50.41" r="1.45"/><circle class="cls-20" cx="81.48" cy="50.41" r="1.45"/><circle class="cls-20" cx="83.7" cy="50.41" r="1.45"/><circle class="cls-20" cx="85.83" cy="50.41" r="1.45"/><circle class="cls-20" cx="88.13" cy="50.41" r="1.45"/><circle class="cls-20" cx="90.46" cy="50.41" r="1.45"/><circle class="cls-20" cx="92.6" cy="50.41" r="1.45"/><rect class="cls-20" x="71.6" y="50.73" width="3.47" height="0.68" rx="0.3" transform="translate(12.29 -14.19) rotate(12.06)"/><path class="cls-21" d="M89.58,36.84v6a2.3,2.3,0,0,1-4.59,0V35a2.38,2.38,0,0,1,.14-.76,13,13,0,0,0-1.37-.34c0,.07,0,.13,0,.2V42a2.3,2.3,0,1,1-4.59,0V34.12a1.36,1.36,0,0,1,0-.2,11.35,11.35,0,0,0-1.42.36,2.26,2.26,0,0,1,.14.74v7.83a2.3,2.3,0,0,1-4.59,0v-6a12,12,0,0,0-3.86,8.81v2.59a1.31,1.31,0,0,0,1.31,1.31H92.18a1.31,1.31,0,0,0,1.31-1.31V45.7A12,12,0,0,0,89.58,36.84Z"/><path class="cls-21" d="M85,42.85c0,1.26,1,3,2.3,3s2.29-1.73,2.29-3v-6a12.16,12.16,0,0,0-4.45-2.58A2.38,2.38,0,0,0,85,35Z"/><path class="cls-21" d="M75.63,45.84c1.27,0,2.3-1.73,2.3-3V35a2.26,2.26,0,0,0-.14-.74,12,12,0,0,0-4.45,2.61v6C73.34,44.11,74.36,45.84,75.63,45.84Z"/><path class="cls-21" d="M79.19,42c0,1.27,1,3.18,2.29,3.18s2.3-1.91,2.3-3.18V34.12c0-.07,0-.13,0-.2a11.87,11.87,0,0,0-4.55,0,1.36,1.36,0,0,0,0,.2Z"/><rect class="cls-22" x="60.47" y="48.37" width="34.53" height="1.23" rx="0.55"/><rect class="cls-23" x="70.32" y="51.73" width="6.83" height="4.37" rx="1.38"/><rect class="cls-24" x="76.6" y="51.84" width="5.65" height="0.55" rx="0.25"/><path class="cls-18" d="M60,63.72h6.19a0,0,0,0,1,0,0V76.65a2.77,2.77,0,0,1-2.77,2.77h-.65A2.77,2.77,0,0,1,60,76.65V63.72a0,0,0,0,1,0,0Z" transform="translate(154.78 45.4) rotate(115.45)"/><path class="cls-25" d="M72.38,67.16H73A2.86,2.86,0,0,1,75.91,70V85.15a0,0,0,0,1,0,0H69.52a0,0,0,0,1,0,0V70A2.86,2.86,0,0,1,72.38,67.16Z" transform="translate(172.72 43.23) rotate(115.45)"/><rect class="cls-26" x="62.34" y="71.36" width="6.91" height="3.02" rx="0.88" transform="translate(159.87 44.78) rotate(115.45)"/><ellipse class="cls-17" cx="82.08" cy="53.64" rx="1.62" ry="2.75"/><ellipse class="cls-27" cx="81.56" cy="53.64" rx="0.64" ry="1.78"/><path class="cls-28" d="M72,60.64A3.86,3.86,0,0,1,75,60.22,3.79,3.79,0,0,1,77.25,62a4.27,4.27,0,0,1-1.81,1.2,4.33,4.33,0,0,1-1.28.22A10.62,10.62,0,0,1,73,62.14,10.36,10.36,0,0,1,72,60.64Z"/><path class="cls-22" d="M72.37,37.56a.35.35,0,0,0,.26.58c3,0,6,0,9,0h8.7a.35.35,0,0,0,.25-.59,12.76,12.76,0,0,0-5.78-3.38,13.1,13.1,0,0,0-8.74.79A12.37,12.37,0,0,0,72.37,37.56Z"/><path class="cls-22" d="M70.54,40.2a.56.56,0,0,1,.5-.3l9.13-.06H91.89a.57.57,0,0,1,.51.3,12.47,12.47,0,0,1,.61,1.4c.11.3.21.59.29.86a.58.58,0,0,1-.55.74l-12.19,0-10.38,0a.58.58,0,0,1-.56-.73,10.61,10.61,0,0,1,.35-1A12,12,0,0,1,70.54,40.2Z"/><rect class="cls-29" x="131.45" y="45.32" width="12.41" height="2.73" rx="1.36"/><rect class="cls-29" x="132.69" y="42.15" width="9.91" height="2.73" rx="1.36"/><rect class="cls-29" x="133.94" y="39.05" width="7.42" height="2.65" rx="1.32"/><rect class="cls-29" x="135.8" y="35.96" width="3.71" height="2.65" rx="1.32"/><rect class="cls-29" x="107.65" y="38.61" width="21.17" height="9.1" rx="2.54"/><circle class="cls-29" cx="110.41" cy="21.61" r="1.7"/><circle class="cls-29" cx="110.41" cy="26.31" r="1.7"/><circle class="cls-29" cx="110.41" cy="31.01" r="1.7"/><line class="cls-30" x1="115.21" y1="19.91" x2="144.62" y2="19.91"/><line class="cls-30" x1="115.21" y1="21.61" x2="144.62" y2="21.61"/><line class="cls-30" x1="115.21" y1="23.32" x2="144.62" y2="23.32"/><circle class="cls-29" cx="110.41" cy="16.5" r="1.7"/><line class="cls-30" x1="115.21" y1="14.79" x2="144.62" y2="14.79"/><line class="cls-30" x1="115.21" y1="16.5" x2="144.62" y2="16.5"/><line class="cls-30" x1="115.21" y1="18.2" x2="144.62" y2="18.2"/><circle class="cls-29" cx="110.41" cy="11.38" r="1.7"/><line class="cls-30" x1="115.21" y1="9.68" x2="144.62" y2="9.68"/><line class="cls-30" x1="115.21" y1="11.38" x2="144.62" y2="11.38"/><line class="cls-30" x1="115.21" y1="13.09" x2="144.62" y2="13.09"/><line class="cls-30" x1="115.21" y1="25.14" x2="144.62" y2="25.14"/><line class="cls-30" x1="115.21" y1="26.84" x2="144.62" y2="26.84"/><line class="cls-30" x1="115.21" y1="28.55" x2="144.62" y2="28.55"/><line class="cls-30" x1="115.21" y1="30.31" x2="144.62" y2="30.31"/><line class="cls-30" x1="115.21" y1="32.01" x2="144.62" y2="32.01"/><line class="cls-30" x1="115.21" y1="33.72" x2="144.62" y2="33.72"/></g></g></svg>