<svg xmlns="http://www.w3.org/2000/svg" viewBox="0 0 176.83 124.13"><defs><style>.cls-1{fill:#e6e4f3;}.cls-2{fill:#f1f2fa;}.cls-3{fill:#50519e;}.cls-4{fill:#405d6d;}.cls-5{fill:#d9d8ee;}.cls-6{fill:#ef8c1e;}.cls-7{fill:#f39d40;}.cls-8{fill:#fff;}.cls-9{fill:#f2928b;}.cls-10{fill:#e58887;}.cls-11{fill:#99d6f0;}.cls-12{fill:#112439;}.cls-13{fill:#f2ae9f;}.cls-14{fill:#8b143a;}.cls-15{fill:#e72662;}.cls-16{fill:#8e4d21;}.cls-17{fill:#e78f26;}.cls-18{fill:#e27829;}.cls-19{fill:none;stroke:#080d13;stroke-miterlimit:10;}.cls-20{fill:#080d13;}.cls-21{fill:#f4f4f4;}</style></defs><title>Tipoingdetalle_1</title><g id="Capa_2" data-name="Capa 2"><g id="Ingenieria_de_detalle" data-name="Ingenieria de detalle"><rect class="cls-1" y="1.13" width="106.56" height="106.56" rx="16.02"/><rect class="cls-2" x="4.94" y="6.07" width="96.68" height="96.68" rx="14.28"/><path class="cls-3" d="M18.93,6.07H87.62a14,14,0,0,1,14,14V21a0,0,0,0,1,0,0H4.94a0,0,0,0,1,0,0v-.89a14,14,0,0,1,14-14Z"/><path class="cls-4" d="M15.52,64.11h7.42a2.59,2.59,0,0,1,2.59,2.59v33a0,0,0,0,1,0,0H12.93a0,0,0,0,1,0,0v-33A2.59,2.59,0,0,1,15.52,64.11Z"/><path class="cls-4" d="M30.73,74.15h7.42a2.59,2.59,0,0,1,2.59,2.59v23a0,0,0,0,1,0,0H28.14a0,0,0,0,1,0,0v-23A2.59,2.59,0,0,1,30.73,74.15Z"/><path class="cls-4" d="M45.7,55.67h7.42a2.59,2.59,0,0,1,2.59,2.59V99.7a0,0,0,0,1,0,0H43.11a0,0,0,0,1,0,0V58.26A2.59,2.59,0,0,1,45.7,55.67Z"/><rect class="cls-1" x="60.72" y="61.9" width="31.62" height="31.62" rx="6.39"/><rect class="cls-5" x="64.07" y="65.25" width="24.91" height="24.91" rx="3.17"/><path class="cls-5" d="M80.9,26.72H72.15a6.14,6.14,0,0,0-5.3,3.06l-4.37,7.58a6.14,6.14,0,0,0,0,6.12l4.37,7.57a6.14,6.14,0,0,0,5.3,3.06H80.9a6.14,6.14,0,0,0,5.3-3.06l4.37-7.57a6.14,6.14,0,0,0,0-6.12L86.2,29.78A6.14,6.14,0,0,0,80.9,26.72Z"/><path class="cls-1" d="M81.45,28H71.6a3.92,3.92,0,0,0-3.39,2l-4.92,8.53a3.9,3.9,0,0,0,0,3.91l4.92,8.53a3.92,3.92,0,0,0,3.39,2h9.85a3.92,3.92,0,0,0,3.39-2l4.92-8.53a3.9,3.9,0,0,0,0-3.91l-4.92-8.53A3.92,3.92,0,0,0,81.45,28Z"/><path class="cls-2" d="M80.84,29H72.21A3.91,3.91,0,0,0,68.83,31l-4.32,7.47a4,4,0,0,0,0,3.91l4.32,7.47a3.91,3.91,0,0,0,3.38,1.95h8.63a3.91,3.91,0,0,0,3.38-1.95l4.32-7.47a4,4,0,0,0,0-3.91L84.22,31A3.91,3.91,0,0,0,80.84,29Z"/><rect class="cls-5" x="77.17" y="32.66" width="3.74" height="16.57" rx="1.71" transform="translate(105.98 125.78) rotate(-135)"/><rect class="cls-5" x="70.77" y="39.75" width="3.62" height="8.63" rx="1.71" transform="translate(-7.01 73.65) rotate(-51.65)"/><rect class="cls-6" x="35.61" y="68" width="1.17" height="5.2" rx="0.59" transform="translate(11.87 146.11) rotate(-135)"/><rect class="cls-6" x="33.6" y="70.22" width="1.14" height="2.71" rx="0.57" transform="translate(-43.17 53.97) rotate(-51.65)"/><rect class="cls-6" x="20.04" y="57.26" width="1.17" height="5.2" rx="0.59" transform="translate(-7.12 116.78) rotate(-135)"/><rect class="cls-6" x="18.03" y="59.49" width="1.14" height="2.71" rx="0.57" transform="translate(-40.66 37.68) rotate(-51.65)"/><rect class="cls-6" x="50.23" y="50.24" width="1.17" height="5.2" rx="0.59" transform="translate(49.38 126.14) rotate(-135)"/><rect class="cls-6" x="48.22" y="52.47" width="1.14" height="2.71" rx="0.57" transform="translate(-23.7 58.69) rotate(-51.65)"/><rect class="cls-2" x="66.71" y="82.61" width="19.63" height="4.32" rx="2.09"/><rect class="cls-2" x="68.68" y="77.59" width="15.69" height="4.32" rx="2.09"/><rect class="cls-2" x="70.65" y="72.69" width="11.74" height="4.19" rx="2.09"/><rect class="cls-2" x="73.59" y="67.8" width="5.87" height="4.19" rx="2.09"/><rect class="cls-6" x="10.68" y="26.72" width="47.52" height="23.04" rx="5.98"/><rect class="cls-7" x="12.93" y="29.04" width="42.77" height="18.22" rx="4.8"/><circle class="cls-8" cx="90.29" cy="14.68" r="2.27"/><circle class="cls-8" cx="84.37" cy="14.68" r="2.27"/><circle class="cls-8" cx="78.79" cy="14.68" r="2.27"/><circle class="cls-9" cx="118.16" cy="38.98" r="5.38"/><circle class="cls-10" cx="118.16" cy="38.98" r="3.47"/><circle class="cls-9" cx="159.96" cy="38.98" r="5.38"/><path class="cls-11" d="M136.34,63.9h5.44a23.56,23.56,0,0,1,23.56,23.56v22.38a0,0,0,0,1,0,0H112.79a0,0,0,0,1,0,0V87.46A23.56,23.56,0,0,1,136.34,63.9Z"/><path class="cls-12" d="M128.19,64.93h.47a0,0,0,0,1,0,0v43.93a1.38,1.38,0,0,1-1.38,1.38H113.7a1.38,1.38,0,0,1-1.38-1.38V80.81A15.88,15.88,0,0,1,128.19,64.93Z"/><path class="cls-12" d="M150.84,64.93h13.47a1.38,1.38,0,0,1,1.38,1.38v43.93a0,0,0,0,1,0,0h-.35a15.88,15.88,0,0,1-15.88-15.88V66.31a1.38,1.38,0,0,1,1.38-1.38Z" transform="translate(315.16 175.17) rotate(-180)"/><path class="cls-8" d="M127.22,65.38h23.47a.47.47,0,0,1,.47.47v1.92a8.06,8.06,0,0,1-8.06,8.06h-8.28a8.06,8.06,0,0,1-8.06-8.06V65.85A.47.47,0,0,1,127.22,65.38Z"/><path class="cls-8" d="M151.53,75.12a7,7,0,0,1-2,1.9,5.61,5.61,0,0,1-1.86.65,1.25,1.25,0,0,1-1.38-1.31V65.22a1.27,1.27,0,0,1,1.22-1.32h3.12a1.22,1.22,0,0,1,1.16.89C153.08,69.21,152.92,73.16,151.53,75.12Z"/><path class="cls-8" d="M126.7,75.12a7.15,7.15,0,0,0,2,1.9,5.52,5.52,0,0,0,2.14.69,1,1,0,0,0,1.1-1V64.91a1,1,0,0,0-1-1h-3.47a1,1,0,0,0-1,.7C125.14,69.09,125.28,73.13,126.7,75.12Z"/><circle class="cls-10" cx="159.96" cy="38.98" r="3.47"/><rect class="cls-9" x="128.66" y="53.5" width="20.8" height="20.8" rx="8.39"/><rect class="cls-13" x="118.16" y="11.04" width="41.8" height="52.86" rx="19.01"/><rect class="cls-12" x="128.66" y="35.25" width="5.17" height="7.46" rx="2.59"/><rect class="cls-12" x="144.29" y="35.25" width="5.17" height="7.46" rx="2.59"/><path class="cls-9" d="M139.06,43h0a2.18,2.18,0,0,1,2.18,2.18v.56a0,0,0,0,1,0,0h-4.37a0,0,0,0,1,0,0v-.56A2.18,2.18,0,0,1,139.06,43Z"/><path class="cls-14" d="M139.06,47.82h0a8.27,8.27,0,0,1,8.27,8.27v1.43a.67.67,0,0,1-.67.67h-15.2a.67.67,0,0,1-.67-.67V56.09a8.27,8.27,0,0,1,8.27-8.27Z" transform="translate(278.13 106.02) rotate(180)"/><path class="cls-15" d="M137.44,53.26c-2-.13-2.72-1.64-3.92-1.24-.51.16-1.11.66-1.55,2.15a8,8,0,0,0,2.65,2.77,9,9,0,0,0,7.16.8,3.73,3.73,0,0,0,.71-2.93,3,3,0,0,0-1.31-2C140,52.21,139.29,53.39,137.44,53.26Z"/><path class="cls-8" d="M134.09,47.82H144a0,0,0,0,1,0,0v.76a1.17,1.17,0,0,1-1.17,1.17h-7.6a1.17,1.17,0,0,1-1.17-1.17v-.76A0,0,0,0,1,134.09,47.82Z"/><circle class="cls-12" cx="138.92" cy="82.29" r="1.11"/><circle class="cls-12" cx="138.92" cy="87.48" r="1.11"/><circle class="cls-12" cx="138.92" cy="92.68" r="1.11"/><circle class="cls-12" cx="138.92" cy="97.87" r="1.11"/><circle class="cls-12" cx="138.92" cy="103.07" r="1.11"/><rect class="cls-16" x="118.02" y="28.2" width="2.29" height="12.22" rx="1.15"/><rect class="cls-16" x="157.67" y="28.2" width="2.29" height="12.22" rx="1.15"/><circle class="cls-16" cx="117.53" cy="32.67" r="2.84"/><circle class="cls-16" cx="160.51" cy="32.67" r="2.84"/><rect class="cls-16" x="127.86" y="33.28" width="6.78" height="1.32" rx="0.66"/><rect class="cls-16" x="143.49" y="33.28" width="6.78" height="1.32" rx="0.66"/><path class="cls-17" d="M154.75,6.15V17.88a4.49,4.49,0,0,1-9,0V2.57a4.45,4.45,0,0,1,.27-1.46,22.06,22.06,0,0,0-2.69-.68,2.57,2.57,0,0,1,0,.4v15.3a4.49,4.49,0,1,1-9,0V.83a2.58,2.58,0,0,1,0-.4,22.91,22.91,0,0,0-2.77.7A4.37,4.37,0,0,1,132,2.57V17.88a4.49,4.49,0,0,1-9,0V6.23a23.43,23.43,0,0,0-7.54,17.23v5.05A2.56,2.56,0,0,0,118,31.07h41.8a2.56,2.56,0,0,0,2.56-2.56V23.46A23.4,23.4,0,0,0,154.75,6.15Z"/><path class="cls-18" d="M145.78,17.88c0,2.48,2,5.84,4.49,5.84s4.48-3.36,4.48-5.84V6.15a23.41,23.41,0,0,0-8.7-5,4.45,4.45,0,0,0-.27,1.46Z"/><path class="cls-18" d="M127.49,23.72c2.47,0,4.48-3.36,4.48-5.84V2.57a4.37,4.37,0,0,0-.26-1.44A23.5,23.5,0,0,0,123,6.23V17.88C123,20.36,125,23.72,127.49,23.72Z"/><path class="cls-18" d="M134.44,16.13c0,2.48,2,6.22,4.48,6.22s4.49-3.74,4.49-6.22V.83a2.57,2.57,0,0,0,0-.4,23.14,23.14,0,0,0-8.88,0,2.58,2.58,0,0,0,0,.4Z"/><rect class="cls-18" x="112.43" y="28.67" width="52.91" height="2.4" rx="1.2"/><rect class="cls-19" x="140.91" y="35.25" width="13.34" height="8.54" rx="1.38"/><rect class="cls-19" x="123.87" y="35.25" width="13.25" height="8.54" rx="1.38"/><rect class="cls-20" x="137.12" y="35.51" width="3.79" height="1.55"/><rect class="cls-20" x="120.29" y="35.45" width="3.58" height="1.07"/><rect class="cls-20" x="154.25" y="35.45" width="3.42" height="1.07"/><path class="cls-13" d="M85.09,76H97.44a0,0,0,0,1,0,0V101.5a5.2,5.2,0,0,1-5.2,5.2h-2a5.2,5.2,0,0,1-5.2-5.2V76a0,0,0,0,1,0,0Z" transform="translate(124.75 -33.36) rotate(60)"/><path class="cls-12" d="M109,63.42h.74a5.88,5.88,0,0,1,5.88,5.88V98.58a0,0,0,0,1,0,0H103.15a0,0,0,0,1,0,0V69.3A5.88,5.88,0,0,1,109,63.42Z" transform="translate(124.85 -54.24) rotate(60)"/><rect class="cls-21" x="89.7" y="85.54" width="13.51" height="5.91" rx="0.88" transform="translate(124.87 -39.28) rotate(60)"/><path class="cls-13" d="M161.7,93.58H174a0,0,0,0,1,0,0v25.48a5.2,5.2,0,0,1-5.2,5.2h-2a5.2,5.2,0,0,1-5.2-5.2V93.58a0,0,0,0,1,0,0Z" transform="matrix(0.96, -0.28, 0.28, 0.96, -23.67, 51)"/><path class="cls-12" d="M161.79,71.25h.74a5.88,5.88,0,0,1,5.88,5.88v29.28a0,0,0,0,1,0,0H155.91a0,0,0,0,1,0,0V77.13a5.88,5.88,0,0,1,5.88-5.88Z" transform="translate(-18.31 48.62) rotate(-16.15)"/><rect class="cls-21" x="159.58" y="100.24" width="13.51" height="5.91" rx="0.88" transform="translate(-22.14 50.35) rotate(-16.15)"/></g></g></svg>