<svg xmlns="http://www.w3.org/2000/svg" viewBox="0 0 243.01 109.87"><defs><style>.cls-1{fill:#71b963;}.cls-2{fill:#d9d8ee;}.cls-3{fill:#e6e4f3;}.cls-4{fill:#dadaef;}.cls-5{fill:#112439;}.cls-6{fill:#c6c5dd;}.cls-7{fill:#f2ae9f;}.cls-8{fill:#f4f4f4;}.cls-9{fill:#f2928b;}.cls-10{fill:#e58887;}.cls-11{fill:#99d6f0;}.cls-12{fill:#fff;}.cls-13{fill:#8b143a;}.cls-14{fill:#e72662;}.cls-15{fill:#8e4d21;}.cls-16{fill:#e78f26;}.cls-17{fill:#e27829;}.cls-18{fill:#a55924;}.cls-19{fill:#9a5120;}.cls-20{fill:#cd773d;}.cls-21{fill:#080e15;}.cls-22{fill:#ec8e83;}.cls-23{fill:#405d6d;}.cls-24{fill:#324b56;}.cls-25{fill:#b66229;}.cls-26{fill:#fcd73f;}</style></defs><title>TipoInstalacion</title><g id="Capa_2" data-name="Capa 2"><g id="Capa_7" data-name="Capa 7"><path class="cls-1" d="M41,32a310.19,310.19,0,0,0,168.46-.49.38.38,0,0,0-.2-.73,309.32,309.32,0,0,1-168.06.5A.37.37,0,0,0,41,32Z"/><path class="cls-1" d="M40.37,21.24a310.1,310.1,0,0,0,168.46-.5.37.37,0,0,0-.2-.72,309.42,309.42,0,0,1-168.06.5.37.37,0,0,0-.2.72Z"/><path class="cls-1" d="M40.37,26a310.19,310.19,0,0,0,168.46-.5.37.37,0,0,0-.2-.72,309.32,309.32,0,0,1-168.06.49.38.38,0,0,0-.2.73Z"/><rect class="cls-2" x="34" y="8.27" width="3.33" height="9.46" rx="0.92"/><circle class="cls-2" cx="35.66" cy="9.36" r="2.41"/><path class="cls-3" d="M50.25,109.87H21.07a8,8,0,0,1-7.92-9.47L25.82,29.85a8.05,8.05,0,0,1,7.92-6.62h3.09a8,8,0,0,1,7.91,6.54l13.42,70.55A8,8,0,0,1,50.25,109.87Z"/><path class="cls-4" d="M51.16,100.84h-31a4.36,4.36,0,0,1-4.29-5.14L27.61,30.35a4.35,4.35,0,0,1,4.29-3.59h6.83A4.36,4.36,0,0,1,43,30.31L55.45,95.66A4.37,4.37,0,0,1,51.16,100.84Z"/><rect class="cls-5" x="37" y="28.21" width="0.84" height="30.63" rx="0.23" transform="translate(-19.82 39.21) rotate(-45)"/><rect class="cls-5" x="32.5" y="28.18" width="0.84" height="30.68" rx="0.23" transform="translate(25.42 97.57) rotate(-135)"/><rect class="cls-5" x="38.72" y="54.25" width="1.36" height="49.72" rx="0.33" transform="translate(-44.4 51.03) rotate(-45)"/><rect class="cls-5" x="31.42" y="54.19" width="1.36" height="49.8" rx="0.33" transform="translate(-1.13 157.72) rotate(-135)"/><rect class="cls-6" y="96.02" width="72.34" height="13.85" rx="3.82"/><rect class="cls-6" x="23.41" y="16.3" width="24.38" height="13.85" rx="3.08"/><path class="cls-5" d="M31.66,2.46A6.21,6.21,0,0,0,31.45,13c.4.26.78-.38.37-.65A5.46,5.46,0,0,1,32,3.11c.41-.26,0-.91-.37-.65Z"/><path class="cls-5" d="M28,.69a9,9,0,0,0,.82,14.08c.39.28.76-.37.37-.65a8.31,8.31,0,0,1-.66-12.9C28.93.89,28.4.37,28,.69Z"/><path class="cls-5" d="M39.26,3.42a5.46,5.46,0,0,1,.21,9.27c-.41.26,0,.91.37.65a6.21,6.21,0,0,0-.2-10.57c-.41-.26-.79.39-.38.65Z"/><path class="cls-5" d="M42.93,1.26a8.32,8.32,0,0,1-.66,12.91c-.39.28,0,.93.38.65A9.06,9.06,0,0,0,43.46.73c-.36-.32-.89.21-.53.53Z"/><rect class="cls-2" x="204.67" y="7.68" width="3.33" height="9.46" rx="0.92"/><circle class="cls-2" cx="206.34" cy="8.77" r="2.41"/><path class="cls-3" d="M220.93,109.28H191.74a8,8,0,0,1-7.92-9.47L196.5,29.26a8,8,0,0,1,7.92-6.62h3.09a8,8,0,0,1,7.9,6.54l13.43,70.55A8,8,0,0,1,220.93,109.28Z"/><path class="cls-4" d="M221.84,100.25h-31a4.37,4.37,0,0,1-4.3-5.13l11.74-65.35a4.36,4.36,0,0,1,4.3-3.59h6.83a4.35,4.35,0,0,1,4.28,3.54l12.43,65.35A4.36,4.36,0,0,1,221.84,100.25Z"/><rect class="cls-5" x="207.68" y="27.63" width="0.84" height="30.63" rx="0.23" transform="translate(30.59 159.72) rotate(-45)"/><rect class="cls-5" x="203.18" y="27.59" width="0.84" height="30.68" rx="0.23" transform="translate(317.2 217.25) rotate(-135)"/><rect class="cls-5" x="209.4" y="53.66" width="1.36" height="49.72" rx="0.33" transform="translate(6.01 171.55) rotate(-45)"/><rect class="cls-5" x="202.09" y="53.61" width="1.36" height="49.8" rx="0.33" transform="translate(290.64 277.4) rotate(-135)"/><rect class="cls-6" x="170.68" y="95.44" width="72.34" height="13.85" rx="3.82"/><rect class="cls-6" x="194.08" y="15.72" width="24.38" height="13.85" rx="3.08"/><path class="cls-5" d="M202.33,1.87a6.22,6.22,0,0,0-.21,10.58c.41.26.78-.39.38-.65a5.46,5.46,0,0,1,.21-9.28c.41-.25,0-.9-.38-.65Z"/><path class="cls-5" d="M198.72.1a9.06,9.06,0,0,0,.81,14.09c.39.28.77-.37.38-.65A8.31,8.31,0,0,1,199.25.63c.36-.32-.17-.85-.53-.53Z"/><path class="cls-5" d="M209.93,2.83a5.46,5.46,0,0,1,.21,9.28c-.4.26,0,.91.38.64a6.21,6.21,0,0,0-.21-10.57c-.41-.26-.79.39-.38.65Z"/><path class="cls-5" d="M213.39.94a8.32,8.32,0,0,1-.66,12.91c-.39.27,0,.92.38.64A9,9,0,0,0,213.92.41c-.36-.32-.89.21-.53.53Z"/><path class="cls-7" d="M68.43,76.87h1.95a1.2,1.2,0,0,1,1.2,1.2v9.59a0,0,0,0,1,0,0H67.23a0,0,0,0,1,0,0V78.07a1.2,1.2,0,0,1,1.2-1.2Z" transform="translate(91.79 187.55) rotate(-151.85)"/><path class="cls-5" d="M70.64,69.59H75a0,0,0,0,1,0,0V80.75A1.21,1.21,0,0,1,73.82,82h-2a1.21,1.21,0,0,1-1.21-1.21V69.59A0,0,0,0,1,70.64,69.59Z" transform="translate(101.31 176.95) rotate(-151.85)"/><rect class="cls-8" x="67.97" y="79.37" width="4.75" height="2.08" rx="0.57" transform="translate(94.44 184.51) rotate(-151.85)"/><path class="cls-7" d="M94.79,76.94h4.34a0,0,0,0,1,0,0v9.59a1.2,1.2,0,0,1-1.2,1.2H96a1.2,1.2,0,0,1-1.2-1.2V76.94A0,0,0,0,1,94.79,76.94Z" transform="translate(-27.37 55.48) rotate(-28.15)"/><path class="cls-5" d="M92.54,69.66h2a1.21,1.21,0,0,1,1.21,1.21V82a0,0,0,0,1,0,0h-4.4a0,0,0,0,1,0,0V70.87a1.21,1.21,0,0,1,1.21-1.21Z" transform="translate(-24.72 53.09) rotate(-28.15)"/><rect class="cls-8" x="93.64" y="79.44" width="4.75" height="2.08" rx="0.57" transform="translate(-26.61 54.81) rotate(-28.15)"/><circle class="cls-9" cx="74.57" cy="56.15" r="2.36"/><circle class="cls-10" cx="74.57" cy="56.15" r="1.52"/><circle class="cls-9" cx="92.9" cy="56.15" r="2.36"/><path class="cls-11" d="M78.56,67.08H88.91a6.35,6.35,0,0,1,6.35,6.35V87.22a0,0,0,0,1,0,0H72.21a0,0,0,0,1,0,0V73.43a6.35,6.35,0,0,1,6.35-6.35Z"/><path class="cls-5" d="M76,67.53h3.22a0,0,0,0,1,0,0V86a1.38,1.38,0,0,1-1.38,1.38H73.38A1.38,1.38,0,0,1,72,86V71.48A4,4,0,0,1,76,67.53Z"/><path class="cls-5" d="M89.68,67.53H94a1.38,1.38,0,0,1,1.38,1.38V87.4a0,0,0,0,1,0,0H92.22a3.92,3.92,0,0,1-3.92-3.92V68.91a1.38,1.38,0,0,1,1.38-1.38Z" transform="translate(183.71 154.93) rotate(180)"/><path class="cls-12" d="M78.47,67.73H88.9a.14.14,0,0,1,.14.14v2.06a2.39,2.39,0,0,1-2.39,2.39H80.73a2.39,2.39,0,0,1-2.39-2.39V67.87A.14.14,0,0,1,78.47,67.73Z"/><path class="cls-12" d="M89.2,72a3.06,3.06,0,0,1-.89.83,2.34,2.34,0,0,1-.81.29.55.55,0,0,1-.61-.58V67.65a.56.56,0,0,1,.53-.57h1.37a.53.53,0,0,1,.51.39C89.88,69.41,89.81,71.14,89.2,72Z"/><path class="cls-12" d="M78.31,72a3.06,3.06,0,0,0,.89.83,2.48,2.48,0,0,0,.94.3.44.44,0,0,0,.48-.44V67.52a.44.44,0,0,0-.44-.44H78.66a.43.43,0,0,0-.42.31C77.63,69.36,77.69,71.13,78.31,72Z"/><circle class="cls-10" cx="92.9" cy="56.15" r="1.52"/><rect class="cls-9" x="79.17" y="62.52" width="9.12" height="9.12" rx="2.51"/><rect class="cls-7" x="74.57" y="43.89" width="18.33" height="23.18" rx="5.05"/><rect class="cls-5" x="79.17" y="54.51" width="2.27" height="3.27" rx="0.63"/><rect class="cls-5" x="86.03" y="54.51" width="2.27" height="3.27" rx="0.63"/><path class="cls-9" d="M83.3,57.91h.86a.53.53,0,0,1,.53.53v.67a0,0,0,0,1,0,0H82.78a0,0,0,0,1,0,0v-.67A.53.53,0,0,1,83.3,57.91Z"/><path class="cls-13" d="M82.11,60h3.25a2,2,0,0,1,2,2v2.39a.16.16,0,0,1-.16.16H80.27a.16.16,0,0,1-.16-.16V62a2,2,0,0,1,2-2Z" transform="translate(167.47 124.6) rotate(180)"/><path class="cls-14" d="M83,62.41c-.88-.06-1.19-.72-1.72-.54-.22.07-.48.29-.68.94A3.42,3.42,0,0,0,81.79,64a4,4,0,0,0,3.14.36,1.68,1.68,0,0,0,.31-1.29,1.34,1.34,0,0,0-.58-.89C84.15,62,83.83,62.47,83,62.41Z"/><path class="cls-12" d="M81.55,60h4.36a0,0,0,0,1,0,0v.38a.47.47,0,0,1-.47.47H82a.47.47,0,0,1-.47-.47V60a0,0,0,0,1,0,0Z"/><circle class="cls-5" cx="83.67" cy="75.14" r="0.49"/><circle class="cls-5" cx="83.67" cy="77.42" r="0.49"/><circle class="cls-5" cx="83.67" cy="79.7" r="0.49"/><circle class="cls-5" cx="83.67" cy="81.98" r="0.49"/><circle class="cls-5" cx="83.67" cy="84.26" r="0.49"/><rect class="cls-15" x="74.51" y="51.42" width="1" height="5.36" rx="0.28"/><rect class="cls-15" x="91.9" y="51.42" width="1" height="5.36" rx="0.28"/><circle class="cls-15" cx="74.29" cy="53.38" r="1.25"/><circle class="cls-15" cx="93.14" cy="53.38" r="1.25"/><rect class="cls-15" x="78.82" y="53.65" width="2.97" height="0.58" rx="0.16"/><rect class="cls-15" x="85.68" y="53.65" width="2.97" height="0.58" rx="0.16"/><path class="cls-16" d="M90.62,41.75v5.14a2,2,0,1,1-3.94,0V40.18a1.91,1.91,0,0,1,.12-.64,11.32,11.32,0,0,0-1.18-.3,1,1,0,0,1,0,.18v6.71a2,2,0,0,1-3.93,0V39.42c0-.07,0-.12,0-.18a9.75,9.75,0,0,0-1.21.31,1.9,1.9,0,0,1,.11.63v6.71a2,2,0,1,1-3.93,0v-5.1a10.26,10.26,0,0,0-3.31,7.55v2.22a1.13,1.13,0,0,0,1.13,1.12H92.84A1.12,1.12,0,0,0,94,51.56V49.34A10.27,10.27,0,0,0,90.62,41.75Z"/><path class="cls-17" d="M86.68,46.89c0,1.09.88,2.57,2,2.57s2-1.48,2-2.57V41.75a10.3,10.3,0,0,0-3.82-2.21,1.91,1.91,0,0,0-.12.64Z"/><path class="cls-17" d="M78.66,49.46c1.08,0,2-1.48,2-2.57V40.18a1.9,1.9,0,0,0-.11-.63,10.08,10.08,0,0,0-3.82,2.24v5.1C76.69,48,77.57,49.46,78.66,49.46Z"/><path class="cls-17" d="M81.71,46.13c0,1.08.88,2.72,2,2.72s2-1.64,2-2.72V39.42a1,1,0,0,0,0-.18,10.1,10.1,0,0,0-3.9,0c0,.06,0,.11,0,.18Z"/><rect class="cls-17" x="72.05" y="51.63" width="23.21" height="1.05" rx="0.29"/><rect class="cls-5" x="71.44" y="86.52" width="24.58" height="4.67" rx="1.29"/><rect class="cls-5" x="75.01" y="88.86" width="7.35" height="20.93" rx="1.11"/><rect class="cls-5" x="84.62" y="88.86" width="7.35" height="20.93" rx="1.11"/><path class="cls-7" d="M143.81,76.86h1.95a1.2,1.2,0,0,1,1.2,1.2v9.59a0,0,0,0,1,0,0h-4.34a0,0,0,0,1,0,0V78.06a1.2,1.2,0,0,1,1.2-1.2Z" transform="translate(233.64 223.08) rotate(-151.85)"/><path class="cls-5" d="M146,69.58h4.4a0,0,0,0,1,0,0V80.73a1.21,1.21,0,0,1-1.21,1.21h-2A1.21,1.21,0,0,1,146,80.73V69.58a0,0,0,0,1,0,0Z" transform="translate(243.16 212.48) rotate(-151.85)"/><rect class="cls-8" x="143.35" y="79.36" width="4.75" height="2.08" rx="0.57" transform="translate(236.29 220.04) rotate(-151.85)"/><path class="cls-7" d="M170.17,76.92h4.34a0,0,0,0,1,0,0v9.59a1.2,1.2,0,0,1-1.2,1.2h-1.95a1.2,1.2,0,0,1-1.2-1.2V76.92A0,0,0,0,1,170.17,76.92Z" transform="translate(-18.45 91.04) rotate(-28.15)"/><path class="cls-5" d="M167.92,69.64h2a1.21,1.21,0,0,1,1.21,1.21V82a0,0,0,0,1,0,0h-4.4a0,0,0,0,1,0,0V70.85A1.21,1.21,0,0,1,167.92,69.64Z" transform="translate(-15.79 88.65) rotate(-28.15)"/><rect class="cls-8" x="169.02" y="79.42" width="4.75" height="2.08" rx="0.57" transform="translate(-17.69 90.37) rotate(-28.15)"/><circle class="cls-18" cx="149.35" cy="56.16" r="2.36"/><circle class="cls-19" cx="149.35" cy="56.16" r="1.52"/><circle class="cls-18" cx="167.68" cy="56.16" r="2.36"/><path class="cls-11" d="M153.34,67.09h10.34A6.35,6.35,0,0,1,170,73.45V87.24a0,0,0,0,1,0,0H147a0,0,0,0,1,0,0V73.45A6.35,6.35,0,0,1,153.34,67.09Z"/><path class="cls-5" d="M150.73,67.55H154a0,0,0,0,1,0,0V86a1.38,1.38,0,0,1-1.38,1.38h-4.41A1.38,1.38,0,0,1,146.78,86V71.5A4,4,0,0,1,150.73,67.55Z"/><path class="cls-5" d="M164.45,67.55h4.36a1.38,1.38,0,0,1,1.38,1.38V87.42a0,0,0,0,1,0,0H167a3.92,3.92,0,0,1-3.92-3.92V68.93A1.38,1.38,0,0,1,164.45,67.55Z" transform="translate(333.27 154.96) rotate(180)"/><path class="cls-12" d="M153.25,67.74h10.43a.14.14,0,0,1,.14.14v2.06a2.39,2.39,0,0,1-2.39,2.39H155.5a2.39,2.39,0,0,1-2.39-2.39V67.88A.14.14,0,0,1,153.25,67.74Z"/><path class="cls-12" d="M164,72a3.06,3.06,0,0,1-.89.83,2.53,2.53,0,0,1-.81.28.55.55,0,0,1-.61-.57V67.67a.56.56,0,0,1,.53-.58h1.37a.54.54,0,0,1,.51.39C164.66,69.42,164.59,71.15,164,72Z"/><path class="cls-12" d="M153.09,72a3.19,3.19,0,0,0,.89.84,2.48,2.48,0,0,0,.94.3.44.44,0,0,0,.48-.44V67.54a.45.45,0,0,0-.44-.45h-1.52a.46.46,0,0,0-.43.31C152.41,69.37,152.47,71.14,153.09,72Z"/><circle class="cls-19" cx="167.68" cy="56.16" r="1.52"/><rect class="cls-18" x="153.95" y="62.53" width="9.12" height="9.12" rx="2.51"/><rect class="cls-20" x="149.35" y="43.91" width="18.33" height="23.18" rx="5.05"/><rect class="cls-21" x="153.95" y="54.53" width="2.27" height="3.27" rx="0.63"/><rect class="cls-21" x="160.81" y="54.53" width="2.27" height="3.27" rx="0.63"/><path class="cls-22" d="M158.08,57.92h.86a.53.53,0,0,1,.53.53v.67a0,0,0,0,1,0,0h-1.92a0,0,0,0,1,0,0v-.67a.53.53,0,0,1,.53-.53Z"/><path class="cls-13" d="M156.89,60h3.25a2,2,0,0,1,2,2v2.39a.16.16,0,0,1-.16.16H155a.16.16,0,0,1-.16-.16V62A2,2,0,0,1,156.89,60Z" transform="translate(317.03 124.64) rotate(180)"/><path class="cls-14" d="M157.8,62.43c-.88-.06-1.19-.72-1.72-.55-.22.07-.49.29-.68.95A3.59,3.59,0,0,0,156.57,64a3.87,3.87,0,0,0,3.13.35,1.57,1.57,0,0,0,.31-1.28,1.28,1.28,0,0,0-.57-.89C158.93,62,158.61,62.48,157.8,62.43Z"/><path class="cls-12" d="M156.33,60h4.36a0,0,0,0,1,0,0v.38a.47.47,0,0,1-.47.47H156.8a.47.47,0,0,1-.47-.47V60A0,0,0,0,1,156.33,60Z"/><circle class="cls-5" cx="158.45" cy="75.16" r="0.49"/><circle class="cls-5" cx="158.45" cy="77.44" r="0.49"/><circle class="cls-5" cx="158.45" cy="79.71" r="0.49"/><circle class="cls-5" cx="158.45" cy="81.99" r="0.49"/><circle class="cls-5" cx="158.45" cy="84.27" r="0.49"/><rect class="cls-5" x="149.28" y="51.43" width="1" height="5.36" rx="0.28"/><rect class="cls-5" x="166.68" y="51.43" width="1" height="5.36" rx="0.28"/><circle class="cls-5" cx="149.07" cy="53.4" r="1.25"/><circle class="cls-5" cx="150.87" cy="52.15" r="1.25"/><circle class="cls-5" cx="153.11" cy="52.07" r="1.25"/><circle class="cls-5" cx="155.24" cy="52.07" r="1.25"/><circle class="cls-5" cx="157.47" cy="52.07" r="1.25"/><circle class="cls-5" cx="159.71" cy="52.15" r="1.25"/><circle class="cls-5" cx="162.05" cy="52.07" r="1.25"/><circle class="cls-5" cx="164.3" cy="52.15" r="1.25"/><circle class="cls-5" cx="166.57" cy="52.15" r="1.25"/><circle class="cls-5" cx="167.92" cy="53.4" r="1.25"/><rect class="cls-5" x="153.6" y="53.67" width="2.97" height="0.58" rx="0.16"/><rect class="cls-5" x="160.45" y="53.67" width="2.97" height="0.58" rx="0.16"/><path class="cls-16" d="M165.39,41.76v5.15a2,2,0,1,1-3.93,0V40.2a2,2,0,0,1,.12-.65,12,12,0,0,0-1.18-.3,1.1,1.1,0,0,1,0,.18v6.71a2,2,0,0,1-3.94,0V39.43c0-.06,0-.12,0-.18a11.91,11.91,0,0,0-1.21.31,1.91,1.91,0,0,1,.11.64v6.71a2,2,0,1,1-3.93,0V41.8a10.28,10.28,0,0,0-3.31,7.56v2.21a1.12,1.12,0,0,0,1.12,1.12h18.34a1.12,1.12,0,0,0,1.12-1.12V49.36A10.28,10.28,0,0,0,165.39,41.76Z"/><path class="cls-17" d="M161.46,46.91c0,1.09.88,2.56,2,2.56s2-1.47,2-2.56V41.76a10.32,10.32,0,0,0-3.81-2.21,2,2,0,0,0-.12.65Z"/><path class="cls-17" d="M153.44,49.47c1.08,0,2-1.47,2-2.56V40.2a1.91,1.91,0,0,0-.11-.64,10.34,10.34,0,0,0-3.82,2.24v5.11C151.47,48,152.35,49.47,153.44,49.47Z"/><path class="cls-17" d="M156.48,46.14c0,1.09.88,2.73,2,2.73s2-1.64,2-2.73V39.43a1.1,1.1,0,0,0,0-.18,10.65,10.65,0,0,0-3.9,0c0,.06,0,.12,0,.18Z"/><rect class="cls-17" x="146.83" y="51.64" width="23.21" height="1.05" rx="0.29"/><path class="cls-5" d="M161.14,49h6.68a0,0,0,0,1,0,0v1.72a2.11,2.11,0,0,1-2.11,2.11H159a0,0,0,0,1,0,0V51.1A2.11,2.11,0,0,1,161.14,49Z"/><rect class="cls-5" x="146.22" y="86.51" width="24.58" height="4.67" rx="1.29"/><rect class="cls-5" x="150.23" y="88.84" width="7.35" height="20.93" rx="1.11"/><rect class="cls-5" x="159.84" y="88.84" width="7.35" height="20.93" rx="1.11"/><circle class="cls-9" cx="111.02" cy="53.64" r="2.47"/><circle class="cls-10" cx="111.02" cy="53.64" r="1.59"/><circle class="cls-9" cx="130.18" cy="53.64" r="2.47"/><path class="cls-13" d="M118.69,65.37h3.82a10.14,10.14,0,0,1,10.14,10.14v9.06a1.86,1.86,0,0,1-1.86,1.86H110.41a1.86,1.86,0,0,1-1.86-1.86V75.51A10.14,10.14,0,0,1,118.69,65.37Z"/><rect class="cls-12" x="118.53" y="70.64" width="4.29" height="15.79"/><path class="cls-12" d="M119.09,70.56l-3.29,1.19a.7.7,0,0,1-.94-.75l.63-4.88.39-.15,4.87-.33Z"/><path class="cls-12" d="M122.12,70.56l3.28,1.19a.71.71,0,0,0,.95-.75l-.63-4.88-.4-.15-4.86-.33Z"/><path class="cls-12" d="M117.24,65.87h6.67a.85.85,0,0,1,.85.85v1.05a3.52,3.52,0,0,1-3.52,3.52h-1.33a3.52,3.52,0,0,1-3.52-3.52V66.72A.85.85,0,0,1,117.24,65.87Z"/><circle class="cls-10" cx="130.18" cy="53.64" r="1.59"/><path class="cls-6" d="M120.83,72.38h-.41a1.24,1.24,0,0,1-1.22-1l-.29-1.75h3.37l-.22,1.71A1.24,1.24,0,0,1,120.83,72.38Z"/><rect class="cls-9" x="115.83" y="60.29" width="9.53" height="9.53" rx="4.01"/><circle class="cls-23" cx="111.55" cy="47.78" r="3"/><circle class="cls-23" cx="129.99" cy="47.78" r="3"/><rect class="cls-7" x="111.02" y="40.83" width="19.16" height="24.23" rx="8.06"/><rect class="cls-5" x="115.62" y="51.35" width="2.37" height="2.95" rx="1"/><rect class="cls-5" x="123.21" y="51.35" width="2.37" height="2.95" rx="1"/><path class="cls-9" d="M120.55,54.3h.39a1,1,0,0,1,1,1V56.4a0,0,0,0,1,0,0h-2.45a0,0,0,0,1,0,0V55.33A1,1,0,0,1,120.55,54.3Z" transform="translate(241.49 110.7) rotate(180)"/><path class="cls-13" d="M120,58.14h1.2a3.19,3.19,0,0,1,3.19,3.19v1.31a.26.26,0,0,1-.26.26h-7.06a.26.26,0,0,1-.26-.26V61.33A3.19,3.19,0,0,1,120,58.14Z" transform="translate(241.2 121.03) rotate(180)"/><path class="cls-14" d="M119.85,60.65c-.92-.06-1.24-.75-1.79-.57-.23.08-.51.31-.71,1a3.76,3.76,0,0,0,1.21,1.27,4.1,4.1,0,0,0,3.29.36,1.71,1.71,0,0,0,.32-1.34,1.39,1.39,0,0,0-.6-.93C121,60.17,120.7,60.71,119.85,60.65Z"/><path class="cls-12" d="M118.32,58.14h4.56a0,0,0,0,1,0,0v.14a.75.75,0,0,1-.75.75h-3.07a.75.75,0,0,1-.75-.75v-.14A0,0,0,0,1,118.32,58.14Z"/><circle class="cls-9" cx="114.16" cy="57.34" r="1.24"/><circle class="cls-9" cx="126.99" cy="57.34" r="1.24"/><rect class="cls-23" x="122.84" y="49.95" width="3.11" height="0.61" rx="0.26"/><rect class="cls-23" x="115.26" y="49.95" width="3.11" height="0.61" rx="0.26"/><path class="cls-23" d="M120.64,63.24h.19a.51.51,0,0,1,.51.51v1.31a0,0,0,0,1,0,0h-1.21a0,0,0,0,1,0,0V63.75A.51.51,0,0,1,120.64,63.24Z"/><rect class="cls-6" x="119.81" y="71.87" width="1.65" height="12.56" rx="0.7"/><path class="cls-23" d="M120.73,56.4h3.11a1.2,1.2,0,0,1,1.2,1.2v.23a0,0,0,0,1,0,0h-3.11a1.2,1.2,0,0,1-1.2-1.2V56.4A0,0,0,0,1,120.73,56.4Z"/><path class="cls-23" d="M117.65,56.4h3.11a0,0,0,0,1,0,0v.23a1.2,1.2,0,0,1-1.2,1.2h-3.11a0,0,0,0,1,0,0v-.23A1.2,1.2,0,0,1,117.65,56.4Z" transform="translate(237.2 114.24) rotate(180)"/><circle class="cls-23" cx="114.72" cy="42.59" r="4.16"/><path class="cls-23" d="M127.09,46.5h-6.57a4,4,0,0,1-4-4v-.1a4.16,4.16,0,0,1,4.16-4.18H132.3v3.1A5.21,5.21,0,0,1,127.09,46.5Z"/><rect class="cls-23" x="110.11" y="49.46" width="0.9" height="5.44" rx="0.38"/><rect class="cls-23" x="130.18" y="49.46" width="0.9" height="5.44" rx="0.38"/><path class="cls-24" d="M110.9,89.88H120a0,0,0,0,1,0,0v15.63a3.85,3.85,0,0,1-3.85,3.85h-1.45a3.85,3.85,0,0,1-3.85-3.85V89.88A0,0,0,0,1,110.9,89.88Z"/><path class="cls-24" d="M121.23,89.88h9.15a0,0,0,0,1,0,0v15.63a3.85,3.85,0,0,1-3.85,3.85h-1.45a3.85,3.85,0,0,1-3.85-3.85V89.88A0,0,0,0,1,121.23,89.88Z"/><path class="cls-7" d="M101.63,73.11h4.45a0,0,0,0,1,0,0v9.18a1.87,1.87,0,0,1-1.87,1.87h-.71a1.87,1.87,0,0,1-1.87-1.87V73.11a0,0,0,0,1,0,0Z" transform="translate(94.46 -51.29) rotate(48.73)"/><path class="cls-13" d="M109.18,67.37h.71a1.89,1.89,0,0,1,1.89,1.89V80a0,0,0,0,1,0,0h-4.5a0,0,0,0,1,0,0V69.26A1.89,1.89,0,0,1,109.18,67.37Z" transform="translate(92.68 -57.24) rotate(48.73)"/><rect class="cls-8" x="103.06" y="76.2" width="4.87" height="2.13" rx="0.88" transform="translate(93.98 -52.99) rotate(48.73)"/><path class="cls-7" d="M137,73.11h.71A1.87,1.87,0,0,1,139.57,75v9.18a0,0,0,0,1,0,0h-4.45a0,0,0,0,1,0,0V75A1.87,1.87,0,0,1,137,73.11Z" transform="translate(287.05 27.28) rotate(131.27)"/><path class="cls-13" d="M129.42,67.37h4.5a0,0,0,0,1,0,0V78.14A1.89,1.89,0,0,1,132,80h-.71a1.89,1.89,0,0,1-1.89-1.89V67.37A0,0,0,0,1,129.42,67.37Z" transform="translate(273.92 23.36) rotate(131.27)"/><rect class="cls-8" x="133.28" y="76.2" width="4.87" height="2.13" rx="0.88" transform="translate(283.31 26.22) rotate(131.27)"/><rect class="cls-24" x="108.41" y="86.22" width="24.09" height="4.01" rx="1.69"/><rect class="cls-25" x="118.39" y="86.22" width="4.29" height="1.02"/><rect class="cls-26" x="120.02" y="86.22" width="1.02" height="1.02" rx="0.22"/></g></g></svg>