<svg xmlns="http://www.w3.org/2000/svg" viewBox="0 0 158.91 107.49"><defs><style>.cls-1{fill:#71b963;}.cls-2{fill:#fbde63;}.cls-3{fill:#e6e4f3;}.cls-4{fill:#d9d8ee;}.cls-5{fill:#c6c5dd;}.cls-6{fill:#f2928b;}.cls-7{fill:#e58887;}.cls-8{fill:#99d6f0;}.cls-9{fill:#112439;}.cls-10{fill:#fff;}.cls-11{fill:#f2ae9f;}.cls-12{fill:#8b143a;}.cls-13{fill:#e72662;}.cls-14{fill:#8e4d21;}.cls-15{fill:#e78f26;}.cls-16{fill:#e27829;}.cls-17{fill:#a55924;}.cls-18{fill:#9a5120;}.cls-19{fill:#cd773d;}.cls-20{fill:#080e15;}.cls-21{fill:#ec8e83;}.cls-22{fill:#f1f2fa;}.cls-23{fill:#50519e;}.cls-24{fill:#405d6d;}.cls-25{fill:#ef8c1e;}.cls-26{fill:none;stroke:#ef8c1e;stroke-miterlimit:10;stroke-width:0.5px;}.cls-27{fill:#60b348;}</style></defs><title>Tipopruebas</title><g id="Capa_2" data-name="Capa 2"><g id="Capa_6" data-name="Capa 6"><path class="cls-1" d="M37.25,69.67c15.81,21.68,50.78,5,51.26-19.44a.38.38,0,0,0-.75,0C87.29,73.82,53.28,90.38,37.9,69.29c-.28-.38-.93,0-.65.38Z"/><path class="cls-1" d="M48.9,74.27C64.71,96,99.67,79.21,100.15,54.83a.38.38,0,0,0-.75,0C98.94,78.42,64.92,95,49.54,73.89c-.28-.39-.93,0-.64.38Z"/><path class="cls-2" d="M36.88,61.33C35.3,88.07,72.93,97.39,88.76,78.92c.32-.36-.21-.89-.53-.53-15.4,18-52.14,9.06-50.6-17.06,0-.48-.72-.48-.75,0Z"/><path class="cls-2" d="M29.21,66.38c14.7,22.46,50.45,7.44,52.16-16.86,0-.48-.71-.48-.75,0C79,73.07,44.14,87.82,29.86,66c-.27-.4-.92,0-.65.38Z"/><path class="cls-3" d="M14.78,58.13h30a11,11,0,0,1,11,11v36.41a0,0,0,0,1,0,0H3.75a0,0,0,0,1,0,0V69.15a11,11,0,0,1,11-11Z"/><path class="cls-3" d="M3.75,103.26h7.78a0,0,0,0,1,0,0v2.59a1.65,1.65,0,0,1-1.65,1.65H5.4a1.65,1.65,0,0,1-1.65-1.65v-2.59A0,0,0,0,1,3.75,103.26Z"/><path class="cls-3" d="M48.05,103.26h7.78a0,0,0,0,1,0,0v2.59a1.65,1.65,0,0,1-1.65,1.65H49.7a1.65,1.65,0,0,1-1.65-1.65v-2.59A0,0,0,0,1,48.05,103.26Z"/><rect class="cls-4" x="10.97" y="66.72" width="37.65" height="13.95" rx="4.03"/><path class="cls-5" d="M11,77.41H48.61a0,0,0,0,1,0,0v.4a2.86,2.86,0,0,1-2.86,2.86H13.82A2.86,2.86,0,0,1,11,77.81v-.4A0,0,0,0,1,11,77.41Z"/><rect class="cls-4" x="10.97" y="83.57" width="37.65" height="13.95" rx="4.03"/><path class="cls-5" d="M11,94.26H48.6a0,0,0,0,1,0,0v.4a2.86,2.86,0,0,1-2.86,2.86H13.81A2.86,2.86,0,0,1,11,94.66v-.4A0,0,0,0,1,11,94.26Z"/><circle class="cls-6" cx="2.91" cy="19.39" r="2.67"/><circle class="cls-7" cx="2.91" cy="19.39" r="1.73"/><circle class="cls-6" cx="23.7" cy="19.39" r="2.67"/><path class="cls-8" d="M13.3,31.78h0A13.07,13.07,0,0,1,26.37,44.85v9.78a0,0,0,0,1,0,0H.23a0,0,0,0,1,0,0V44.85A13.07,13.07,0,0,1,13.3,31.78Z"/><path class="cls-9" d="M8.13,32.29h0a0,0,0,0,1,0,0V53.45a1.38,1.38,0,0,1-1.38,1.38H1.38A1.38,1.38,0,0,1,0,53.45v-13a8.13,8.13,0,0,1,8.13-8.13Z"/><path class="cls-9" d="M19.86,32.29h5.31a1.38,1.38,0,0,1,1.38,1.38V54.83a0,0,0,0,1,0,0h0a8.07,8.07,0,0,1-8.07-8.07V33.67A1.38,1.38,0,0,1,19.86,32.29Z" transform="translate(45.03 87.13) rotate(-180)"/><path class="cls-10" d="M7.47,32.52H19a.29.29,0,0,1,.29.29v0a4.92,4.92,0,0,1-4.92,4.92H12.1A4.92,4.92,0,0,1,7.18,32.8v0a.29.29,0,0,1,.29-.29Z"/><path class="cls-10" d="M19.5,37.36a3.44,3.44,0,0,1-1,1,2.67,2.67,0,0,1-.92.32.62.62,0,0,1-.69-.65V32.44a.63.63,0,0,1,.61-.66H19a.62.62,0,0,1,.58.44C20.28,34.42,20.2,36.39,19.5,37.36Z"/><path class="cls-10" d="M7.15,37.36a3.58,3.58,0,0,0,1,1,2.86,2.86,0,0,0,1.07.34.51.51,0,0,0,.55-.5V32.28a.51.51,0,0,0-.51-.5H7.55a.5.5,0,0,0-.48.35C6.38,34.37,6.45,36.37,7.15,37.36Z"/><circle class="cls-7" cx="23.7" cy="19.39" r="1.73"/><rect class="cls-6" x="8.13" y="26.61" width="10.34" height="10.34" rx="5.17"/><rect class="cls-11" x="2.91" y="5.49" width="20.79" height="26.29" rx="10.4"/><rect class="cls-9" x="8.13" y="17.53" width="2.57" height="3.71" rx="1.29"/><rect class="cls-9" x="15.9" y="17.53" width="2.57" height="3.71" rx="1.29"/><path class="cls-6" d="M13.3,21.38h0a1.09,1.09,0,0,1,1.09,1.09v.28a0,0,0,0,1,0,0H12.22a0,0,0,0,1,0,0v-.28A1.09,1.09,0,0,1,13.3,21.38Z"/><path class="cls-12" d="M13.3,23.79h0a4.11,4.11,0,0,1,4.11,4.11v.71a.33.33,0,0,1-.33.33H9.52a.33.33,0,0,1-.33-.33V27.9A4.11,4.11,0,0,1,13.3,23.79Z" transform="translate(26.61 52.73) rotate(180)"/><path class="cls-13" d="M12.49,26.49c-1-.07-1.35-.81-2-.62-.25.08-.55.33-.76,1.07a3.94,3.94,0,0,0,1.32,1.38,4.46,4.46,0,0,0,3.56.4A1.89,1.89,0,0,0,15,27.26a1.45,1.45,0,0,0-.65-1C13.78,26,13.42,26.55,12.49,26.49Z"/><path class="cls-10" d="M10.83,23.79h4.95a0,0,0,0,1,0,0v0a1,1,0,0,1-1,1h-3a1,1,0,0,1-1-1v0A0,0,0,0,1,10.83,23.79Z"/><circle class="cls-9" cx="13.23" cy="40.93" r="0.55"/><circle class="cls-9" cx="13.23" cy="43.51" r="0.55"/><circle class="cls-9" cx="13.23" cy="46.09" r="0.55"/><circle class="cls-9" cx="13.23" cy="48.68" r="0.55"/><circle class="cls-9" cx="13.23" cy="51.26" r="0.55"/><rect class="cls-14" x="2.84" y="14.02" width="1.14" height="6.08" rx="0.57"/><rect class="cls-14" x="22.56" y="14.02" width="1.14" height="6.08" rx="0.57"/><circle class="cls-14" cx="2.6" cy="16.25" r="1.41"/><circle class="cls-14" cx="23.97" cy="16.25" r="1.41"/><rect class="cls-14" x="7.73" y="16.55" width="3.37" height="0.66" rx="0.33"/><rect class="cls-14" x="15.5" y="16.55" width="3.37" height="0.66" rx="0.33"/><path class="cls-15" d="M21.11,3.06V8.89a2.23,2.23,0,0,1-4.46,0V1.28a2.2,2.2,0,0,1,.13-.73A11.94,11.94,0,0,0,15.44.21a1.36,1.36,0,0,1,0,.2V8A2.23,2.23,0,0,1,11,8V.41c0-.07,0-.13,0-.2A11.94,11.94,0,0,0,9.65.56a2.48,2.48,0,0,1,.13.72V8.89a2.24,2.24,0,0,1-4.47,0V3.1a11.65,11.65,0,0,0-3.75,8.57v2.51a1.27,1.27,0,0,0,1.28,1.27H23.63a1.27,1.27,0,0,0,1.27-1.27V11.67A11.63,11.63,0,0,0,21.11,3.06Z"/><path class="cls-16" d="M16.65,8.89c0,1.23,1,2.91,2.23,2.91s2.23-1.68,2.23-2.91V3.06A11.68,11.68,0,0,0,16.78.55a2.2,2.2,0,0,0-.13.73Z"/><path class="cls-16" d="M7.55,11.8c1.23,0,2.23-1.68,2.23-2.91V1.28A2.48,2.48,0,0,0,9.65.56,11.71,11.71,0,0,0,5.31,3.1V8.89C5.31,10.12,6.31,11.8,7.55,11.8Z"/><path class="cls-16" d="M11,8c0,1.24,1,3.1,2.23,3.1S15.46,9.26,15.46,8V.41a1.36,1.36,0,0,0,0-.2A11.43,11.43,0,0,0,13.23,0,11.58,11.58,0,0,0,11,.21c0,.07,0,.13,0,.2Z"/><rect class="cls-16" x="0.06" y="14.26" width="26.32" height="1.19" rx="0.6"/><circle class="cls-17" cx="35.96" cy="19.39" r="2.67"/><circle class="cls-18" cx="35.96" cy="19.39" r="1.73"/><circle class="cls-17" cx="56.75" cy="19.39" r="2.67"/><path class="cls-8" d="M46.35,31.78h0A13.07,13.07,0,0,1,59.42,44.85v9.78a0,0,0,0,1,0,0H33.28a0,0,0,0,1,0,0V44.85A13.07,13.07,0,0,1,46.35,31.78Z"/><path class="cls-9" d="M41.18,32.29h0a0,0,0,0,1,0,0V53.45a1.38,1.38,0,0,1-1.38,1.38H34.43a1.38,1.38,0,0,1-1.38-1.38v-13A8.13,8.13,0,0,1,41.18,32.29Z"/><path class="cls-9" d="M52.91,32.29h5.31a1.38,1.38,0,0,1,1.38,1.38V54.83a0,0,0,0,1,0,0h0a8.07,8.07,0,0,1-8.07-8.07V33.67a1.38,1.38,0,0,1,1.38-1.38Z" transform="translate(111.13 87.13) rotate(180)"/><path class="cls-10" d="M40.52,32.52H52.09a.29.29,0,0,1,.29.29v0a4.92,4.92,0,0,1-4.92,4.92H45.15a4.92,4.92,0,0,1-4.92-4.92v0A.29.29,0,0,1,40.52,32.52Z"/><path class="cls-10" d="M52.56,37.36a3.54,3.54,0,0,1-1,1,2.67,2.67,0,0,1-.92.32.62.62,0,0,1-.69-.65V32.44a.63.63,0,0,1,.61-.66h1.55a.62.62,0,0,1,.58.44C53.33,34.42,53.25,36.39,52.56,37.36Z"/><path class="cls-10" d="M40.2,37.36a3.58,3.58,0,0,0,1,1,2.86,2.86,0,0,0,1.07.34.51.51,0,0,0,.55-.5V32.28a.51.51,0,0,0-.51-.5H40.6a.5.5,0,0,0-.48.35C39.43,34.37,39.5,36.37,40.2,37.36Z"/><circle class="cls-18" cx="56.75" cy="19.39" r="1.73"/><rect class="cls-17" x="41.18" y="26.61" width="10.34" height="10.34" rx="5.17"/><rect class="cls-19" x="35.96" y="5.49" width="20.79" height="26.29" rx="10.4"/><rect class="cls-20" x="41.18" y="17.53" width="2.57" height="3.71" rx="1.29"/><rect class="cls-20" x="48.96" y="17.53" width="2.57" height="3.71" rx="1.29"/><path class="cls-21" d="M46.35,21.38h0a1.09,1.09,0,0,1,1.09,1.09v.28a0,0,0,0,1,0,0H45.27a0,0,0,0,1,0,0v-.28A1.09,1.09,0,0,1,46.35,21.38Z"/><path class="cls-12" d="M46.35,23.79h0a4.11,4.11,0,0,1,4.11,4.11v.71a.33.33,0,0,1-.33.33H42.57a.33.33,0,0,1-.33-.33V27.9a4.11,4.11,0,0,1,4.11-4.11Z" transform="translate(92.71 52.73) rotate(180)"/><path class="cls-13" d="M45.54,26.49c-1-.07-1.35-.81-1.95-.62-.25.08-.55.33-.76,1.07a3.94,3.94,0,0,0,1.32,1.38,4.46,4.46,0,0,0,3.56.4,1.89,1.89,0,0,0,.35-1.46,1.45,1.45,0,0,0-.65-1C46.83,26,46.47,26.55,45.54,26.49Z"/><path class="cls-10" d="M43.88,23.79h4.95a0,0,0,0,1,0,0v0a1,1,0,0,1-1,1h-3a1,1,0,0,1-1-1v0A0,0,0,0,1,43.88,23.79Z"/><circle class="cls-9" cx="46.28" cy="40.93" r="0.55"/><circle class="cls-9" cx="46.28" cy="43.51" r="0.55"/><circle class="cls-9" cx="46.28" cy="46.09" r="0.55"/><circle class="cls-9" cx="46.28" cy="48.68" r="0.55"/><circle class="cls-9" cx="46.28" cy="51.26" r="0.55"/><rect class="cls-9" x="35.89" y="14.02" width="1.14" height="6.08" rx="0.57"/><rect class="cls-9" x="55.61" y="14.02" width="1.14" height="6.08" rx="0.57"/><circle class="cls-9" cx="35.65" cy="16.25" r="1.41"/><circle class="cls-9" cx="37.68" cy="14.84" r="1.41"/><circle class="cls-9" cx="40.23" cy="14.75" r="1.41"/><circle class="cls-9" cx="42.65" cy="14.75" r="1.41"/><circle class="cls-9" cx="45.17" cy="14.75" r="1.41"/><circle class="cls-9" cx="47.71" cy="14.84" r="1.41"/><circle class="cls-9" cx="50.37" cy="14.75" r="1.41"/><circle class="cls-9" cx="52.92" cy="14.84" r="1.41"/><circle class="cls-9" cx="55.49" cy="14.84" r="1.41"/><circle class="cls-9" cx="57.02" cy="16.25" r="1.41"/><rect class="cls-9" x="40.78" y="16.55" width="3.37" height="0.66" rx="0.33"/><rect class="cls-9" x="48.56" y="16.55" width="3.37" height="0.66" rx="0.33"/><path class="cls-15" d="M54.16,3.06V8.89a2.23,2.23,0,0,1-4.46,0V1.28a2.2,2.2,0,0,1,.13-.73A11.94,11.94,0,0,0,48.49.21a1.36,1.36,0,0,1,0,.2V8a2.23,2.23,0,1,1-4.46,0V.41c0-.07,0-.13,0-.2A12.49,12.49,0,0,0,42.7.56a2.18,2.18,0,0,1,.13.72V8.89a2.23,2.23,0,1,1-4.46,0V3.1a11.62,11.62,0,0,0-3.76,8.57v2.51a1.27,1.27,0,0,0,1.28,1.27H56.68A1.27,1.27,0,0,0,58,14.18V11.67A11.63,11.63,0,0,0,54.16,3.06Z"/><path class="cls-16" d="M49.7,8.89c0,1.23,1,2.91,2.23,2.91s2.23-1.68,2.23-2.91V3.06A11.68,11.68,0,0,0,49.83.55a2.2,2.2,0,0,0-.13.73Z"/><path class="cls-16" d="M40.6,11.8c1.23,0,2.23-1.68,2.23-2.91V1.28A2.18,2.18,0,0,0,42.7.56,11.59,11.59,0,0,0,38.37,3.1V8.89C38.37,10.12,39.36,11.8,40.6,11.8Z"/><path class="cls-16" d="M44.05,8c0,1.24,1,3.1,2.23,3.1S48.51,9.26,48.51,8V.41a1.36,1.36,0,0,0,0-.2A11.43,11.43,0,0,0,46.28,0a11.58,11.58,0,0,0-2.21.21c0,.07,0,.13,0,.2Z"/><rect class="cls-16" x="33.11" y="14.26" width="26.32" height="1.19" rx="0.6"/><path class="cls-9" d="M51.28,11.26h5.63a0,0,0,0,1,0,0v0a4.34,4.34,0,0,1-4.34,4.34H46.94a0,0,0,0,1,0,0v0A4.34,4.34,0,0,1,51.28,11.26Z"/><rect class="cls-3" x="67.58" y="5.71" width="91.33" height="91.33" rx="16.02"/><rect class="cls-22" x="71.18" y="9.95" width="83.5" height="81.67" rx="14.28"/><path class="cls-23" d="M83.6,9.95h59.28a11.79,11.79,0,0,1,11.79,11.79v1a0,0,0,0,1,0,0H71.81a0,0,0,0,1,0,0v-1A11.79,11.79,0,0,1,83.6,9.95Z"/><path class="cls-24" d="M83.94,59.69h5.62a2.59,2.59,0,0,1,2.59,2.59V90.2a0,0,0,0,1,0,0H81.35a0,0,0,0,1,0,0V62.28A2.59,2.59,0,0,1,83.94,59.69Z"/><path class="cls-24" d="M123,59.69h5.62a2.59,2.59,0,0,1,2.59,2.59V90.2a0,0,0,0,1,0,0H120.46a0,0,0,0,1,0,0V62.28A2.59,2.59,0,0,1,123,59.69Z"/><path class="cls-24" d="M97,68.3h5.62a2.59,2.59,0,0,1,2.59,2.59V90.2a0,0,0,0,1,0,0H94.38a0,0,0,0,1,0,0V70.89A2.59,2.59,0,0,1,97,68.3Z"/><path class="cls-24" d="M109.8,52.46h5.62A2.59,2.59,0,0,1,118,55V90.2a0,0,0,0,1,0,0H107.21a0,0,0,0,1,0,0V55A2.59,2.59,0,0,1,109.8,52.46Z"/><path class="cls-24" d="M136.93,52.46h5.62A2.59,2.59,0,0,1,145.14,55V90.2a0,0,0,0,1,0,0H134.35a0,0,0,0,1,0,0V55A2.59,2.59,0,0,1,136.93,52.46Z"/><circle class="cls-10" cx="144.96" cy="17.33" r="1.95"/><circle class="cls-10" cx="139.89" cy="17.33" r="1.95"/><circle class="cls-10" cx="135.11" cy="17.33" r="1.95"/><circle class="cls-25" cx="99.78" cy="60.51" r="1.39"/><circle class="cls-25" cx="112.61" cy="44.4" r="1.39"/><circle class="cls-25" cx="139.74" cy="44.4" r="1.39"/><circle class="cls-25" cx="125.58" cy="51.57" r="1.39"/><circle class="cls-25" cx="86.74" cy="51.57" r="1.39"/><line class="cls-26" x1="86.74" y1="51.57" x2="99.78" y2="60.51"/><line class="cls-26" x1="112.61" y1="44.4" x2="125.58" y2="51.57"/><line class="cls-26" x1="99.78" y1="60.51" x2="112.61" y2="44.4"/><line class="cls-26" x1="125.58" y1="51.57" x2="139.74" y2="44.4"/><path class="cls-25" d="M78.18,36.34h67.5a.23.23,0,0,0,0-.45H78.18a.23.23,0,0,0,0,.45Z"/><path class="cls-25" d="M78.18,37.5h67.5a.23.23,0,0,0,0-.45H78.18a.23.23,0,0,0,0,.45Z"/><path class="cls-25" d="M78.13,38.67h67.5a.23.23,0,0,0,0-.45H78.13a.23.23,0,0,0,0,.45Z"/><path class="cls-25" d="M78.13,39.83h67.5a.23.23,0,0,0,0-.45H78.13a.23.23,0,0,0,0,.45Z"/><path class="cls-25" d="M78.18,28.53h67.5a.23.23,0,0,0,0-.45H78.18a.23.23,0,0,0,0,.45Z"/><path class="cls-25" d="M78.18,29.69h67.5a.23.23,0,0,0,0-.45H78.18a.23.23,0,0,0,0,.45Z"/><path class="cls-25" d="M78.13,30.86h67.5a.23.23,0,0,0,0-.45H78.13a.23.23,0,0,0,0,.45Z"/><path class="cls-25" d="M78.13,32h67.5a.23.23,0,0,0,0-.45H78.13a.23.23,0,0,0,0,.45Z"/><rect class="cls-2" x="26.07" y="66.72" width="7.28" height="10.69"/><rect class="cls-27" x="35.12" y="66.72" width="7.28" height="10.69"/><rect class="cls-2" x="26.07" y="83.57" width="7.28" height="10.69"/><rect class="cls-27" x="35.12" y="83.57" width="7.28" height="10.69"/><circle class="cls-18" cx="39.93" cy="21.41" r="0.3"/><circle class="cls-18" cx="50.24" cy="28.65" r="0.3"/><circle class="cls-21" cx="52.98" cy="23.26" r="1.2"/><circle class="cls-21" cx="39.64" cy="23.26" r="1.2"/><circle class="cls-21" cx="20.07" cy="23.26" r="1.2"/><circle class="cls-6" cx="7.18" cy="23.07" r="1.2"/><circle class="cls-18" cx="20.08" cy="18.13" r="0.27"/></g></g></svg>